ISO-10303-21;
HEADER;
FILE_DESCRIPTION(('Shape Data from monstertruck'), '2;1');
FILE_NAME('', '2026-09-01 02:55:38.706574574', (''), (''), 'monstertruck', 'KiCase', '');
FILE_SCHEMA(('AUTOMOTIVE_DESIGN'));
ENDSEC;
DATA;
#1 = APPLICATION_PROTOCOL_DEFINITION('international standard', 'automotive_design', 2000, #2);
#2 = APPLICATION_CONTEXT('core data for automotive mechanical design processes');
#3 = SHAPE_DEFINITION_REPRESENTATION(#4, #10);
#4 = PRODUCT_DEFINITION_SHAPE('','', #5);
#5 = PRODUCT_DEFINITION('design','', #6, #9);
#6 = PRODUCT_DEFINITION_FORMATION('','', #7);
#7 = PRODUCT('','','', (#8));
#8 = PRODUCT_CONTEXT('', #2, 'mechanical');
#9 = PRODUCT_DEFINITION_CONTEXT('part definition', #2, 'design');
#10 = ADVANCED_BREP_SHAPE_REPRESENTATION('', (#16), #11);
#11 = (
    GEOMETRIC_REPRESENTATION_CONTEXT(3) 
    GLOBAL_UNCERTAINTY_ASSIGNED_CONTEXT((#15))
    GLOBAL_UNIT_ASSIGNED_CONTEXT((#12, #13, #14))
    REPRESENTATION_CONTEXT('Context #1', '3D Context with UNIT and UNCERTAINTY')
);
#12 = ( LENGTH_UNIT() NAMED_UNIT(*) SI_UNIT(.MILLI.,.METRE.) );
#13 = ( NAMED_UNIT(*) PLANE_ANGLE_UNIT() SI_UNIT($,.RADIAN.) );
#14 = ( NAMED_UNIT(*) SI_UNIT($,.STERADIAN.) SOLID_ANGLE_UNIT() );
#15 = UNCERTAINTY_MEASURE_WITH_UNIT(LENGTH_MEASURE(1.0E-6), #12, 'distance_accuracy_value','confusion accuracy');
#16 = MANIFOLD_SOLID_BREP('', #17);
#17 = CLOSED_SHELL('', (#18, #29, #36, #65, #72, #81, #88, #97, #104, #114, #121, #129, #140, #147, #154, #161, #168, #175, #182));
#18 = ADVANCED_FACE('', (#19), #285, .F.);
#19 = FACE_BOUND('', #20, .F.);
#20 = EDGE_LOOP('', (#21, #22, #23, #24, #25, #26, #27, #28));
#21 = ORIENTED_EDGE('', *, *, #189, .T.);
#22 = ORIENTED_EDGE('', *, *, #190, .T.);
#23 = ORIENTED_EDGE('', *, *, #191, .T.);
#24 = ORIENTED_EDGE('', *, *, #192, .T.);
#25 = ORIENTED_EDGE('', *, *, #193, .T.);
#26 = ORIENTED_EDGE('', *, *, #194, .T.);
#27 = ORIENTED_EDGE('', *, *, #195, .T.);
#28 = ORIENTED_EDGE('', *, *, #196, .T.);
#29 = ADVANCED_FACE('', (#30), #290, .T.);
#30 = FACE_BOUND('', #31, .T.);
#31 = EDGE_LOOP('', (#32, #33, #34, #35));
#32 = ORIENTED_EDGE('', *, *, #196, .T.);
#33 = ORIENTED_EDGE('', *, *, #197, .T.);
#34 = ORIENTED_EDGE('', *, *, #198, .F.);
#35 = ORIENTED_EDGE('', *, *, #199, .F.);
#36 = ADVANCED_FACE('', (#37, #47), #295, .T.);
#37 = FACE_BOUND('', #38, .T.);
#38 = EDGE_LOOP('', (#39, #40, #41, #42, #43, #44, #45, #46));
#39 = ORIENTED_EDGE('', *, *, #200, .T.);
#40 = ORIENTED_EDGE('', *, *, #201, .T.);
#41 = ORIENTED_EDGE('', *, *, #202, .T.);
#42 = ORIENTED_EDGE('', *, *, #203, .T.);
#43 = ORIENTED_EDGE('', *, *, #204, .T.);
#44 = ORIENTED_EDGE('', *, *, #205, .T.);
#45 = ORIENTED_EDGE('', *, *, #206, .T.);
#46 = ORIENTED_EDGE('', *, *, #198, .T.);
#47 = FACE_BOUND('', #48, .T.);
#48 = EDGE_LOOP('', (#49, #50, #51, #52, #53, #54, #55, #56, #57, #58, #59, #60, #61, #62, #63, #64));
#49 = ORIENTED_EDGE('', *, *, #207, .F.);
#50 = ORIENTED_EDGE('', *, *, #208, .T.);
#51 = ORIENTED_EDGE('', *, *, #209, .T.);
#52 = ORIENTED_EDGE('', *, *, #210, .F.);
#53 = ORIENTED_EDGE('', *, *, #211, .F.);
#54 = ORIENTED_EDGE('', *, *, #212, .T.);
#55 = ORIENTED_EDGE('', *, *, #213, .T.);
#56 = ORIENTED_EDGE('', *, *, #214, .F.);
#57 = ORIENTED_EDGE('', *, *, #215, .F.);
#58 = ORIENTED_EDGE('', *, *, #216, .T.);
#59 = ORIENTED_EDGE('', *, *, #217, .T.);
#60 = ORIENTED_EDGE('', *, *, #218, .F.);
#61 = ORIENTED_EDGE('', *, *, #219, .T.);
#62 = ORIENTED_EDGE('', *, *, #220, .T.);
#63 = ORIENTED_EDGE('', *, *, #221, .T.);
#64 = ORIENTED_EDGE('', *, *, #222, .F.);
#65 = ADVANCED_FACE('', (#66), #300, .F.);
#66 = FACE_BOUND('', #67, .F.);
#67 = EDGE_LOOP('', (#68, #69, #70, #71));
#68 = ORIENTED_EDGE('', *, *, #223, .F.);
#69 = ORIENTED_EDGE('', *, *, #224, .T.);
#70 = ORIENTED_EDGE('', *, *, #225, .T.);
#71 = ORIENTED_EDGE('', *, *, #222, .F.);
#72 = ADVANCED_FACE('', (#73), #305, .F.);
#73 = FACE_BOUND('', #74, .F.);
#74 = EDGE_LOOP('', (#75, #76, #77, #78, #79, #80));
#75 = ORIENTED_EDGE('', *, *, #209, .T.);
#76 = ORIENTED_EDGE('', *, *, #226, .F.);
#77 = ORIENTED_EDGE('', *, *, #227, .T.);
#78 = ORIENTED_EDGE('', *, *, #223, .T.);
#79 = ORIENTED_EDGE('', *, *, #207, .F.);
#80 = ORIENTED_EDGE('', *, *, #208, .T.);
#81 = ADVANCED_FACE('', (#82), #310, .F.);
#82 = FACE_BOUND('', #83, .F.);
#83 = EDGE_LOOP('', (#84, #85, #86, #87));
#84 = ORIENTED_EDGE('', *, *, #228, .F.);
#85 = ORIENTED_EDGE('', *, *, #229, .T.);
#86 = ORIENTED_EDGE('', *, *, #226, .T.);
#87 = ORIENTED_EDGE('', *, *, #210, .F.);
#88 = ADVANCED_FACE('', (#89), #315, .F.);
#89 = FACE_BOUND('', #90, .F.);
#90 = EDGE_LOOP('', (#91, #92, #93, #94, #95, #96));
#91 = ORIENTED_EDGE('', *, *, #212, .T.);
#92 = ORIENTED_EDGE('', *, *, #213, .T.);
#93 = ORIENTED_EDGE('', *, *, #230, .F.);
#94 = ORIENTED_EDGE('', *, *, #231, .T.);
#95 = ORIENTED_EDGE('', *, *, #228, .T.);
#96 = ORIENTED_EDGE('', *, *, #211, .F.);
#97 = ADVANCED_FACE('', (#98), #320, .F.);
#98 = FACE_BOUND('', #99, .F.);
#99 = EDGE_LOOP('', (#100, #101, #102, #103));
#100 = ORIENTED_EDGE('', *, *, #232, .F.);
#101 = ORIENTED_EDGE('', *, *, #233, .T.);
#102 = ORIENTED_EDGE('', *, *, #230, .T.);
#103 = ORIENTED_EDGE('', *, *, #214, .F.);
#104 = ADVANCED_FACE('', (#105), #325, .F.);
#105 = FACE_BOUND('', #106, .F.);
#106 = EDGE_LOOP('', (#107, #108, #109, #110, #111, #112, #113));
#107 = ORIENTED_EDGE('', *, *, #216, .T.);
#108 = ORIENTED_EDGE('', *, *, #217, .T.);
#109 = ORIENTED_EDGE('', *, *, #218, .F.);
#110 = ORIENTED_EDGE('', *, *, #234, .F.);
#111 = ORIENTED_EDGE('', *, *, #235, .T.);
#112 = ORIENTED_EDGE('', *, *, #232, .T.);
#113 = ORIENTED_EDGE('', *, *, #215, .F.);
#114 = ADVANCED_FACE('', (#115), #330, .F.);
#115 = FACE_BOUND('', #116, .F.);
#116 = EDGE_LOOP('', (#117, #118, #119, #120));
#117 = ORIENTED_EDGE('', *, *, #219, .T.);
#118 = ORIENTED_EDGE('', *, *, #236, .F.);
#119 = ORIENTED_EDGE('', *, *, #237, .T.);
#120 = ORIENTED_EDGE('', *, *, #234, .T.);
#121 = ADVANCED_FACE('', (#122), #335, .F.);
#122 = FACE_BOUND('', #123, .F.);
#123 = EDGE_LOOP('', (#124, #125, #126, #127, #128));
#124 = ORIENTED_EDGE('', *, *, #221, .T.);
#125 = ORIENTED_EDGE('', *, *, #225, .F.);
#126 = ORIENTED_EDGE('', *, *, #238, .T.);
#127 = ORIENTED_EDGE('', *, *, #236, .T.);
#128 = ORIENTED_EDGE('', *, *, #220, .T.);
#129 = ADVANCED_FACE('', (#130), #340, .T.);
#130 = FACE_BOUND('', #131, .T.);
#131 = EDGE_LOOP('', (#132, #133, #134, #135, #136, #137, #138, #139));
#132 = ORIENTED_EDGE('', *, *, #238, .T.);
#133 = ORIENTED_EDGE('', *, *, #237, .T.);
#134 = ORIENTED_EDGE('', *, *, #235, .T.);
#135 = ORIENTED_EDGE('', *, *, #233, .T.);
#136 = ORIENTED_EDGE('', *, *, #231, .T.);
#137 = ORIENTED_EDGE('', *, *, #229, .T.);
#138 = ORIENTED_EDGE('', *, *, #227, .T.);
#139 = ORIENTED_EDGE('', *, *, #224, .T.);
#140 = ADVANCED_FACE('', (#141), #345, .T.);
#141 = FACE_BOUND('', #142, .T.);
#142 = EDGE_LOOP('', (#143, #144, #145, #146));
#143 = ORIENTED_EDGE('', *, *, #195, .T.);
#144 = ORIENTED_EDGE('', *, *, #199, .T.);
#145 = ORIENTED_EDGE('', *, *, #206, .F.);
#146 = ORIENTED_EDGE('', *, *, #239, .F.);
#147 = ADVANCED_FACE('', (#148), #350, .T.);
#148 = FACE_BOUND('', #149, .T.);
#149 = EDGE_LOOP('', (#150, #151, #152, #153));
#150 = ORIENTED_EDGE('', *, *, #194, .T.);
#151 = ORIENTED_EDGE('', *, *, #239, .T.);
#152 = ORIENTED_EDGE('', *, *, #205, .F.);
#153 = ORIENTED_EDGE('', *, *, #240, .F.);
#154 = ADVANCED_FACE('', (#155), #355, .T.);
#155 = FACE_BOUND('', #156, .T.);
#156 = EDGE_LOOP('', (#157, #158, #159, #160));
#157 = ORIENTED_EDGE('', *, *, #193, .T.);
#158 = ORIENTED_EDGE('', *, *, #240, .T.);
#159 = ORIENTED_EDGE('', *, *, #204, .F.);
#160 = ORIENTED_EDGE('', *, *, #241, .F.);
#161 = ADVANCED_FACE('', (#162), #360, .T.);
#162 = FACE_BOUND('', #163, .T.);
#163 = EDGE_LOOP('', (#164, #165, #166, #167));
#164 = ORIENTED_EDGE('', *, *, #192, .T.);
#165 = ORIENTED_EDGE('', *, *, #241, .T.);
#166 = ORIENTED_EDGE('', *, *, #203, .F.);
#167 = ORIENTED_EDGE('', *, *, #242, .F.);
#168 = ADVANCED_FACE('', (#169), #365, .T.);
#169 = FACE_BOUND('', #170, .T.);
#170 = EDGE_LOOP('', (#171, #172, #173, #174));
#171 = ORIENTED_EDGE('', *, *, #191, .T.);
#172 = ORIENTED_EDGE('', *, *, #242, .T.);
#173 = ORIENTED_EDGE('', *, *, #202, .F.);
#174 = ORIENTED_EDGE('', *, *, #243, .F.);
#175 = ADVANCED_FACE('', (#176), #370, .T.);
#176 = FACE_BOUND('', #177, .T.);
#177 = EDGE_LOOP('', (#178, #179, #180, #181));
#178 = ORIENTED_EDGE('', *, *, #190, .T.);
#179 = ORIENTED_EDGE('', *, *, #243, .T.);
#180 = ORIENTED_EDGE('', *, *, #201, .F.);
#181 = ORIENTED_EDGE('', *, *, #244, .F.);
#182 = ADVANCED_FACE('', (#183), #375, .T.);
#183 = FACE_BOUND('', #184, .T.);
#184 = EDGE_LOOP('', (#185, #186, #187, #188));
#185 = ORIENTED_EDGE('', *, *, #189, .T.);
#186 = ORIENTED_EDGE('', *, *, #244, .T.);
#187 = ORIENTED_EDGE('', *, *, #200, .F.);
#188 = ORIENTED_EDGE('', *, *, #197, .F.);
#189 = EDGE_CURVE('', #245, #246, #380, .T.);
#190 = EDGE_CURVE('', #246, #247, #388, .T.);
#191 = EDGE_CURVE('', #247, #248, #393, .T.);
#192 = EDGE_CURVE('', #248, #249, #401, .T.);
#193 = EDGE_CURVE('', #249, #250, #406, .T.);
#194 = EDGE_CURVE('', #250, #251, #414, .T.);
#195 = EDGE_CURVE('', #251, #252, #419, .T.);
#196 = EDGE_CURVE('', #252, #245, #427, .T.);
#197 = EDGE_CURVE('', #245, #253, #432, .T.);
#198 = EDGE_CURVE('', #254, #253, #437, .T.);
#199 = EDGE_CURVE('', #252, #254, #442, .T.);
#200 = EDGE_CURVE('', #253, #255, #447, .T.);
#201 = EDGE_CURVE('', #255, #256, #455, .T.);
#202 = EDGE_CURVE('', #256, #257, #460, .T.);
#203 = EDGE_CURVE('', #257, #258, #468, .T.);
#204 = EDGE_CURVE('', #258, #259, #473, .T.);
#205 = EDGE_CURVE('', #259, #260, #481, .T.);
#206 = EDGE_CURVE('', #260, #254, #486, .T.);
#207 = EDGE_CURVE('', #261, #262, #494, .T.);
#208 = EDGE_CURVE('', #261, #263, #519, .T.);
#209 = EDGE_CURVE('', #263, #264, #539, .T.);
#210 = EDGE_CURVE('', #265, #264, #589, .T.);
#211 = EDGE_CURVE('', #266, #265, #606, .T.);
#212 = EDGE_CURVE('', #266, #267, #636, .T.);
#213 = EDGE_CURVE('', #267, #268, #664, .T.);
#214 = EDGE_CURVE('', #269, #268, #701, .T.);
#215 = EDGE_CURVE('', #270, #269, #718, .T.);
#216 = EDGE_CURVE('', #270, #271, #747, .T.);
#217 = EDGE_CURVE('', #271, #272, #772, .T.);
#218 = EDGE_CURVE('', #273, #272, #803, .T.);
#219 = EDGE_CURVE('', #273, #274, #828, .T.);
#220 = EDGE_CURVE('', #274, #275, #845, .T.);
#221 = EDGE_CURVE('', #275, #276, #891, .T.);
#222 = EDGE_CURVE('', #262, #276, #926, .T.);
#223 = EDGE_CURVE('', #277, #262, #943, .T.);
#224 = EDGE_CURVE('', #277, #278, #948, .T.);
#225 = EDGE_CURVE('', #278, #276, #953, .T.);
#226 = EDGE_CURVE('', #279, #264, #958, .T.);
#227 = EDGE_CURVE('', #279, #277, #963, .T.);
#228 = EDGE_CURVE('', #280, #265, #971, .T.);
#229 = EDGE_CURVE('', #280, #279, #976, .T.);
#230 = EDGE_CURVE('', #281, #268, #981, .T.);
#231 = EDGE_CURVE('', #281, #280, #986, .T.);
#232 = EDGE_CURVE('', #282, #269, #994, .T.);
#233 = EDGE_CURVE('', #282, #281, #999, .T.);
#234 = EDGE_CURVE('', #283, #273, #1004, .T.);
#235 = EDGE_CURVE('', #283, #282, #1009, .T.);
#236 = EDGE_CURVE('', #284, #274, #1017, .T.);
#237 = EDGE_CURVE('', #284, #283, #1022, .T.);
#238 = EDGE_CURVE('', #278, #284, #1027, .T.);
#239 = EDGE_CURVE('', #251, #260, #1035, .T.);
#240 = EDGE_CURVE('', #250, #259, #1040, .T.);
#241 = EDGE_CURVE('', #249, #258, #1045, .T.);
#242 = EDGE_CURVE('', #248, #257, #1050, .T.);
#243 = EDGE_CURVE('', #247, #256, #1055, .T.);
#244 = EDGE_CURVE('', #246, #255, #1060, .T.);
#245 = VERTEX_POINT('', #1065);
#246 = VERTEX_POINT('', #1066);
#247 = VERTEX_POINT('', #1067);
#248 = VERTEX_POINT('', #1068);
#249 = VERTEX_POINT('', #1069);
#250 = VERTEX_POINT('', #1070);
#251 = VERTEX_POINT('', #1071);
#252 = VERTEX_POINT('', #1072);
#253 = VERTEX_POINT('', #1073);
#254 = VERTEX_POINT('', #1074);
#255 = VERTEX_POINT('', #1075);
#256 = VERTEX_POINT('', #1076);
#257 = VERTEX_POINT('', #1077);
#258 = VERTEX_POINT('', #1078);
#259 = VERTEX_POINT('', #1079);
#260 = VERTEX_POINT('', #1080);
#261 = VERTEX_POINT('', #1081);
#262 = VERTEX_POINT('', #1082);
#263 = VERTEX_POINT('', #1083);
#264 = VERTEX_POINT('', #1084);
#265 = VERTEX_POINT('', #1085);
#266 = VERTEX_POINT('', #1086);
#267 = VERTEX_POINT('', #1087);
#268 = VERTEX_POINT('', #1088);
#269 = VERTEX_POINT('', #1089);
#270 = VERTEX_POINT('', #1090);
#271 = VERTEX_POINT('', #1091);
#272 = VERTEX_POINT('', #1092);
#273 = VERTEX_POINT('', #1093);
#274 = VERTEX_POINT('', #1094);
#275 = VERTEX_POINT('', #1095);
#276 = VERTEX_POINT('', #1096);
#277 = VERTEX_POINT('', #1097);
#278 = VERTEX_POINT('', #1098);
#279 = VERTEX_POINT('', #1099);
#280 = VERTEX_POINT('', #1100);
#281 = VERTEX_POINT('', #1101);
#282 = VERTEX_POINT('', #1102);
#283 = VERTEX_POINT('', #1103);
#284 = VERTEX_POINT('', #1104);
#285 = PLANE('', #286);
#286 = AXIS2_PLACEMENT_3D('', #287, #288, #289);
#287 = CARTESIAN_POINT('', (143.0, -77.0, 0.0));
#288 = DIRECTION('', (0.0, 0.0, 1.0));
#289 = DIRECTION('', (-1.0, 0.0, 0.0));
#290 = PLANE('', #291);
#291 = AXIS2_PLACEMENT_3D('', #292, #293, #294);
#292 = CARTESIAN_POINT('', (136.00002315253016, -77.00000000026863, 0.0));
#293 = DIRECTION('', (8.3946122602E-12, 0.9999999999999999, -0.0));
#294 = DIRECTION('', (-1.0, 8.3946122602E-12, 0.0));
#295 = PLANE('', #296);
#296 = AXIS2_PLACEMENT_3D('', #297, #298, #299);
#297 = CARTESIAN_POINT('', (143.0, -77.0, 13.0));
#298 = DIRECTION('', (0.0, 0.0, 1.0));
#299 = DIRECTION('', (-1.0, 0.0, 0.0));
#300 = PLANE('', #301);
#301 = AXIS2_PLACEMENT_3D('', #302, #303, #304);
#302 = CARTESIAN_POINT('', (135.99997694746983, -78.99999979973259, 2.0000003));
#303 = DIRECTION('', (-8.3564327078E-12, 1.0, 0.0));
#304 = DIRECTION('', (-1.0, -8.3564327078E-12, 0.0));
#305 = CYLINDRICAL_SURFACE('', #306, 5.000138920554471);
#306 = AXIS2_PLACEMENT_3D('', #307, #308, #309);
#307 = CARTESIAN_POINT('', (135.9998611813753, -84.00013871894691, 18.0000003));
#308 = DIRECTION('', (0.0, 0.0, 1.0));
#309 = DIRECTION('', (-0.7071051440762433, -0.7071084182930616, 0.0));
#310 = PLANE('', #311);
#311 = AXIS2_PLACEMENT_3D('', #312, #313, #314);
#312 = CARTESIAN_POINT('', (141.00000010026773, -99.99997664747002, 2.0000003));
#313 = DIRECTION('', (1.0, 1.6733305641E-11, -0.0));
#314 = DIRECTION('', (-1.6733305641E-11, 1.0, 0.0));
#315 = CYLINDRICAL_SURFACE('', #316, 5.000138920553396);
#316 = AXIS2_PLACEMENT_3D('', #317, #318, #319);
#317 = CARTESIAN_POINT('', (135.99986118105448, -99.9998608813764, 18.0000003));
#318 = DIRECTION('', (0.0, 0.0, 1.0));
#319 = DIRECTION('', (-0.7071084182930261, 0.7071051440762788, 0.0));
#320 = PLANE('', #321);
#321 = AXIS2_PLACEMENT_3D('', #322, #323, #324);
#322 = CARTESIAN_POINT('', (104.00002325253007, -104.9999998002674, 2.0000003));
#323 = DIRECTION('', (8.3564327078E-12, -1.0, 0.0));
#324 = DIRECTION('', (1.0, 8.3564327078E-12, 0.0));
#325 = CYLINDRICAL_SURFACE('', #326, 5.000138920553969);
#326 = AXIS2_PLACEMENT_3D('', #327, #328, #329);
#327 = CARTESIAN_POINT('', (104.00013901862417, -99.99986088105358, 18.0000003));
#328 = DIRECTION('', (0.0, 0.0, 1.0));
#329 = DIRECTION('', (0.7071051440762489, 0.7071084182930558, 0.0));
#330 = PLANE('', #331);
#331 = AXIS2_PLACEMENT_3D('', #332, #333, #334);
#332 = CARTESIAN_POINT('', (99.000000099732, -84.00002295253007, 2.0000003));
#333 = DIRECTION('', (-1.0, -1.6749292875E-11, 0.0));
#334 = DIRECTION('', (1.6749292875E-11, -1.0, 0.0));
#335 = CYLINDRICAL_SURFACE('', #336, 5.000138920554009);
#336 = AXIS2_PLACEMENT_3D('', #337, #338, #339);
#337 = CARTESIAN_POINT('', (104.00013901894587, -84.00013871862421, 18.0000003));
#338 = DIRECTION('', (0.0, 0.0, 1.0));
#339 = DIRECTION('', (0.7071084182930132, -0.7071051440762914, 0.0));
#340 = PLANE('', #341);
#341 = AXIS2_PLACEMENT_3D('', #342, #343, #344);
#342 = CARTESIAN_POINT('', (141.00000010026773, -78.99999979973259, 2.0000003));
#343 = DIRECTION('', (0.0, 0.0, 1.0));
#344 = DIRECTION('', (-1.0, 0.0, 0.0));
#345 = CYLINDRICAL_SURFACE('', #346, 7.000138919613215);
#346 = AXIS2_PLACEMENT_3D('', #347, #348, #349);
#347 = CARTESIAN_POINT('', (135.9998610817652, -84.00013891800566, 13.0));
#348 = DIRECTION('', (0.0, 0.0, 1.0));
#349 = DIRECTION('', (-0.7071079505533101, -0.7071056118178511, 0.0));
#350 = PLANE('', #351);
#351 = AXIS2_PLACEMENT_3D('', #352, #353, #354);
#352 = CARTESIAN_POINT('', (142.99999999973167, -100.00002315252998, 0.0));
#353 = DIRECTION('', (1.0, -1.6770560653E-11, 0.0));
#354 = DIRECTION('', (1.6770560653E-11, 1.0, 0.0));
#355 = CYLINDRICAL_SURFACE('', #356, 7.00013891961217);
#356 = AXIS2_PLACEMENT_3D('', #357, #358, #359);
#357 = CARTESIAN_POINT('', (135.99986108199568, -99.99986108176624, 13.0));
#358 = DIRECTION('', (0.0, 0.0, 1.0));
#359 = DIRECTION('', (-0.707105611817845, 0.7071079505533161, 0.0));
#360 = PLANE('', #361);
#361 = AXIS2_PLACEMENT_3D('', #362, #363, #364);
#362 = CARTESIAN_POINT('', (103.99997684746992, -106.99999999973137, 0.0));
#363 = DIRECTION('', (-8.3946122602E-12, -0.9999999999999999, 0.0));
#364 = DIRECTION('', (1.0, -8.3946122602E-12, 0.0));
#365 = CYLINDRICAL_SURFACE('', #366, 7.000138919612753);
#366 = AXIS2_PLACEMENT_3D('', #367, #368, #369);
#367 = CARTESIAN_POINT('', (104.00013891823434, -99.99986108199481, 13.0));
#368 = DIRECTION('', (0.0, 0.0, 1.0));
#369 = DIRECTION('', (0.7071079505533061, 0.7071056118178553, 0.0));
#370 = PLANE('', #371);
#371 = AXIS2_PLACEMENT_3D('', #372, #373, #374);
#372 = CARTESIAN_POINT('', (97.00000000026805, -83.99997684746992, 0.0));
#373 = DIRECTION('', (-1.0, 1.6752797111E-11, 0.0));
#374 = DIRECTION('', (-1.6752797111E-11, -1.0, 0.0));
#375 = CYLINDRICAL_SURFACE('', #376, 7.000138919612763);
#376 = AXIS2_PLACEMENT_3D('', #377, #378, #379);
#377 = CARTESIAN_POINT('', (104.00013891800462, -84.00013891823434, 13.0));
#378 = DIRECTION('', (0.0, 0.0, 1.0));
#379 = DIRECTION('', (0.7071056118178257, -0.7071079505533354, 0.0));
#380 = SURFACE_CURVE('', #381, (#285, #375), .CURVE_3D.);
#381 = (
    BOUNDED_CURVE()
    B_SPLINE_CURVE(2, (#382, #383, #384, #385, #386, #387), .UNSPECIFIED., .U., .U.)
    B_SPLINE_CURVE_WITH_KNOTS((3, 1, 1, 1, 3), (0.0, 0.25, 0.5, 0.75, 1.0), .UNSPECIFIED.)
    CURVE()
    GEOMETRIC_REPRESENTATION_ITEM()
    RATIONAL_B_SPLINE_CURVE((1.0, 0.9267804957374981, 0.8535609914749962, 0.8535609914749961, 0.9267804957374981, 1.0))
    REPRESENTATION_ITEM('')
);
#382 = CARTESIAN_POINT('', (104.0, -77.0, 0.0));
#383 = CARTESIAN_POINT('', (102.66480269482557, -77.00002649703778, 0.0));
#384 = CARTESIAN_POINT('', (100.07541854159528, -78.02517128658522, 0.0));
#385 = CARTESIAN_POINT('', (98.02518426728888, -80.07539877981145, 0.0));
#386 = CARTESIAN_POINT('', (97.00003091343282, -82.66477954239046, 0.0));
#387 = CARTESIAN_POINT('', (97.00000000026805, -83.99997684746992, 0.0));
#388 = SURFACE_CURVE('', #389, (#285, #370), .CURVE_3D.);
#389 = LINE('', #390, #391);
#390 = CARTESIAN_POINT('', (97.00000000026805, -83.99997684746992, 0.0));
#391 = VECTOR('', #392, 16.000023152530076);
#392 = DIRECTION('', (-1.6752797111E-11, -1.0, 0.0));
#393 = SURFACE_CURVE('', #394, (#285, #365), .CURVE_3D.);
#394 = (
    BOUNDED_CURVE()
    B_SPLINE_CURVE(2, (#395, #396, #397, #398, #399, #400), .UNSPECIFIED., .U., .U.)
    B_SPLINE_CURVE_WITH_KNOTS((3, 1, 1, 1, 3), (0.0, 0.25, 0.5, 0.75, 1.0), .UNSPECIFIED.)
    CURVE()
    GEOMETRIC_REPRESENTATION_ITEM()
    RATIONAL_B_SPLINE_CURVE((1.0, 0.9267804957375042, 0.8535609914750084, 0.8535609914750084, 0.9267804957375042, 1.0))
    REPRESENTATION_ITEM('')
);
#395 = CARTESIAN_POINT('', (97.0, -100.0, 0.0));
#396 = CARTESIAN_POINT('', (97.0000264970379, -101.33519730517435, 0.0));
#397 = CARTESIAN_POINT('', (98.02517128658543, -103.92458145840446, 0.0));
#398 = CARTESIAN_POINT('', (100.07539877981164, -105.97481573271065, 0.0));
#399 = CARTESIAN_POINT('', (102.66477954239052, -106.9999690865666, 0.0));
#400 = CARTESIAN_POINT('', (103.99997684746992, -106.99999999973139, 0.0));
#401 = SURFACE_CURVE('', #402, (#285, #360), .CURVE_3D.);
#402 = LINE('', #403, #404);
#403 = CARTESIAN_POINT('', (103.99997684746992, -106.99999999973137, 0.0));
#404 = VECTOR('', #405, 32.000023152530076);
#405 = DIRECTION('', (1.0, -8.3946122602E-12, 0.0));
#406 = SURFACE_CURVE('', #407, (#285, #355), .CURVE_3D.);
#407 = (
    BOUNDED_CURVE()
    B_SPLINE_CURVE(2, (#408, #409, #410, #411, #412, #413), .UNSPECIFIED., .U., .U.)
    B_SPLINE_CURVE_WITH_KNOTS((3, 1, 1, 1, 3), (0.0, 0.25, 0.5, 0.75, 1.0), .UNSPECIFIED.)
    CURVE()
    GEOMETRIC_REPRESENTATION_ITEM()
    RATIONAL_B_SPLINE_CURVE((1.0, 0.9267804957374844, 0.8535609914749689, 0.8535609914749688, 0.9267804957374843, 1.0))
    REPRESENTATION_ITEM('')
);
#408 = CARTESIAN_POINT('', (136.0, -107.0, 0.0));
#409 = CARTESIAN_POINT('', (137.3351973051744, -106.99997350296228, 0.0));
#410 = CARTESIAN_POINT('', (139.92458145840476, -105.97482871341488, 0.0));
#411 = CARTESIAN_POINT('', (141.97481573271114, -103.92460122018855, 0.0));
#412 = CARTESIAN_POINT('', (142.999969086567, -101.33522045760945, 0.0));
#413 = CARTESIAN_POINT('', (142.99999999973167, -100.00002315252999, 0.0));
#414 = SURFACE_CURVE('', #415, (#285, #350), .CURVE_3D.);
#415 = LINE('', #416, #417);
#416 = CARTESIAN_POINT('', (142.99999999973167, -100.00002315252998, 0.0));
#417 = VECTOR('', #418, 16.000023152529977);
#418 = DIRECTION('', (1.6770560653E-11, 1.0, 0.0));
#419 = SURFACE_CURVE('', #420, (#285, #345), .CURVE_3D.);
#420 = (
    BOUNDED_CURVE()
    B_SPLINE_CURVE(2, (#421, #422, #423, #424, #425, #426), .UNSPECIFIED., .U., .U.)
    B_SPLINE_CURVE_WITH_KNOTS((3, 1, 1, 1, 3), (0.0, 0.25, 0.5, 0.75, 1.0), .UNSPECIFIED.)
    CURVE()
    GEOMETRIC_REPRESENTATION_ITEM()
    RATIONAL_B_SPLINE_CURVE((1.0, 0.9267804957375175, 0.8535609914750351, 0.8535609914750351, 0.9267804957375175, 1.0))
    REPRESENTATION_ITEM('')
);
#421 = CARTESIAN_POINT('', (143.0, -84.0, 0.0));
#422 = CARTESIAN_POINT('', (142.999973502962, -82.66480269482568, 0.0));
#423 = CARTESIAN_POINT('', (141.9748287134144, -80.07541854159567, 0.0));
#424 = CARTESIAN_POINT('', (139.9246012201883, -78.02518426728953, 0.0));
#425 = CARTESIAN_POINT('', (137.33522045760955, -77.00003091343352, 0.0));
#426 = CARTESIAN_POINT('', (136.00002315253016, -77.00000000026861, 0.0));
#427 = SURFACE_CURVE('', #428, (#285, #290), .CURVE_3D.);
#428 = LINE('', #429, #430);
#429 = CARTESIAN_POINT('', (136.00002315253016, -77.00000000026863, 0.0));
#430 = VECTOR('', #431, 32.00002315253016);
#431 = DIRECTION('', (-1.0, 8.3946122602E-12, 0.0));
#432 = SURFACE_CURVE('', #433, (#290, #375), .CURVE_3D.);
#433 = LINE('', #434, #435);
#434 = CARTESIAN_POINT('', (104.0, -77.0, 0.0));
#435 = VECTOR('', #436, 13.0);
#436 = DIRECTION('', (0.0, 0.0, 1.0));
#437 = SURFACE_CURVE('', #438, (#290, #295), .CURVE_3D.);
#438 = LINE('', #439, #440);
#439 = CARTESIAN_POINT('', (136.00002315253016, -77.00000000026863, 13.0));
#440 = VECTOR('', #441, 32.00002315253016);
#441 = DIRECTION('', (-1.0, 8.3946122602E-12, 0.0));
#442 = SURFACE_CURVE('', #443, (#290, #345), .CURVE_3D.);
#443 = LINE('', #444, #445);
#444 = CARTESIAN_POINT('', (136.00002315253016, -77.00000000026863, 0.0));
#445 = VECTOR('', #446, 13.0);
#446 = DIRECTION('', (0.0, 0.0, 1.0));
#447 = SURFACE_CURVE('', #448, (#295, #375), .CURVE_3D.);
#448 = (
    BOUNDED_CURVE()
    B_SPLINE_CURVE(2, (#449, #450, #451, #452, #453, #454), .UNSPECIFIED., .U., .U.)
    B_SPLINE_CURVE_WITH_KNOTS((3, 1, 1, 1, 3), (0.0, 0.25, 0.5, 0.75, 1.0), .UNSPECIFIED.)
    CURVE()
    GEOMETRIC_REPRESENTATION_ITEM()
    RATIONAL_B_SPLINE_CURVE((1.0, 0.9267804957374981, 0.8535609914749962, 0.8535609914749961, 0.9267804957374981, 1.0))
    REPRESENTATION_ITEM('')
);
#449 = CARTESIAN_POINT('', (104.0, -77.0, 13.0));
#450 = CARTESIAN_POINT('', (102.66480269482557, -77.00002649703778, 13.0));
#451 = CARTESIAN_POINT('', (100.07541854159528, -78.02517128658522, 13.0));
#452 = CARTESIAN_POINT('', (98.02518426728888, -80.07539877981145, 13.0));
#453 = CARTESIAN_POINT('', (97.00003091343282, -82.66477954239046, 13.0));
#454 = CARTESIAN_POINT('', (97.00000000026805, -83.99997684746992, 13.0));
#455 = SURFACE_CURVE('', #456, (#295, #370), .CURVE_3D.);
#456 = LINE('', #457, #458);
#457 = CARTESIAN_POINT('', (97.00000000026805, -83.99997684746992, 13.0));
#458 = VECTOR('', #459, 16.000023152530076);
#459 = DIRECTION('', (-1.6752797111E-11, -1.0, 0.0));
#460 = SURFACE_CURVE('', #461, (#295, #365), .CURVE_3D.);
#461 = (
    BOUNDED_CURVE()
    B_SPLINE_CURVE(2, (#462, #463, #464, #465, #466, #467), .UNSPECIFIED., .U., .U.)
    B_SPLINE_CURVE_WITH_KNOTS((3, 1, 1, 1, 3), (0.0, 0.25, 0.5, 0.75, 1.0), .UNSPECIFIED.)
    CURVE()
    GEOMETRIC_REPRESENTATION_ITEM()
    RATIONAL_B_SPLINE_CURVE((1.0, 0.9267804957375042, 0.8535609914750084, 0.8535609914750084, 0.9267804957375042, 1.0))
    REPRESENTATION_ITEM('')
);
#462 = CARTESIAN_POINT('', (97.0, -100.0, 13.0));
#463 = CARTESIAN_POINT('', (97.0000264970379, -101.33519730517435, 13.0));
#464 = CARTESIAN_POINT('', (98.02517128658543, -103.92458145840446, 13.0));
#465 = CARTESIAN_POINT('', (100.07539877981164, -105.97481573271065, 13.0));
#466 = CARTESIAN_POINT('', (102.66477954239052, -106.9999690865666, 13.0));
#467 = CARTESIAN_POINT('', (103.99997684746992, -106.99999999973139, 13.0));
#468 = SURFACE_CURVE('', #469, (#295, #360), .CURVE_3D.);
#469 = LINE('', #470, #471);
#470 = CARTESIAN_POINT('', (103.99997684746992, -106.99999999973137, 13.0));
#471 = VECTOR('', #472, 32.000023152530076);
#472 = DIRECTION('', (1.0, -8.3946122602E-12, 0.0));
#473 = SURFACE_CURVE('', #474, (#295, #355), .CURVE_3D.);
#474 = (
    BOUNDED_CURVE()
    B_SPLINE_CURVE(2, (#475, #476, #477, #478, #479, #480), .UNSPECIFIED., .U., .U.)
    B_SPLINE_CURVE_WITH_KNOTS((3, 1, 1, 1, 3), (0.0, 0.25, 0.5, 0.75, 1.0), .UNSPECIFIED.)
    CURVE()
    GEOMETRIC_REPRESENTATION_ITEM()
    RATIONAL_B_SPLINE_CURVE((1.0, 0.9267804957374844, 0.8535609914749689, 0.8535609914749688, 0.9267804957374843, 1.0))
    REPRESENTATION_ITEM('')
);
#475 = CARTESIAN_POINT('', (136.0, -107.0, 13.0));
#476 = CARTESIAN_POINT('', (137.3351973051744, -106.99997350296228, 13.0));
#477 = CARTESIAN_POINT('', (139.92458145840476, -105.97482871341488, 13.0));
#478 = CARTESIAN_POINT('', (141.97481573271114, -103.92460122018855, 13.0));
#479 = CARTESIAN_POINT('', (142.999969086567, -101.33522045760945, 13.0));
#480 = CARTESIAN_POINT('', (142.99999999973167, -100.00002315252999, 13.0));
#481 = SURFACE_CURVE('', #482, (#295, #350), .CURVE_3D.);
#482 = LINE('', #483, #484);
#483 = CARTESIAN_POINT('', (142.99999999973167, -100.00002315252998, 13.0));
#484 = VECTOR('', #485, 16.000023152529977);
#485 = DIRECTION('', (1.6770560653E-11, 1.0, 0.0));
#486 = SURFACE_CURVE('', #487, (#295, #345), .CURVE_3D.);
#487 = (
    BOUNDED_CURVE()
    B_SPLINE_CURVE(2, (#488, #489, #490, #491, #492, #493), .UNSPECIFIED., .U., .U.)
    B_SPLINE_CURVE_WITH_KNOTS((3, 1, 1, 1, 3), (0.0, 0.25, 0.5, 0.75, 1.0), .UNSPECIFIED.)
    CURVE()
    GEOMETRIC_REPRESENTATION_ITEM()
    RATIONAL_B_SPLINE_CURVE((1.0, 0.9267804957375175, 0.8535609914750351, 0.8535609914750351, 0.9267804957375175, 1.0))
    REPRESENTATION_ITEM('')
);
#488 = CARTESIAN_POINT('', (143.0, -84.0, 13.0));
#489 = CARTESIAN_POINT('', (142.999973502962, -82.66480269482568, 13.0));
#490 = CARTESIAN_POINT('', (141.9748287134144, -80.07541854159567, 13.0));
#491 = CARTESIAN_POINT('', (139.9246012201883, -78.02518426728953, 13.0));
#492 = CARTESIAN_POINT('', (137.33522045760955, -77.00003091343352, 13.0));
#493 = CARTESIAN_POINT('', (136.00002315253016, -77.00000000026861, 13.0));
#494 = SURFACE_CURVE('', #495, (#295, #305), .CURVE_3D.);
#495 = INTERSECTION_CURVE('', #496, (#509, #514), .CURVE_3D.);
#496 = B_SPLINE_CURVE_WITH_KNOTS('', 1, (#497, #498, #499, #500, #501, #502, #503, #504, #505, #506, #507, #508), .UNSPECIFIED., .U., .U., (2, 1, 1, 1, 1, 1, 1, 1, 1, 1, 1, 2), (0.0, 0.09090909090909091, 0.18181818181818182, 0.2727272727272727, 0.36363636363636365, 0.45454545454545453, 0.5454545454545454, 0.6363636363636364, 0.7272727272727273, 0.8181818181818182, 0.9090909090909091, 1.0), .UNSPECIFIED.);
#497 = CARTESIAN_POINT('', (137.02604690510478, -79.10643540905394, 13.0));
#498 = CARTESIAN_POINT('', (136.8229447421038, -79.06820981871913, 13.0));
#499 = CARTESIAN_POINT('', (136.61843644582993, -79.03840979980507, 13.0));
#500 = CARTESIAN_POINT('', (136.41287139262076, -79.01708626184288, 13.0));
#501 = CARTESIAN_POINT('', (136.20660076414828, -79.00427563337716, 13.0));
#502 = CARTESIAN_POINT('', (136.18782409630526, -79.00353395496421, 13.0));
#503 = CARTESIAN_POINT('', (136.17217574655766, -79.00296982891831, 13.0));
#504 = CARTESIAN_POINT('', (136.1589340427698, -79.00253078618434, 13.0));
#505 = CARTESIAN_POINT('', (136.1475834328361, -79.00218240048363, 13.0));
#506 = CARTESIAN_POINT('', (136.13774580593085, -79.00190132410913, 13.0));
#507 = CARTESIAN_POINT('', (136.12913755362425, -79.00167126937582, 13.0));
#508 = CARTESIAN_POINT('', (135.99997694746983, -78.99999979973258, 13.0));
#509 = PLANE('', #510);
#510 = AXIS2_PLACEMENT_3D('', #511, #512, #513);
#511 = CARTESIAN_POINT('', (143.0, -77.0, 13.0));
#512 = DIRECTION('', (0.0, 0.0, 1.0));
#513 = DIRECTION('', (-1.0, 0.0, 0.0));
#514 = CYLINDRICAL_SURFACE('', #515, 5.000138920554471);
#515 = AXIS2_PLACEMENT_3D('', #516, #517, #518);
#516 = CARTESIAN_POINT('', (135.9998611813753, -84.00013871894691, 18.0000003));
#517 = DIRECTION('', (0.0, 0.0, 1.0));
#518 = DIRECTION('', (-0.7071051440762433, -0.7071084182930616, 0.0));
#519 = SURFACE_CURVE('', #520, (#295, #305), .CURVE_3D.);
#520 = INTERSECTION_CURVE('', #521, (#529, #534), .CURVE_3D.);
#521 = B_SPLINE_CURVE_WITH_KNOTS('', 1, (#522, #523, #524, #525, #526, #527, #528), .UNSPECIFIED., .U., .U., (2, 1, 1, 1, 1, 1, 2), (0.0, 0.16666666666666666, 0.3333333333333333, 0.5, 0.6666666666666666, 0.8333333333333334, 1.0), .UNSPECIFIED.);
#522 = CARTESIAN_POINT('', (137.02604690510478, -79.10643540905393, 13.0));
#523 = CARTESIAN_POINT('', (137.2273959606946, -79.1530212672644, 13.0));
#524 = CARTESIAN_POINT('', (137.4266479296954, -79.20788780735414, 13.0));
#525 = CARTESIAN_POINT('', (137.62346241553428, -79.27094129683805, 13.0));
#526 = CARTESIAN_POINT('', (137.81750318576735, -79.34207401687232, 13.0));
#527 = CARTESIAN_POINT('', (138.00843874649007, -79.42116444627828, 13.0));
#528 = CARTESIAN_POINT('', (138.19594290865223, -79.50807746914587, 13.0));
#529 = PLANE('', #530);
#530 = AXIS2_PLACEMENT_3D('', #531, #532, #533);
#531 = CARTESIAN_POINT('', (143.0, -77.0, 13.0));
#532 = DIRECTION('', (0.0, 0.0, 1.0));
#533 = DIRECTION('', (-1.0, 0.0, 0.0));
#534 = CYLINDRICAL_SURFACE('', #535, 5.000138920554471);
#535 = AXIS2_PLACEMENT_3D('', #536, #537, #538);
#536 = CARTESIAN_POINT('', (135.9998611813753, -84.00013871894691, 18.0000003));
#537 = DIRECTION('', (0.0, 0.0, 1.0));
#538 = DIRECTION('', (-0.7071051440762433, -0.7071084182930616, 0.0));
#539 = SURFACE_CURVE('', #540, (#295, #305), .CURVE_3D.);
#540 = INTERSECTION_CURVE('', #541, (#579, #584), .CURVE_3D.);
#541 = B_SPLINE_CURVE_WITH_KNOTS('', 1, (#542, #543, #544, #545, #546, #547, #548, #549, #550, #551, #552, #553, #554, #555, #556, #557, #558, #559, #560, #561, #562, #563, #564, #565, #566, #567, #568, #569, #570, #571, #572, #573, #574, #575, #576, #577, #578), .UNSPECIFIED., .U., .U., (2, 1, 1, 1, 1, 1, 1, 1, 1, 1, 1, 1, 1, 1, 1, 1, 1, 1, 1, 1, 1, 1, 1, 1, 1, 1, 1, 1, 1, 1, 1, 1, 1, 1, 1, 1, 2), (0.0, 0.027777777777777776, 0.05555555555555555, 0.08333333333333333, 0.1111111111111111, 0.1388888888888889, 0.16666666666666666, 0.19444444444444445, 0.2222222222222222, 0.25, 0.2777777777777778, 0.3055555555555556, 0.3333333333333333, 0.3611111111111111, 0.3888888888888889, 0.4166666666666667, 0.4444444444444444, 0.4722222222222222, 0.5, 0.5277777777777778, 0.5555555555555556, 0.5833333333333334, 0.6111111111111112, 0.6388888888888888, 0.6666666666666666, 0.6944444444444444, 0.7222222222222222, 0.75, 0.7777777777777778, 0.8055555555555556, 0.8333333333333334, 0.8611111111111112, 0.8888888888888888, 0.9166666666666666, 0.9444444444444444, 0.9722222222222222, 1.0), .UNSPECIFIED.);
#542 = CARTESIAN_POINT('', (138.19594290865223, -79.50807746914587, 13.0));
#543 = CARTESIAN_POINT('', (138.37969534531035, -79.60266460566197, 13.0));
#544 = CARTESIAN_POINT('', (138.5593821388655, -79.70476426576914, 13.0));
#545 = CARTESIAN_POINT('', (138.7346963173512, -79.81420202522168, 13.0));
#546 = CARTESIAN_POINT('', (138.90533837885627, -79.93079092356719, 13.0));
#547 = CARTESIAN_POINT('', (139.00607636746, -80.00463380970236, 13.0));
#548 = CARTESIAN_POINT('', (139.0710168031853, -80.05433178354465, 13.000000000000002));
#549 = CARTESIAN_POINT('', (139.23144854988385, -80.18461355135338, 13.0));
#550 = CARTESIAN_POINT('', (139.386359541777, -80.32141365721151, 13.0));
#551 = CARTESIAN_POINT('', (139.5354851331952, -80.46449839558807, 13.0));
#552 = CARTESIAN_POINT('', (139.67857056208763, -80.61362332445913, 13.0));
#553 = CARTESIAN_POINT('', (139.81537138525061, -80.76853368290568, 13.0));
#554 = CARTESIAN_POINT('', (139.94565389592782, -80.92896482634038, 13.0));
#555 = CARTESIAN_POINT('', (139.9953753228944, -80.99393580334646, 13.0));
#556 = CARTESIAN_POINT('', (140.06919552306826, -81.09464267861885, 13.0));
#557 = CARTESIAN_POINT('', (140.18578521156067, -81.26528420026398, 13.0));
#558 = CARTESIAN_POINT('', (140.29522378279412, -81.44059787200266, 13.0));
#559 = CARTESIAN_POINT('', (140.39732427492945, -81.6202841927893, 13.0));
#560 = CARTESIAN_POINT('', (140.4919122622995, -81.80403619146524, 13.0));
#561 = CARTESIAN_POINT('', (140.5788261533933, -81.99153995117969, 13.0));
#562 = CARTESIAN_POINT('', (140.6579174669144, -82.18247514567673, 13.0));
#563 = CARTESIAN_POINT('', (140.72905108544242, -82.37651558653181, 13.0));
#564 = CARTESIAN_POINT('', (140.79210552165534, -82.5733298992736, 13.0));
#565 = CARTESIAN_POINT('', (140.84697297942677, -82.77258161557693, 13.000000000000002));
#566 = CARTESIAN_POINT('', (140.8935597649774, -82.97393045660705, 13.0));
#567 = CARTESIAN_POINT('', (140.93178629072665, -83.17703244355268, 13.0));
#568 = CARTESIAN_POINT('', (140.9615872515314, -83.38154060257631, 13.0));
#569 = CARTESIAN_POINT('', (140.98291173625137, -83.58710555757483, 13.0));
#570 = CARTESIAN_POINT('', (140.98690377493753, -83.63848225925082, 13.0));
#571 = CARTESIAN_POINT('', (140.9957233095959, -83.79337600312277, 13.0));
#572 = CARTESIAN_POINT('', (140.9964650749531, -83.8121526675313, 13.0));
#573 = CARTESIAN_POINT('', (140.99702927345777, -83.82780101466656, 13.000000000000002));
#574 = CARTESIAN_POINT('', (140.99746837750666, -83.84104271642136, 13.0));
#575 = CARTESIAN_POINT('', (140.9978168157657, -83.85239332474174, 13.0));
#576 = CARTESIAN_POINT('', (140.9980979376928, -83.86223095034538, 13.0));
#577 = CARTESIAN_POINT('', (140.9983280322861, -83.87083920158659, 13.000000000000002));
#578 = CARTESIAN_POINT('', (141.0000001, -83.9999998, 13.0));
#579 = PLANE('', #580);
#580 = AXIS2_PLACEMENT_3D('', #581, #582, #583);
#581 = CARTESIAN_POINT('', (143.0, -77.0, 13.0));
#582 = DIRECTION('', (0.0, 0.0, 1.0));
#583 = DIRECTION('', (-1.0, 0.0, 0.0));
#584 = CYLINDRICAL_SURFACE('', #585, 5.000138920554471);
#585 = AXIS2_PLACEMENT_3D('', #586, #587, #588);
#586 = CARTESIAN_POINT('', (135.9998611813753, -84.00013871894691, 18.0000003));
#587 = DIRECTION('', (0.0, 0.0, 1.0));
#588 = DIRECTION('', (-0.7071051440762433, -0.7071084182930616, 0.0));
#589 = SURFACE_CURVE('', #590, (#295, #310), .CURVE_3D.);
#590 = INTERSECTION_CURVE('', #591, (#596, #601), .CURVE_3D.);
#591 = B_SPLINE_CURVE_WITH_KNOTS('', 1, (#592, #593, #594, #595), .UNSPECIFIED., .U., .U., (2, 1, 1, 2), (0.0, 0.3333333333333333, 0.6666666666666666, 1.0), .UNSPECIFIED.);
#592 = CARTESIAN_POINT('', (141.00000010026773, -99.99997664747002, 13.0));
#593 = CARTESIAN_POINT('', (141.00000010008367, -88.99999286483394, 13.0));
#594 = CARTESIAN_POINT('', (141.00000010001165, -84.6956521391264, 13.0));
#595 = CARTESIAN_POINT('', (141.0000001, -83.9999998, 13.0));
#596 = PLANE('', #597);
#597 = AXIS2_PLACEMENT_3D('', #598, #599, #600);
#598 = CARTESIAN_POINT('', (143.0, -77.0, 13.0));
#599 = DIRECTION('', (0.0, 0.0, 1.0));
#600 = DIRECTION('', (-1.0, 0.0, 0.0));
#601 = PLANE('', #602);
#602 = AXIS2_PLACEMENT_3D('', #603, #604, #605);
#603 = CARTESIAN_POINT('', (141.00000010026773, -99.99997664747002, 2.0000003));
#604 = DIRECTION('', (1.0, 1.6733305641E-11, -0.0));
#605 = DIRECTION('', (-1.6733305641E-11, 1.0, 0.0));
#606 = SURFACE_CURVE('', #607, (#295, #315), .CURVE_3D.);
#607 = INTERSECTION_CURVE('', #608, (#626, #631), .CURVE_3D.);
#608 = B_SPLINE_CURVE_WITH_KNOTS('', 1, (#609, #610, #611, #612, #613, #614, #615, #616, #617, #618, #619, #620, #621, #622, #623, #624, #625), .UNSPECIFIED., .U., .U., (2, 1, 1, 1, 1, 1, 1, 1, 1, 1, 1, 1, 1, 1, 1, 1, 2), (0.0, 0.0625, 0.125, 0.1875, 0.25, 0.3125, 0.375, 0.4375, 0.5, 0.5625, 0.625, 0.6875, 0.75, 0.8125, 0.875, 0.9375, 1.0), .UNSPECIFIED.);
#609 = CARTESIAN_POINT('', (140.65792583567398, -101.81750300032904, 13.0));
#610 = CARTESIAN_POINT('', (140.7290585629238, -101.6234622327411, 13.000000000000002));
#611 = CARTESIAN_POINT('', (140.79211205728546, -101.4266477484649, 13.000000000000002));
#612 = CARTESIAN_POINT('', (140.84697860231338, -101.22739578082383, 13.0));
#613 = CARTESIAN_POINT('', (140.89356446551398, -101.02604672638857, 13.0));
#614 = CARTESIAN_POINT('', (140.93179006088238, -100.82294456433493, 13.0));
#615 = CARTESIAN_POINT('', (140.96159008486484, -100.6184362687996, 13.0));
#616 = CARTESIAN_POINT('', (140.98291362792165, -100.4128712161189, 13.000000000000002));
#617 = CARTESIAN_POINT('', (140.99572426149945, -100.20660058796389, 13.0));
#618 = CARTESIAN_POINT('', (140.99646594503614, -100.18782379630545, 13.000000000000002));
#619 = CARTESIAN_POINT('', (140.99703007108204, -100.17217544655784, 13.0));
#620 = CARTESIAN_POINT('', (140.997469113816, -100.15893374276999, 13.0));
#621 = CARTESIAN_POINT('', (140.9978174995167, -100.14758313283627, 13.0));
#622 = CARTESIAN_POINT('', (140.99809857589122, -100.13774550593102, 13.0));
#623 = CARTESIAN_POINT('', (140.99832863062454, -100.12913725362446, 13.0));
#624 = CARTESIAN_POINT('', (141.0000000990067, -100.00002216535569, 13.0));
#625 = CARTESIAN_POINT('', (141.00000010026773, -99.99997664747002, 13.0));
#626 = PLANE('', #627);
#627 = AXIS2_PLACEMENT_3D('', #628, #629, #630);
#628 = CARTESIAN_POINT('', (143.0, -77.0, 13.0));
#629 = DIRECTION('', (0.0, 0.0, 1.0));
#630 = DIRECTION('', (-1.0, 0.0, 0.0));
#631 = CYLINDRICAL_SURFACE('', #632, 5.000138920553396);
#632 = AXIS2_PLACEMENT_3D('', #633, #634, #635);
#633 = CARTESIAN_POINT('', (135.99986118105448, -99.9998608813764, 18.0000003));
#634 = DIRECTION('', (0.0, 0.0, 1.0));
#635 = DIRECTION('', (-0.7071084182930261, 0.7071051440762788, 0.0));
#636 = SURFACE_CURVE('', #637, (#295, #315), .CURVE_3D.);
#637 = INTERSECTION_CURVE('', #638, (#654, #659), .CURVE_3D.);
#638 = B_SPLINE_CURVE_WITH_KNOTS('', 1, (#639, #640, #641, #642, #643, #644, #645, #646, #647, #648, #649, #650, #651, #652, #653), .UNSPECIFIED., .U., .U., (2, 1, 1, 1, 1, 1, 1, 1, 1, 1, 1, 1, 1, 1, 2), (0.0, 0.07142857142857142, 0.14285714285714285, 0.21428571428571427, 0.2857142857142857, 0.35714285714285715, 0.42857142857142855, 0.5, 0.5714285714285714, 0.6428571428571429, 0.7142857142857143, 0.7857142857142857, 0.8571428571428571, 0.9285714285714286, 1.0), .UNSPECIFIED.);
#639 = CARTESIAN_POINT('', (140.65792583804202, -101.81750300130992, 13.000000000000002));
#640 = CARTESIAN_POINT('', (140.57883540389994, -102.00843856007089, 13.0));
#641 = CARTESIAN_POINT('', (140.49192237638135, -102.1959427200772, 13.000000000000002));
#642 = CARTESIAN_POINT('', (140.3973352353073, -102.37969515438914, 13.0));
#643 = CARTESIAN_POINT('', (140.29523557074305, -102.5593819454117, 13.000000000000002));
#644 = CARTESIAN_POINT('', (140.18579780694188, -102.73469612118286, 13.0));
#645 = CARTESIAN_POINT('', (140.06920890436362, -102.90533817979602, 13.000000000000002));
#646 = CARTESIAN_POINT('', (139.9953649107528, -103.00607763517172, 13.0));
#647 = CARTESIAN_POINT('', (139.94566804027653, -103.07101660106062, 13.0));
#648 = CARTESIAN_POINT('', (139.81538626848834, -103.23144834452759, 13.0));
#649 = CARTESIAN_POINT('', (139.67858615878765, -103.38635933302746, 13.0));
#650 = CARTESIAN_POINT('', (139.53550141671204, -103.5354849208965, 13.0));
#651 = CARTESIAN_POINT('', (139.3863764842918, -103.67857034608987, 13.0));
#652 = CARTESIAN_POINT('', (139.23146612245188, -103.81537116541037, 13.0));
#653 = CARTESIAN_POINT('', (139.0710349742533, -103.9456536700533, 13.0));
#654 = PLANE('', #655);
#655 = AXIS2_PLACEMENT_3D('', #656, #657, #658);
#656 = CARTESIAN_POINT('', (143.0, -77.0, 13.0));
#657 = DIRECTION('', (0.0, 0.0, 1.0));
#658 = DIRECTION('', (-1.0, 0.0, 0.0));
#659 = CYLINDRICAL_SURFACE('', #660, 5.000138920553396);
#660 = AXIS2_PLACEMENT_3D('', #661, #662, #663);
#661 = CARTESIAN_POINT('', (135.99986118105448, -99.9998608813764, 18.0000003));
#662 = DIRECTION('', (0.0, 0.0, 1.0));
#663 = DIRECTION('', (-0.7071084182930261, 0.7071051440762788, 0.0));
#664 = SURFACE_CURVE('', #665, (#295, #315), .CURVE_3D.);
#665 = INTERSECTION_CURVE('', #666, (#691, #696), .CURVE_3D.);
#666 = B_SPLINE_CURVE_WITH_KNOTS('', 1, (#667, #668, #669, #670, #671, #672, #673, #674, #675, #676, #677, #678, #679, #680, #681, #682, #683, #684, #685, #686, #687, #688, #689, #690), .UNSPECIFIED., .U., .U., (2, 1, 1, 1, 1, 1, 1, 1, 1, 1, 1, 1, 1, 1, 1, 1, 1, 1, 1, 1, 1, 1, 1, 2), (0.0, 0.043478260869565216, 0.08695652173913043, 0.13043478260869565, 0.17391304347826086, 0.21739130434782608, 0.2608695652173913, 0.30434782608695654, 0.34782608695652173, 0.391304347826087, 0.43478260869565216, 0.4782608695652174, 0.5217391304347826, 0.5652173913043478, 0.6086956521739131, 0.6521739130434783, 0.6956521739130435, 0.7391304347826086, 0.782608695652174, 0.8260869565217391, 0.8695652173913043, 0.9130434782608695, 0.9565217391304348, 1.0), .UNSPECIFIED.);
#667 = CARTESIAN_POINT('', (139.0710349757855, -103.94565367210811, 13.0));
#668 = CARTESIAN_POINT('', (139.0060656643698, -103.9953738433536, 13.000000000000002));
#669 = CARTESIAN_POINT('', (138.90535712044257, -104.06919529513895, 13.0));
#670 = CARTESIAN_POINT('', (138.73471559590547, -104.18578497939862, 13.000000000000002));
#671 = CARTESIAN_POINT('', (138.55940192145218, -104.29522354628345, 13.000000000000002));
#672 = CARTESIAN_POINT('', (138.3797155981329, -104.39732403396168, 13.0));
#673 = CARTESIAN_POINT('', (138.1959635971107, -104.4919120167738, 13.0));
#674 = CARTESIAN_POINT('', (138.00845983524033, -104.57882590321657, 13.000000000000002));
#675 = CARTESIAN_POINT('', (137.8175246387814, -104.65791721200156, 13.0));
#676 = CARTESIAN_POINT('', (137.62348419616188, -104.7290508257164, 13.0));
#677 = CARTESIAN_POINT('', (137.42667000072655, -104.7921052216557, 13.0));
#678 = CARTESIAN_POINT('', (137.22741828442318, -104.84697267942707, 13.0));
#679 = CARTESIAN_POINT('', (137.02606944339303, -104.89355946497767, 13.0));
#680 = CARTESIAN_POINT('', (136.82296745644737, -104.9317859907269, 13.0));
#681 = CARTESIAN_POINT('', (136.61845929742375, -104.96158695153156, 13.0));
#682 = CARTESIAN_POINT('', (136.41289434242523, -104.9829114362515, 13.0));
#683 = CARTESIAN_POINT('', (136.20662389687723, -104.99572300959596, 13.0));
#684 = CARTESIAN_POINT('', (136.1878472324687, -104.99646477495318, 13.0));
#685 = CARTESIAN_POINT('', (136.17219888533344, -104.99702897345783, 13.000000000000002));
#686 = CARTESIAN_POINT('', (136.15895718357865, -104.99746807750674, 13.0));
#687 = CARTESIAN_POINT('', (136.14760657525827, -104.99781651576578, 13.0));
#688 = CARTESIAN_POINT('', (136.13776894965463, -104.99809763769284, 13.0));
#689 = CARTESIAN_POINT('', (136.1291606984134, -104.99832773228616, 13.000000000000002));
#690 = CARTESIAN_POINT('', (136.0000001, -104.9999998, 13.0));
#691 = PLANE('', #692);
#692 = AXIS2_PLACEMENT_3D('', #693, #694, #695);
#693 = CARTESIAN_POINT('', (143.0, -77.0, 13.0));
#694 = DIRECTION('', (0.0, 0.0, 1.0));
#695 = DIRECTION('', (-1.0, 0.0, 0.0));
#696 = CYLINDRICAL_SURFACE('', #697, 5.000138920553396);
#697 = AXIS2_PLACEMENT_3D('', #698, #699, #700);
#698 = CARTESIAN_POINT('', (135.99986118105448, -99.9998608813764, 18.0000003));
#699 = DIRECTION('', (0.0, 0.0, 1.0));
#700 = DIRECTION('', (-0.7071084182930261, 0.7071051440762788, 0.0));
#701 = SURFACE_CURVE('', #702, (#295, #320), .CURVE_3D.);
#702 = INTERSECTION_CURVE('', #703, (#708, #713), .CURVE_3D.);
#703 = B_SPLINE_CURVE_WITH_KNOTS('', 1, (#704, #705, #706, #707), .UNSPECIFIED., .U., .U., (2, 1, 1, 2), (0.0, 0.3333333333333333, 0.6666666666666666, 1.0), .UNSPECIFIED.);
#704 = CARTESIAN_POINT('', (104.00002325253008, -104.9999998002674, 13.0));
#705 = CARTESIAN_POINT('', (124.8571417433759, -104.99999980009311, 13.0));
#706 = CARTESIAN_POINT('', (126.00000673516608, -104.99999980008356, 13.0));
#707 = CARTESIAN_POINT('', (136.0000001, -104.9999998, 13.0));
#708 = PLANE('', #709);
#709 = AXIS2_PLACEMENT_3D('', #710, #711, #712);
#710 = CARTESIAN_POINT('', (143.0, -77.0, 13.0));
#711 = DIRECTION('', (0.0, 0.0, 1.0));
#712 = DIRECTION('', (-1.0, 0.0, 0.0));
#713 = PLANE('', #714);
#714 = AXIS2_PLACEMENT_3D('', #715, #716, #717);
#715 = CARTESIAN_POINT('', (104.00002325253007, -104.9999998002674, 2.0000003));
#716 = DIRECTION('', (8.3564327078E-12, -1.0, 0.0));
#717 = DIRECTION('', (1.0, 8.3564327078E-12, 0.0));
#718 = SURFACE_CURVE('', #719, (#295, #325), .CURVE_3D.);
#719 = INTERSECTION_CURVE('', #720, (#737, #742), .CURVE_3D.);
#720 = B_SPLINE_CURVE_WITH_KNOTS('', 1, (#721, #722, #723, #724, #725, #726, #727, #728, #729, #730, #731, #732, #733, #734, #735, #736), .UNSPECIFIED., .U., .U., (2, 1, 1, 1, 1, 1, 1, 1, 1, 1, 1, 1, 1, 1, 1, 2), (0.0, 0.06666666666666667, 0.13333333333333333, 0.2, 0.26666666666666666, 0.3333333333333333, 0.4, 0.4666666666666667, 0.5333333333333333, 0.6, 0.6666666666666666, 0.7333333333333333, 0.8, 0.8666666666666667, 0.9333333333333333, 1.0), .UNSPECIFIED.);
#721 = CARTESIAN_POINT('', (102.18249701423252, -104.65792558312779, 13.0));
#722 = CARTESIAN_POINT('', (102.37653766725913, -104.72905826292339, 13.000000000000002));
#723 = CARTESIAN_POINT('', (102.57335215153532, -104.79211175728506, 13.0));
#724 = CARTESIAN_POINT('', (102.77260411917634, -104.84697830231296, 13.0));
#725 = CARTESIAN_POINT('', (102.97395317361159, -104.89356416551357, 13.000000000000002));
#726 = CARTESIAN_POINT('', (103.17705533566522, -104.93178976088197, 13.0));
#727 = CARTESIAN_POINT('', (103.38156363120055, -104.96158978486446, 13.000000000000002));
#728 = CARTESIAN_POINT('', (103.58712868388125, -104.98291332792128, 13.0));
#729 = CARTESIAN_POINT('', (103.79339931203626, -104.9957239614991, 13.0));
#730 = CARTESIAN_POINT('', (103.81217610369467, -104.99646564503578, 13.0));
#731 = CARTESIAN_POINT('', (103.82782445344228, -104.99702977108169, 13.0));
#732 = CARTESIAN_POINT('', (103.84106615723016, -104.99746881381566, 13.0));
#733 = CARTESIAN_POINT('', (103.85241676716385, -104.99781719951636, 13.000000000000002));
#734 = CARTESIAN_POINT('', (103.86225439406911, -104.99809827589087, 13.000000000000002));
#735 = CARTESIAN_POINT('', (103.87086264637568, -104.99832833062419, 13.0));
#736 = CARTESIAN_POINT('', (104.00002325253008, -104.9999998002674, 13.0));
#737 = PLANE('', #738);
#738 = AXIS2_PLACEMENT_3D('', #739, #740, #741);
#739 = CARTESIAN_POINT('', (143.0, -77.0, 13.0));
#740 = DIRECTION('', (0.0, 0.0, 1.0));
#741 = DIRECTION('', (-1.0, 0.0, 0.0));
#742 = CYLINDRICAL_SURFACE('', #743, 5.000138920553969);
#743 = AXIS2_PLACEMENT_3D('', #744, #745, #746);
#744 = CARTESIAN_POINT('', (104.00013901862417, -99.99986088105358, 18.0000003));
#745 = DIRECTION('', (0.0, 0.0, 1.0));
#746 = DIRECTION('', (0.7071051440762489, 0.7071084182930558, 0.0));
#747 = SURFACE_CURVE('', #748, (#295, #325), .CURVE_3D.);
#748 = INTERSECTION_CURVE('', #749, (#762, #767), .CURVE_3D.);
#749 = B_SPLINE_CURVE_WITH_KNOTS('', 1, (#750, #751, #752, #753, #754, #755, #756, #757, #758, #759, #760, #761), .UNSPECIFIED., .U., .U., (2, 1, 1, 1, 1, 1, 1, 1, 1, 1, 1, 2), (0.0, 0.09090909090909091, 0.18181818181818182, 0.2727272727272727, 0.36363636363636365, 0.45454545454545453, 0.5454545454545454, 0.6363636363636364, 0.7272727272727273, 0.8181818181818182, 0.9090909090909091, 1.0), .UNSPECIFIED.);
#750 = CARTESIAN_POINT('', (102.18249701423252, -104.65792558312779, 13.0));
#751 = CARTESIAN_POINT('', (101.99156133992938, -104.57883510389954, 13.0));
#752 = CARTESIAN_POINT('', (101.80405717992306, -104.49192207638093, 13.000000000000002));
#753 = CARTESIAN_POINT('', (101.62030474561112, -104.3973349353069, 13.0));
#754 = CARTESIAN_POINT('', (101.44061795458856, -104.29523527074264, 13.0));
#755 = CARTESIAN_POINT('', (101.2653037788174, -104.18579750694147, 13.000000000000002));
#756 = CARTESIAN_POINT('', (101.0946617202043, -104.06920860436323, 13.0));
#757 = CARTESIAN_POINT('', (100.99392148099781, -103.9953640209981, 13.0));
#758 = CARTESIAN_POINT('', (100.92898329893968, -103.94566774027615, 13.0));
#759 = CARTESIAN_POINT('', (100.76855155547273, -103.81538596848794, 13.0));
#760 = CARTESIAN_POINT('', (100.61364056697286, -103.67858585878727, 13.0));
#761 = CARTESIAN_POINT('', (100.46451498095334, -103.53550111493709, 13.0));
#762 = PLANE('', #763);
#763 = AXIS2_PLACEMENT_3D('', #764, #765, #766);
#764 = CARTESIAN_POINT('', (143.0, -77.0, 13.0));
#765 = DIRECTION('', (0.0, 0.0, 1.0));
#766 = DIRECTION('', (-1.0, 0.0, 0.0));
#767 = CYLINDRICAL_SURFACE('', #768, 5.000138920553969);
#768 = AXIS2_PLACEMENT_3D('', #769, #770, #771);
#769 = CARTESIAN_POINT('', (104.00013901862417, -99.99986088105358, 18.0000003));
#770 = DIRECTION('', (0.0, 0.0, 1.0));
#771 = DIRECTION('', (0.7071051440762489, 0.7071084182930558, 0.0));
#772 = SURFACE_CURVE('', #773, (#295, #325), .CURVE_3D.);
#773 = INTERSECTION_CURVE('', #774, (#793, #798), .CURVE_3D.);
#774 = B_SPLINE_CURVE_WITH_KNOTS('', 1, (#775, #776, #777, #778, #779, #780, #781, #782, #783, #784, #785, #786, #787, #788, #789, #790, #791, #792), .UNSPECIFIED., .U., .U., (2, 1, 1, 1, 1, 1, 1, 1, 1, 1, 1, 1, 1, 1, 1, 1, 1, 2), (0.0, 0.058823529411764705, 0.11764705882352941, 0.17647058823529413, 0.23529411764705882, 0.29411764705882354, 0.35294117647058826, 0.4117647058823529, 0.47058823529411764, 0.5294117647058824, 0.5882352941176471, 0.6470588235294118, 0.7058823529411765, 0.7647058823529411, 0.8235294117647058, 0.8823529411764706, 0.9411764705882353, 1.0), .UNSPECIFIED.);
#775 = CARTESIAN_POINT('', (100.46451497910384, -103.5355011167117, 13.0));
#776 = CARTESIAN_POINT('', (100.32142955391043, -103.38637618429144, 13.0));
#777 = CARTESIAN_POINT('', (100.18462873458995, -103.23146582245155, 13.000000000000002));
#778 = CARTESIAN_POINT('', (100.05434622789221, -103.07103467578523, 13.0));
#779 = CARTESIAN_POINT('', (100.00462664643061, -103.00606614824456, 13.0));
#780 = CARTESIAN_POINT('', (99.93080460486138, -102.90535682044231, 13.0));
#781 = CARTESIAN_POINT('', (99.8142149206017, -102.73471529590519, 13.0));
#782 = CARTESIAN_POINT('', (99.70477635371685, -102.55940162145193, 13.000000000000002));
#783 = CARTESIAN_POINT('', (99.60267586603862, -102.3797152981327, 13.0));
#784 = CARTESIAN_POINT('', (99.5080878832265, -102.19596329711051, 13.0));
#785 = CARTESIAN_POINT('', (99.4211739967837, -102.00845953524018, 13.0));
#786 = CARTESIAN_POINT('', (99.3420826879987, -101.81752433878128, 13.0));
#787 = CARTESIAN_POINT('', (99.27094907428383, -101.62348389616176, 13.0));
#788 = CARTESIAN_POINT('', (99.2078947137362, -101.42666981959698, 13.0));
#789 = CARTESIAN_POINT('', (99.15302725102241, -101.22741810465462, 13.0));
#790 = CARTESIAN_POINT('', (99.10644046047736, -101.02606926478006, 13.000000000000002));
#791 = CARTESIAN_POINT('', (99.06821392969022, -100.82296727878263, 13.0));
#792 = CARTESIAN_POINT('', (99.03841295101803, -100.61845899715922, 13.0));
#793 = PLANE('', #794);
#794 = AXIS2_PLACEMENT_3D('', #795, #796, #797);
#795 = CARTESIAN_POINT('', (143.0, -77.0, 13.0));
#796 = DIRECTION('', (0.0, 0.0, 1.0));
#797 = DIRECTION('', (-1.0, 0.0, 0.0));
#798 = CYLINDRICAL_SURFACE('', #799, 5.000138920553969);
#799 = AXIS2_PLACEMENT_3D('', #800, #801, #802);
#800 = CARTESIAN_POINT('', (104.00013901862417, -99.99986088105358, 18.0000003));
#801 = DIRECTION('', (0.0, 0.0, 1.0));
#802 = DIRECTION('', (0.7071051440762489, 0.7071084182930558, 0.0));
#803 = SURFACE_CURVE('', #804, (#295, #325), .CURVE_3D.);
#804 = INTERSECTION_CURVE('', #805, (#818, #823), .CURVE_3D.);
#805 = B_SPLINE_CURVE_WITH_KNOTS('', 1, (#806, #807, #808, #809, #810, #811, #812, #813, #814, #815, #816, #817), .UNSPECIFIED., .U., .U., (2, 1, 1, 1, 1, 1, 1, 1, 1, 1, 1, 2), (0.0, 0.09090909090909091, 0.18181818181818182, 0.2727272727272727, 0.36363636363636365, 0.45454545454545453, 0.5454545454545454, 0.6363636363636364, 0.7272727272727273, 0.8181818181818182, 0.9090909090909091, 1.0), .UNSPECIFIED.);
#806 = CARTESIAN_POINT('', (99.0000001, -99.9999998, 13.0));
#807 = CARTESIAN_POINT('', (99.00000010003367, -100.00000100714807, 13.0));
#808 = CARTESIAN_POINT('', (99.00167216771386, -100.1291603984134, 13.000000000000002));
#809 = CARTESIAN_POINT('', (99.0019022623072, -100.13776864965462, 13.0));
#810 = CARTESIAN_POINT('', (99.00218338423426, -100.14760627525825, 13.0));
#811 = CARTESIAN_POINT('', (99.0025318224933, -100.15895688357867, 13.0));
#812 = CARTESIAN_POINT('', (99.00297092654219, -100.17219858533342, 13.0));
#813 = CARTESIAN_POINT('', (99.00353512504685, -100.18784693246872, 13.0));
#814 = CARTESIAN_POINT('', (99.00427689040407, -100.20662359687722, 13.0));
#815 = CARTESIAN_POINT('', (99.0130964570092, -100.36151778127709, 13.0));
#816 = CARTESIAN_POINT('', (99.01708847399377, -100.41289416602862, 13.0));
#817 = CARTESIAN_POINT('', (99.03841294846855, -100.61845899742369, 13.0));
#818 = PLANE('', #819);
#819 = AXIS2_PLACEMENT_3D('', #820, #821, #822);
#820 = CARTESIAN_POINT('', (143.0, -77.0, 13.0));
#821 = DIRECTION('', (0.0, 0.0, 1.0));
#822 = DIRECTION('', (-1.0, 0.0, 0.0));
#823 = CYLINDRICAL_SURFACE('', #824, 5.000138920553969);
#824 = AXIS2_PLACEMENT_3D('', #825, #826, #827);
#825 = CARTESIAN_POINT('', (104.00013901862417, -99.99986088105358, 18.0000003));
#826 = DIRECTION('', (0.0, 0.0, 1.0));
#827 = DIRECTION('', (0.7071051440762489, 0.7071084182930558, 0.0));
#828 = SURFACE_CURVE('', #829, (#295, #330), .CURVE_3D.);
#829 = INTERSECTION_CURVE('', #830, (#835, #840), .CURVE_3D.);
#830 = B_SPLINE_CURVE_WITH_KNOTS('', 1, (#831, #832, #833, #834), .UNSPECIFIED., .U., .U., (2, 1, 1, 2), (0.0, 0.3333333333333333, 0.6666666666666666, 1.0), .UNSPECIFIED.);
#831 = CARTESIAN_POINT('', (99.0000001, -99.9999998, 13.0));
#832 = CARTESIAN_POINT('', (99.00000009998834, -99.3043477913084, 13.0));
#833 = CARTESIAN_POINT('', (99.00000009991625, -95.00000673516608, 13.0));
#834 = CARTESIAN_POINT('', (99.000000099732, -84.00002295253007, 13.0));
#835 = PLANE('', #836);
#836 = AXIS2_PLACEMENT_3D('', #837, #838, #839);
#837 = CARTESIAN_POINT('', (143.0, -77.0, 13.0));
#838 = DIRECTION('', (0.0, 0.0, 1.0));
#839 = DIRECTION('', (-1.0, 0.0, 0.0));
#840 = PLANE('', #841);
#841 = AXIS2_PLACEMENT_3D('', #842, #843, #844);
#842 = CARTESIAN_POINT('', (99.000000099732, -84.00002295253007, 2.0000003));
#843 = DIRECTION('', (-1.0, -1.6749292875E-11, 0.0));
#844 = DIRECTION('', (1.6749292875E-11, -1.0, 0.0));
#845 = SURFACE_CURVE('', #846, (#295, #335), .CURVE_3D.);
#846 = INTERSECTION_CURVE('', #847, (#881, #886), .CURVE_3D.);
#847 = B_SPLINE_CURVE_WITH_KNOTS('', 1, (#848, #849, #850, #851, #852, #853, #854, #855, #856, #857, #858, #859, #860, #861, #862, #863, #864, #865, #866, #867, #868, #869, #870, #871, #872, #873, #874, #875, #876, #877, #878, #879, #880), .UNSPECIFIED., .U., .U., (2, 1, 1, 1, 1, 1, 1, 1, 1, 1, 1, 1, 1, 1, 1, 1, 1, 1, 1, 1, 1, 1, 1, 1, 1, 1, 1, 1, 1, 1, 1, 1, 2), (0.0, 0.03125, 0.0625, 0.09375, 0.125, 0.15625, 0.1875, 0.21875, 0.25, 0.28125, 0.3125, 0.34375, 0.375, 0.40625, 0.4375, 0.46875, 0.5, 0.53125, 0.5625, 0.59375, 0.625, 0.65625, 0.6875, 0.71875, 0.75, 0.78125, 0.8125, 0.84375, 0.875, 0.90625, 0.9375, 0.96875, 1.0), .UNSPECIFIED.);
#848 = CARTESIAN_POINT('', (99.000000099732, -84.00002295253007, 13.0));
#849 = CARTESIAN_POINT('', (99.00000010098015, -83.99997783481534, 13.0));
#850 = CARTESIAN_POINT('', (99.00167156937525, -83.87086234637563, 13.0));
#851 = CARTESIAN_POINT('', (99.00190162410854, -83.86225409406906, 13.0));
#852 = CARTESIAN_POINT('', (99.00218270048305, -83.85241646716383, 13.0));
#853 = CARTESIAN_POINT('', (99.00253108618375, -83.8410658572301, 13.0));
#854 = CARTESIAN_POINT('', (99.00297012891772, -83.82782415344225, 13.0));
#855 = CARTESIAN_POINT('', (99.00353425496361, -83.81217580369463, 13.0));
#856 = CARTESIAN_POINT('', (99.00427593337658, -83.79339913585162, 13.0));
#857 = CARTESIAN_POINT('', (99.01708656184226, -83.58712850737912, 13.0));
#858 = CARTESIAN_POINT('', (99.03841009980445, -83.38156345416992, 13.0));
#859 = CARTESIAN_POINT('', (99.0682101187185, -83.17705515789604, 13.0));
#860 = CARTESIAN_POINT('', (99.1064357090533, -82.97395299489504, 13.0));
#861 = CARTESIAN_POINT('', (99.15302156726376, -82.77260393930521, 13.0));
#862 = CARTESIAN_POINT('', (99.2078881073535, -82.57335197030437, 13.0));
#863 = CARTESIAN_POINT('', (99.27094159683742, -82.37653748446549, 13.0));
#864 = CARTESIAN_POINT('', (99.34207431687169, -82.18249671423239, 13.0));
#865 = CARTESIAN_POINT('', (99.42116474627765, -81.99156115350965, 13.0));
#866 = CARTESIAN_POINT('', (99.50807776914526, -81.80405699134748, 13.0));
#867 = CARTESIAN_POINT('', (99.60266490566137, -81.62030455468933, 13.0));
#868 = CARTESIAN_POINT('', (99.70476456576856, -81.44061776113419, 13.0));
#869 = CARTESIAN_POINT('', (99.8142023252211, -81.26530358264846, 13.0));
#870 = CARTESIAN_POINT('', (99.93079122356663, -81.09466152114338, 13.0));
#871 = CARTESIAN_POINT('', (100.00463469945225, -80.99392274871337, 13.0));
#872 = CARTESIAN_POINT('', (100.0543320835441, -80.92898309681433, 13.0));
#873 = CARTESIAN_POINT('', (100.18461385135285, -80.76855135011577, 13.0));
#874 = CARTESIAN_POINT('', (100.321413957211, -80.6136403582226, 13.0));
#875 = CARTESIAN_POINT('', (100.4644986955876, -80.4645147668044, 13.0));
#876 = CARTESIAN_POINT('', (100.61362362445865, -80.321429337912, 13.0));
#877 = CARTESIAN_POINT('', (100.76853398290525, -80.184628514749, 13.0));
#878 = CARTESIAN_POINT('', (100.92896512633996, -80.0543460040718, 13.0));
#879 = CARTESIAN_POINT('', (100.99393531947507, -80.00462516688557, 13.0));
#880 = CARTESIAN_POINT('', (101.09464297861847, -79.93080437693136, 13.0));
#881 = PLANE('', #882);
#882 = AXIS2_PLACEMENT_3D('', #883, #884, #885);
#883 = CARTESIAN_POINT('', (143.0, -77.0, 13.0));
#884 = DIRECTION('', (0.0, 0.0, 1.0));
#885 = DIRECTION('', (-1.0, 0.0, 0.0));
#886 = CYLINDRICAL_SURFACE('', #887, 5.000138920554009);
#887 = AXIS2_PLACEMENT_3D('', #888, #889, #890);
#888 = CARTESIAN_POINT('', (104.00013901894587, -84.00013871862421, 18.0000003));
#889 = DIRECTION('', (0.0, 0.0, 1.0));
#890 = DIRECTION('', (0.7071084182930132, -0.7071051440762914, 0.0));
#891 = SURFACE_CURVE('', #892, (#295, #335), .CURVE_3D.);
#892 = INTERSECTION_CURVE('', #893, (#916, #921), .CURVE_3D.);
#893 = B_SPLINE_CURVE_WITH_KNOTS('', 1, (#894, #895, #896, #897, #898, #899, #900, #901, #902, #903, #904, #905, #906, #907, #908, #909, #910, #911, #912, #913, #914, #915), .UNSPECIFIED., .U., .U., (2, 1, 1, 1, 1, 1, 1, 1, 1, 1, 1, 1, 1, 1, 1, 1, 1, 1, 1, 1, 1, 2), (0.0, 0.047619047619047616, 0.09523809523809523, 0.14285714285714285, 0.19047619047619047, 0.23809523809523808, 0.2857142857142857, 0.3333333333333333, 0.38095238095238093, 0.42857142857142855, 0.47619047619047616, 0.5238095238095238, 0.5714285714285714, 0.6190476190476191, 0.6666666666666666, 0.7142857142857143, 0.7619047619047619, 0.8095238095238095, 0.8571428571428571, 0.9047619047619048, 0.9523809523809523, 1.0), .UNSPECIFIED.);
#894 = CARTESIAN_POINT('', (101.09464297861848, -79.93080437693136, 13.0));
#895 = CARTESIAN_POINT('', (101.26528450026363, -79.81421468843897, 13.0));
#896 = CARTESIAN_POINT('', (101.44059817200232, -79.7047761172055, 13.0));
#897 = CARTESIAN_POINT('', (101.62028449278901, -79.60267562507019, 13.0));
#898 = CARTESIAN_POINT('', (101.80403649146497, -79.50808763770016, 13.0));
#899 = CARTESIAN_POINT('', (101.99154025117944, -79.42117374660639, 13.0));
#900 = CARTESIAN_POINT('', (102.18247544567652, -79.3420824330853, 13.0));
#901 = CARTESIAN_POINT('', (102.37651588653162, -79.27094881455731, 13.0));
#902 = CARTESIAN_POINT('', (102.5733300804029, -79.20789441373607, 13.0));
#903 = CARTESIAN_POINT('', (102.77258179534527, -79.1530269510223, 13.0));
#904 = CARTESIAN_POINT('', (102.97393063521986, -79.10644016047728, 13.0));
#905 = CARTESIAN_POINT('', (103.1770326212173, -79.06821362969015, 13.0));
#906 = CARTESIAN_POINT('', (103.38154077950175, -79.03841266381268, 13.0));
#907 = CARTESIAN_POINT('', (103.58710573397134, -79.01708817399373, 13.0));
#908 = CARTESIAN_POINT('', (103.79337630312276, -79.00427659040406, 13.0));
#909 = CARTESIAN_POINT('', (103.81215296753126, -79.00353482504684, 13.0));
#910 = CARTESIAN_POINT('', (103.82780131466657, -79.00297062654218, 13.0));
#911 = CARTESIAN_POINT('', (103.84104301642132, -79.00253152249327, 13.0));
#912 = CARTESIAN_POINT('', (103.85239362474175, -79.00218308423425, 13.0));
#913 = CARTESIAN_POINT('', (103.86223125034536, -79.00190196230717, 13.0));
#914 = CARTESIAN_POINT('', (103.87083950158657, -79.00167186771387, 13.000000000000002));
#915 = CARTESIAN_POINT('', (104.0000001, -78.9999998, 13.0));
#916 = PLANE('', #917);
#917 = AXIS2_PLACEMENT_3D('', #918, #919, #920);
#918 = CARTESIAN_POINT('', (143.0, -77.0, 13.0));
#919 = DIRECTION('', (0.0, 0.0, 1.0));
#920 = DIRECTION('', (-1.0, 0.0, 0.0));
#921 = CYLINDRICAL_SURFACE('', #922, 5.000138920554009);
#922 = AXIS2_PLACEMENT_3D('', #923, #924, #925);
#923 = CARTESIAN_POINT('', (104.00013901894587, -84.00013871862421, 18.0000003));
#924 = DIRECTION('', (0.0, 0.0, 1.0));
#925 = DIRECTION('', (0.7071084182930132, -0.7071051440762914, 0.0));
#926 = SURFACE_CURVE('', #927, (#295, #300), .CURVE_3D.);
#927 = INTERSECTION_CURVE('', #928, (#933, #938), .CURVE_3D.);
#928 = B_SPLINE_CURVE_WITH_KNOTS('', 1, (#929, #930, #931, #932), .UNSPECIFIED., .U., .U., (2, 1, 1, 2), (0.0, 0.3333333333333333, 0.6666666666666666, 1.0), .UNSPECIFIED.);
#929 = CARTESIAN_POINT('', (135.99997694746983, -78.99999979973258, 13.0));
#930 = CARTESIAN_POINT('', (115.14285602805263, -78.99999979990689, 13.0));
#931 = CARTESIAN_POINT('', (113.99999346483389, -78.99999979991644, 13.0));
#932 = CARTESIAN_POINT('', (104.0000001, -78.9999998, 13.0));
#933 = PLANE('', #934);
#934 = AXIS2_PLACEMENT_3D('', #935, #936, #937);
#935 = CARTESIAN_POINT('', (143.0, -77.0, 13.0));
#936 = DIRECTION('', (0.0, 0.0, 1.0));
#937 = DIRECTION('', (-1.0, 0.0, 0.0));
#938 = PLANE('', #939);
#939 = AXIS2_PLACEMENT_3D('', #940, #941, #942);
#940 = CARTESIAN_POINT('', (135.99997694746983, -78.99999979973259, 2.0000003));
#941 = DIRECTION('', (-8.3564327078E-12, 1.0, 0.0));
#942 = DIRECTION('', (-1.0, -8.3564327078E-12, 0.0));
#943 = SURFACE_CURVE('', #944, (#300, #305), .CURVE_3D.);
#944 = LINE('', #945, #946);
#945 = CARTESIAN_POINT('', (135.99997694746983, -78.99999979973259, 2.0000003));
#946 = VECTOR('', #947, 10.9999997);
#947 = DIRECTION('', (0.0, 0.0, 1.0));
#948 = SURFACE_CURVE('', #949, (#300, #340), .CURVE_3D.);
#949 = LINE('', #950, #951);
#950 = CARTESIAN_POINT('', (135.99997694746983, -78.99999979973259, 2.0000003));
#951 = VECTOR('', #952, 31.99997684746984);
#952 = DIRECTION('', (-1.0, -8.3564327078E-12, 0.0));
#953 = SURFACE_CURVE('', #954, (#300, #335), .CURVE_3D.);
#954 = LINE('', #955, #956);
#955 = CARTESIAN_POINT('', (104.0000001, -78.9999998, 2.0000003));
#956 = VECTOR('', #957, 10.9999997);
#957 = DIRECTION('', (0.0, 0.0, 1.0));
#958 = SURFACE_CURVE('', #959, (#305, #310), .CURVE_3D.);
#959 = LINE('', #960, #961);
#960 = CARTESIAN_POINT('', (141.0000001, -83.9999998, 2.0000003));
#961 = VECTOR('', #962, 10.9999997);
#962 = DIRECTION('', (0.0, 0.0, 1.0));
#963 = SURFACE_CURVE('', #964, (#305, #340), .CURVE_3D.);
#964 = (
    BOUNDED_CURVE()
    B_SPLINE_CURVE(2, (#965, #966, #967, #968, #969, #970), .UNSPECIFIED., .U., .U.)
    B_SPLINE_CURVE_WITH_KNOTS((3, 1, 1, 1, 3), (0.0, 0.25, 0.5, 0.75, 1.0), .UNSPECIFIED.)
    CURVE()
    GEOMETRIC_REPRESENTATION_ITEM()
    RATIONAL_B_SPLINE_CURVE((1.0, 0.9267811973522168, 0.8535623947044335, 0.8535623947044334, 0.9267811973522166, 1.0))
    REPRESENTATION_ITEM('')
);
#965 = CARTESIAN_POINT('', (141.0000001, -83.9999998, 2.0000003));
#966 = CARTESIAN_POINT('', (140.9999736029077, -83.04628437600653, 2.0000003));
#967 = CARTESIAN_POINT('', (140.2677138465779, -81.19672371843612, 2.0000003));
#968 = CARTESIAN_POINT('', (138.80325641981253, -79.73227307274, 2.0000003));
#969 = CARTESIAN_POINT('', (136.95369237157578, -79.00002188070108, 2.0000003));
#970 = CARTESIAN_POINT('', (135.99997694746983, -78.99999979973258, 2.0000003));
#971 = SURFACE_CURVE('', #972, (#310, #315), .CURVE_3D.);
#972 = LINE('', #973, #974);
#973 = CARTESIAN_POINT('', (141.00000010026773, -99.99997664747002, 2.0000003));
#974 = VECTOR('', #975, 10.9999997);
#975 = DIRECTION('', (0.0, 0.0, 1.0));
#976 = SURFACE_CURVE('', #977, (#310, #340), .CURVE_3D.);
#977 = LINE('', #978, #979);
#978 = CARTESIAN_POINT('', (141.00000010026773, -99.99997664747002, 2.0000003));
#979 = VECTOR('', #980, 15.999976847470023);
#980 = DIRECTION('', (-1.6733305641E-11, 1.0, 0.0));
#981 = SURFACE_CURVE('', #982, (#315, #320), .CURVE_3D.);
#982 = LINE('', #983, #984);
#983 = CARTESIAN_POINT('', (136.0000001, -104.9999998, 2.0000003));
#984 = VECTOR('', #985, 10.9999997);
#985 = DIRECTION('', (0.0, 0.0, 1.0));
#986 = SURFACE_CURVE('', #987, (#315, #340), .CURVE_3D.);
#987 = (
    BOUNDED_CURVE()
    B_SPLINE_CURVE(2, (#988, #989, #990, #991, #992, #993), .UNSPECIFIED., .U., .U.)
    B_SPLINE_CURVE_WITH_KNOTS((3, 1, 1, 1, 3), (0.0, 0.25, 0.5, 0.75, 1.0), .UNSPECIFIED.)
    CURVE()
    GEOMETRIC_REPRESENTATION_ITEM()
    RATIONAL_B_SPLINE_CURVE((1.0, 0.9267811973521791, 0.8535623947043581, 0.853562394704358, 0.926781197352179, 1.0))
    REPRESENTATION_ITEM('')
);
#988 = CARTESIAN_POINT('', (136.0000001, -104.9999998, 2.0000003));
#989 = CARTESIAN_POINT('', (136.9537155239935, -104.99997330290797, 2.0000003));
#990 = CARTESIAN_POINT('', (138.80327618156417, -104.26771354657842, 2.0000003));
#991 = CARTESIAN_POINT('', (140.26772682726056, -102.80325611981297, 2.0000003));
#992 = CARTESIAN_POINT('', (140.9999780192994, -100.95369207157601, 2.0000003));
#993 = CARTESIAN_POINT('', (141.00000010026773, -99.99997664747002, 2.0000003));
#994 = SURFACE_CURVE('', #995, (#320, #325), .CURVE_3D.);
#995 = LINE('', #996, #997);
#996 = CARTESIAN_POINT('', (104.00002325253007, -104.9999998002674, 2.0000003));
#997 = VECTOR('', #998, 10.9999997);
#998 = DIRECTION('', (0.0, 0.0, 1.0));
#999 = SURFACE_CURVE('', #1000, (#320, #340), .CURVE_3D.);
#1000 = LINE('', #1001, #1002);
#1001 = CARTESIAN_POINT('', (104.00002325253007, -104.9999998002674, 2.0000003));
#1002 = VECTOR('', #1003, 31.999976847469924);
#1003 = DIRECTION('', (1.0, 8.3564327078E-12, 0.0));
#1004 = SURFACE_CURVE('', #1005, (#325, #330), .CURVE_3D.);
#1005 = LINE('', #1006, #1007);
#1006 = CARTESIAN_POINT('', (99.0000001, -99.9999998, 2.0000003));
#1007 = VECTOR('', #1008, 10.9999997);
#1008 = DIRECTION('', (0.0, 0.0, 1.0));
#1009 = SURFACE_CURVE('', #1010, (#325, #340), .CURVE_3D.);
#1010 = (
    BOUNDED_CURVE()
    B_SPLINE_CURVE(2, (#1011, #1012, #1013, #1014, #1015, #1016), .UNSPECIFIED., .U., .U.)
    B_SPLINE_CURVE_WITH_KNOTS((3, 1, 1, 1, 3), (0.0, 0.25, 0.5, 0.75, 1.0), .UNSPECIFIED.)
    CURVE()
    GEOMETRIC_REPRESENTATION_ITEM()
    RATIONAL_B_SPLINE_CURVE((1.0, 0.9267811973522019, 0.8535623947044038, 0.8535623947044038, 0.9267811973522019, 1.0))
    REPRESENTATION_ITEM('')
);
#1011 = CARTESIAN_POINT('', (99.0000001, -99.9999998, 2.0000003));
#1012 = CARTESIAN_POINT('', (99.0000265970922, -100.95371522399347, 2.0000003));
#1013 = CARTESIAN_POINT('', (99.7322863534219, -102.80327588156393, 2.0000003));
#1014 = CARTESIAN_POINT('', (101.1967437801873, -104.26772652726014, 2.0000003));
#1015 = CARTESIAN_POINT('', (103.04630782842415, -104.99997771929898, 2.0000003));
#1016 = CARTESIAN_POINT('', (104.00002325253008, -104.9999998002674, 2.0000003));
#1017 = SURFACE_CURVE('', #1018, (#330, #335), .CURVE_3D.);
#1018 = LINE('', #1019, #1020);
#1019 = CARTESIAN_POINT('', (99.000000099732, -84.00002295253007, 2.0000003));
#1020 = VECTOR('', #1021, 10.9999997);
#1021 = DIRECTION('', (0.0, 0.0, 1.0));
#1022 = SURFACE_CURVE('', #1023, (#330, #340), .CURVE_3D.);
#1023 = LINE('', #1024, #1025);
#1024 = CARTESIAN_POINT('', (99.000000099732, -84.00002295253007, 2.0000003));
#1025 = VECTOR('', #1026, 15.999976847469924);
#1026 = DIRECTION('', (1.6749292875E-11, -1.0, 0.0));
#1027 = SURFACE_CURVE('', #1028, (#335, #340), .CURVE_3D.);
#1028 = (
    BOUNDED_CURVE()
    B_SPLINE_CURVE(2, (#1029, #1030, #1031, #1032, #1033, #1034), .UNSPECIFIED., .U., .U.)
    B_SPLINE_CURVE_WITH_KNOTS((3, 1, 1, 1, 3), (0.0, 0.25, 0.5, 0.75, 1.0), .UNSPECIFIED.)
    CURVE()
    GEOMETRIC_REPRESENTATION_ITEM()
    RATIONAL_B_SPLINE_CURVE((1.0, 0.9267811973521933, 0.8535623947043867, 0.8535623947043867, 0.9267811973521933, 1.0))
    REPRESENTATION_ITEM('')
);
#1029 = CARTESIAN_POINT('', (104.0000001, -78.9999998, 2.0000003));
#1030 = CARTESIAN_POINT('', (103.04628467600645, -79.00002629709209, 2.0000003));
#1031 = CARTESIAN_POINT('', (101.1967240184358, -79.73228605342169, 2.0000003));
#1032 = CARTESIAN_POINT('', (99.7322733727394, -81.19674348018712, 2.0000003));
#1033 = CARTESIAN_POINT('', (99.00002218070043, -83.04630752842407, 2.0000003));
#1034 = CARTESIAN_POINT('', (99.000000099732, -84.00002295253007, 2.0000003));
#1035 = SURFACE_CURVE('', #1036, (#345, #350), .CURVE_3D.);
#1036 = LINE('', #1037, #1038);
#1037 = CARTESIAN_POINT('', (143.0, -84.0, 0.0));
#1038 = VECTOR('', #1039, 13.0);
#1039 = DIRECTION('', (0.0, 0.0, 1.0));
#1040 = SURFACE_CURVE('', #1041, (#350, #355), .CURVE_3D.);
#1041 = LINE('', #1042, #1043);
#1042 = CARTESIAN_POINT('', (142.99999999973167, -100.00002315252998, 0.0));
#1043 = VECTOR('', #1044, 13.0);
#1044 = DIRECTION('', (0.0, 0.0, 1.0));
#1045 = SURFACE_CURVE('', #1046, (#355, #360), .CURVE_3D.);
#1046 = LINE('', #1047, #1048);
#1047 = CARTESIAN_POINT('', (136.0, -107.0, 0.0));
#1048 = VECTOR('', #1049, 13.0);
#1049 = DIRECTION('', (0.0, 0.0, 1.0));
#1050 = SURFACE_CURVE('', #1051, (#360, #365), .CURVE_3D.);
#1051 = LINE('', #1052, #1053);
#1052 = CARTESIAN_POINT('', (103.99997684746992, -106.99999999973137, 0.0));
#1053 = VECTOR('', #1054, 13.0);
#1054 = DIRECTION('', (0.0, 0.0, 1.0));
#1055 = SURFACE_CURVE('', #1056, (#365, #370), .CURVE_3D.);
#1056 = LINE('', #1057, #1058);
#1057 = CARTESIAN_POINT('', (97.0, -100.0, 0.0));
#1058 = VECTOR('', #1059, 13.0);
#1059 = DIRECTION('', (0.0, 0.0, 1.0));
#1060 = SURFACE_CURVE('', #1061, (#370, #375), .CURVE_3D.);
#1061 = LINE('', #1062, #1063);
#1062 = CARTESIAN_POINT('', (97.00000000026805, -83.99997684746992, 0.0));
#1063 = VECTOR('', #1064, 13.0);
#1064 = DIRECTION('', (0.0, 0.0, 1.0));
#1065 = CARTESIAN_POINT('', (104.0, -77.0, 0.0));
#1066 = CARTESIAN_POINT('', (97.00000000026805, -83.99997684746992, 0.0));
#1067 = CARTESIAN_POINT('', (97.0, -100.0, 0.0));
#1068 = CARTESIAN_POINT('', (103.99997684746992, -106.99999999973137, 0.0));
#1069 = CARTESIAN_POINT('', (136.0, -107.0, 0.0));
#1070 = CARTESIAN_POINT('', (142.99999999973167, -100.00002315252998, 0.0));
#1071 = CARTESIAN_POINT('', (143.0, -84.0, 0.0));
#1072 = CARTESIAN_POINT('', (136.00002315253016, -77.00000000026863, 0.0));
#1073 = CARTESIAN_POINT('', (104.0, -77.0, 13.0));
#1074 = CARTESIAN_POINT('', (136.00002315253016, -77.00000000026863, 13.0));
#1075 = CARTESIAN_POINT('', (97.00000000026805, -83.99997684746992, 13.0));
#1076 = CARTESIAN_POINT('', (97.0, -100.0, 13.0));
#1077 = CARTESIAN_POINT('', (103.99997684746992, -106.99999999973137, 13.0));
#1078 = CARTESIAN_POINT('', (136.0, -107.0, 13.0));
#1079 = CARTESIAN_POINT('', (142.99999999973167, -100.00002315252998, 13.0));
#1080 = CARTESIAN_POINT('', (143.0, -84.0, 13.0));
#1081 = CARTESIAN_POINT('', (137.02604690510478, -79.10643540905393, 13.0));
#1082 = CARTESIAN_POINT('', (135.99997694746983, -78.99999979973258, 13.0));
#1083 = CARTESIAN_POINT('', (138.19594290865223, -79.50807746914587, 13.0));
#1084 = CARTESIAN_POINT('', (141.0000001, -83.9999998, 13.0));
#1085 = CARTESIAN_POINT('', (141.00000010026773, -99.99997664747002, 13.0));
#1086 = CARTESIAN_POINT('', (140.65792583567398, -101.81750300032904, 13.0));
#1087 = CARTESIAN_POINT('', (139.0710349742533, -103.9456536700533, 13.0));
#1088 = CARTESIAN_POINT('', (136.0000001, -104.9999998, 13.0));
#1089 = CARTESIAN_POINT('', (104.00002325253008, -104.9999998002674, 13.0));
#1090 = CARTESIAN_POINT('', (102.18249701423252, -104.65792558312779, 13.0));
#1091 = CARTESIAN_POINT('', (100.46451498095334, -103.53550111493709, 13.0));
#1092 = CARTESIAN_POINT('', (99.03841295101803, -100.61845899715922, 13.0));
#1093 = CARTESIAN_POINT('', (99.0000001, -99.9999998, 13.0));
#1094 = CARTESIAN_POINT('', (99.000000099732, -84.00002295253007, 13.0));
#1095 = CARTESIAN_POINT('', (101.09464297861848, -79.93080437693136, 13.0));
#1096 = CARTESIAN_POINT('', (104.0000001, -78.9999998, 13.0));
#1097 = CARTESIAN_POINT('', (135.99997694746983, -78.99999979973259, 2.0000003));
#1098 = CARTESIAN_POINT('', (104.0000001, -78.9999998, 2.0000003));
#1099 = CARTESIAN_POINT('', (141.0000001, -83.9999998, 2.0000003));
#1100 = CARTESIAN_POINT('', (141.00000010026773, -99.99997664747002, 2.0000003));
#1101 = CARTESIAN_POINT('', (136.0000001, -104.9999998, 2.0000003));
#1102 = CARTESIAN_POINT('', (104.00002325253007, -104.9999998002674, 2.0000003));
#1103 = CARTESIAN_POINT('', (99.0000001, -99.9999998, 2.0000003));
#1104 = CARTESIAN_POINT('', (99.000000099732, -84.00002295253007, 2.0000003));
ENDSEC;
END-ISO-10303-21;
