ISO-10303-21;
HEADER;
FILE_DESCRIPTION(('Shape Data from monstertruck'), '2;1');
FILE_NAME('', '2026-09-01 02:55:36.771347492', (''), (''), 'monstertruck', 'KiCase', '');
FILE_SCHEMA(('AUTOMOTIVE_DESIGN'));
ENDSEC;
DATA;
#1 = APPLICATION_PROTOCOL_DEFINITION('international standard', 'automotive_design', 2000, #2);
#2 = APPLICATION_CONTEXT('core data for automotive mechanical design processes');
#3 = SHAPE_DEFINITION_REPRESENTATION(#4, #10);
#4 = PRODUCT_DEFINITION_SHAPE('','', #5);
#5 = PRODUCT_DEFINITION('design','', #6, #9);
#6 = PRODUCT_DEFINITION_FORMATION('','', #7);
#7 = PRODUCT('','','', (#8));
#8 = PRODUCT_CONTEXT('', #2, 'mechanical');
#9 = PRODUCT_DEFINITION_CONTEXT('part definition', #2, 'design');
#10 = ADVANCED_BREP_SHAPE_REPRESENTATION('', (#16), #11);
#11 = (
    GEOMETRIC_REPRESENTATION_CONTEXT(3) 
    GLOBAL_UNCERTAINTY_ASSIGNED_CONTEXT((#15))
    GLOBAL_UNIT_ASSIGNED_CONTEXT((#12, #13, #14))
    REPRESENTATION_CONTEXT('Context #1', '3D Context with UNIT and UNCERTAINTY')
);
#12 = ( LENGTH_UNIT() NAMED_UNIT(*) SI_UNIT(.MILLI.,.METRE.) );
#13 = ( NAMED_UNIT(*) PLANE_ANGLE_UNIT() SI_UNIT($,.RADIAN.) );
#14 = ( NAMED_UNIT(*) SI_UNIT($,.STERADIAN.) SOLID_ANGLE_UNIT() );
#15 = UNCERTAINTY_MEASURE_WITH_UNIT(LENGTH_MEASURE(1.0E-6), #12, 'distance_accuracy_value','confusion accuracy');
#16 = MANIFOLD_SOLID_BREP('', #17);
#17 = CLOSED_SHELL('', (#18, #31, #38, #45, #58, #65, #72, #79, #86, #93, #100, #107, #114, #121, #128, #135));
#18 = ADVANCED_FACE('', (#19, #25), #202, .F.);
#19 = FACE_BOUND('', #20, .F.);
#20 = EDGE_LOOP('', (#21, #22, #23, #24));
#21 = ORIENTED_EDGE('', *, *, #142, .T.);
#22 = ORIENTED_EDGE('', *, *, #143, .T.);
#23 = ORIENTED_EDGE('', *, *, #144, .T.);
#24 = ORIENTED_EDGE('', *, *, #145, .T.);
#25 = FACE_BOUND('', #26, .F.);
#26 = EDGE_LOOP('', (#27, #28, #29, #30));
#27 = ORIENTED_EDGE('', *, *, #146, .T.);
#28 = ORIENTED_EDGE('', *, *, #147, .T.);
#29 = ORIENTED_EDGE('', *, *, #148, .T.);
#30 = ORIENTED_EDGE('', *, *, #149, .F.);
#31 = ADVANCED_FACE('', (#32), #207, .T.);
#32 = FACE_BOUND('', #33, .T.);
#33 = EDGE_LOOP('', (#34, #35, #36, #37));
#34 = ORIENTED_EDGE('', *, *, #150, .F.);
#35 = ORIENTED_EDGE('', *, *, #151, .T.);
#36 = ORIENTED_EDGE('', *, *, #152, .T.);
#37 = ORIENTED_EDGE('', *, *, #149, .F.);
#38 = ADVANCED_FACE('', (#39), #212, .T.);
#39 = FACE_BOUND('', #40, .T.);
#40 = EDGE_LOOP('', (#41, #42, #43, #44));
#41 = ORIENTED_EDGE('', *, *, #148, .T.);
#42 = ORIENTED_EDGE('', *, *, #152, .F.);
#43 = ORIENTED_EDGE('', *, *, #153, .T.);
#44 = ORIENTED_EDGE('', *, *, #154, .T.);
#45 = ADVANCED_FACE('', (#46, #52), #217, .F.);
#46 = FACE_BOUND('', #47, .F.);
#47 = EDGE_LOOP('', (#48, #49, #50, #51));
#48 = ORIENTED_EDGE('', *, *, #153, .T.);
#49 = ORIENTED_EDGE('', *, *, #155, .T.);
#50 = ORIENTED_EDGE('', *, *, #156, .T.);
#51 = ORIENTED_EDGE('', *, *, #151, .T.);
#52 = FACE_BOUND('', #53, .F.);
#53 = EDGE_LOOP('', (#54, #55, #56, #57));
#54 = ORIENTED_EDGE('', *, *, #157, .T.);
#55 = ORIENTED_EDGE('', *, *, #158, .F.);
#56 = ORIENTED_EDGE('', *, *, #159, .T.);
#57 = ORIENTED_EDGE('', *, *, #160, .F.);
#58 = ADVANCED_FACE('', (#59), #222, .F.);
#59 = FACE_BOUND('', #60, .F.);
#60 = EDGE_LOOP('', (#61, #62, #63, #64));
#61 = ORIENTED_EDGE('', *, *, #160, .T.);
#62 = ORIENTED_EDGE('', *, *, #161, .T.);
#63 = ORIENTED_EDGE('', *, *, #162, .F.);
#64 = ORIENTED_EDGE('', *, *, #163, .F.);
#65 = ADVANCED_FACE('', (#66), #227, .F.);
#66 = FACE_BOUND('', #67, .F.);
#67 = EDGE_LOOP('', (#68, #69, #70, #71));
#68 = ORIENTED_EDGE('', *, *, #163, .T.);
#69 = ORIENTED_EDGE('', *, *, #164, .F.);
#70 = ORIENTED_EDGE('', *, *, #165, .F.);
#71 = ORIENTED_EDGE('', *, *, #157, .F.);
#72 = ADVANCED_FACE('', (#73), #232, .F.);
#73 = FACE_BOUND('', #74, .F.);
#74 = EDGE_LOOP('', (#75, #76, #77, #78));
#75 = ORIENTED_EDGE('', *, *, #162, .T.);
#76 = ORIENTED_EDGE('', *, *, #166, .T.);
#77 = ORIENTED_EDGE('', *, *, #167, .T.);
#78 = ORIENTED_EDGE('', *, *, #164, .T.);
#79 = ADVANCED_FACE('', (#80), #237, .F.);
#80 = FACE_BOUND('', #81, .F.);
#81 = EDGE_LOOP('', (#82, #83, #84, #85));
#82 = ORIENTED_EDGE('', *, *, #158, .T.);
#83 = ORIENTED_EDGE('', *, *, #165, .T.);
#84 = ORIENTED_EDGE('', *, *, #167, .F.);
#85 = ORIENTED_EDGE('', *, *, #168, .F.);
#86 = ADVANCED_FACE('', (#87), #242, .F.);
#87 = FACE_BOUND('', #88, .F.);
#88 = EDGE_LOOP('', (#89, #90, #91, #92));
#89 = ORIENTED_EDGE('', *, *, #168, .T.);
#90 = ORIENTED_EDGE('', *, *, #166, .F.);
#91 = ORIENTED_EDGE('', *, *, #161, .F.);
#92 = ORIENTED_EDGE('', *, *, #159, .F.);
#93 = ADVANCED_FACE('', (#94), #247, .T.);
#94 = FACE_BOUND('', #95, .T.);
#95 = EDGE_LOOP('', (#96, #97, #98, #99));
#96 = ORIENTED_EDGE('', *, *, #147, .T.);
#97 = ORIENTED_EDGE('', *, *, #154, .F.);
#98 = ORIENTED_EDGE('', *, *, #155, .T.);
#99 = ORIENTED_EDGE('', *, *, #169, .T.);
#100 = ADVANCED_FACE('', (#101), #252, .T.);
#101 = FACE_BOUND('', #102, .T.);
#102 = EDGE_LOOP('', (#103, #104, #105, #106));
#103 = ORIENTED_EDGE('', *, *, #146, .T.);
#104 = ORIENTED_EDGE('', *, *, #169, .F.);
#105 = ORIENTED_EDGE('', *, *, #156, .T.);
#106 = ORIENTED_EDGE('', *, *, #150, .T.);
#107 = ADVANCED_FACE('', (#108), #257, .T.);
#108 = FACE_BOUND('', #109, .T.);
#109 = EDGE_LOOP('', (#110, #111, #112, #113));
#110 = ORIENTED_EDGE('', *, *, #145, .T.);
#111 = ORIENTED_EDGE('', *, *, #170, .T.);
#112 = ORIENTED_EDGE('', *, *, #171, .F.);
#113 = ORIENTED_EDGE('', *, *, #172, .F.);
#114 = ADVANCED_FACE('', (#115), #262, .T.);
#115 = FACE_BOUND('', #116, .T.);
#116 = EDGE_LOOP('', (#117, #118, #119, #120));
#117 = ORIENTED_EDGE('', *, *, #144, .T.);
#118 = ORIENTED_EDGE('', *, *, #172, .T.);
#119 = ORIENTED_EDGE('', *, *, #173, .F.);
#120 = ORIENTED_EDGE('', *, *, #174, .F.);
#121 = ADVANCED_FACE('', (#122), #267, .T.);
#122 = FACE_BOUND('', #123, .T.);
#123 = EDGE_LOOP('', (#124, #125, #126, #127));
#124 = ORIENTED_EDGE('', *, *, #143, .T.);
#125 = ORIENTED_EDGE('', *, *, #174, .T.);
#126 = ORIENTED_EDGE('', *, *, #175, .F.);
#127 = ORIENTED_EDGE('', *, *, #176, .F.);
#128 = ADVANCED_FACE('', (#129), #272, .T.);
#129 = FACE_BOUND('', #130, .T.);
#130 = EDGE_LOOP('', (#131, #132, #133, #134));
#131 = ORIENTED_EDGE('', *, *, #142, .T.);
#132 = ORIENTED_EDGE('', *, *, #176, .T.);
#133 = ORIENTED_EDGE('', *, *, #177, .F.);
#134 = ORIENTED_EDGE('', *, *, #170, .F.);
#135 = ADVANCED_FACE('', (#136), #277, .T.);
#136 = FACE_BOUND('', #137, .T.);
#137 = EDGE_LOOP('', (#138, #139, #140, #141));
#138 = ORIENTED_EDGE('', *, *, #177, .T.);
#139 = ORIENTED_EDGE('', *, *, #175, .T.);
#140 = ORIENTED_EDGE('', *, *, #173, .T.);
#141 = ORIENTED_EDGE('', *, *, #171, .T.);
#142 = EDGE_CURVE('', #178, #179, #282, .T.);
#143 = EDGE_CURVE('', #179, #180, #287, .T.);
#144 = EDGE_CURVE('', #180, #181, #292, .T.);
#145 = EDGE_CURVE('', #181, #178, #297, .T.);
#146 = EDGE_CURVE('', #182, #183, #302, .T.);
#147 = EDGE_CURVE('', #183, #184, #318, .T.);
#148 = EDGE_CURVE('', #184, #185, #335, .T.);
#149 = EDGE_CURVE('', #182, #185, #351, .T.);
#150 = EDGE_CURVE('', #186, #182, #368, .T.);
#151 = EDGE_CURVE('', #186, #187, #373, .T.);
#152 = EDGE_CURVE('', #187, #185, #378, .T.);
#153 = EDGE_CURVE('', #187, #188, #383, .T.);
#154 = EDGE_CURVE('', #188, #184, #388, .T.);
#155 = EDGE_CURVE('', #188, #189, #393, .T.);
#156 = EDGE_CURVE('', #189, #186, #398, .T.);
#157 = EDGE_CURVE('', #190, #191, #403, .T.);
#158 = EDGE_CURVE('', #192, #191, #420, .T.);
#159 = EDGE_CURVE('', #192, #193, #436, .T.);
#160 = EDGE_CURVE('', #190, #193, #453, .T.);
#161 = EDGE_CURVE('', #193, #194, #469, .T.);
#162 = EDGE_CURVE('', #195, #194, #474, .T.);
#163 = EDGE_CURVE('', #190, #195, #479, .T.);
#164 = EDGE_CURVE('', #196, #195, #484, .T.);
#165 = EDGE_CURVE('', #191, #196, #489, .T.);
#166 = EDGE_CURVE('', #194, #197, #494, .T.);
#167 = EDGE_CURVE('', #197, #196, #499, .T.);
#168 = EDGE_CURVE('', #192, #197, #504, .T.);
#169 = EDGE_CURVE('', #189, #183, #509, .T.);
#170 = EDGE_CURVE('', #178, #198, #514, .T.);
#171 = EDGE_CURVE('', #199, #198, #519, .T.);
#172 = EDGE_CURVE('', #181, #199, #524, .T.);
#173 = EDGE_CURVE('', #200, #199, #529, .T.);
#174 = EDGE_CURVE('', #180, #200, #534, .T.);
#175 = EDGE_CURVE('', #201, #200, #539, .T.);
#176 = EDGE_CURVE('', #179, #201, #544, .T.);
#177 = EDGE_CURVE('', #198, #201, #549, .T.);
#178 = VERTEX_POINT('', #554);
#179 = VERTEX_POINT('', #555);
#180 = VERTEX_POINT('', #556);
#181 = VERTEX_POINT('', #557);
#182 = VERTEX_POINT('', #558);
#183 = VERTEX_POINT('', #559);
#184 = VERTEX_POINT('', #560);
#185 = VERTEX_POINT('', #561);
#186 = VERTEX_POINT('', #562);
#187 = VERTEX_POINT('', #563);
#188 = VERTEX_POINT('', #564);
#189 = VERTEX_POINT('', #565);
#190 = VERTEX_POINT('', #566);
#191 = VERTEX_POINT('', #567);
#192 = VERTEX_POINT('', #568);
#193 = VERTEX_POINT('', #569);
#194 = VERTEX_POINT('', #570);
#195 = VERTEX_POINT('', #571);
#196 = VERTEX_POINT('', #572);
#197 = VERTEX_POINT('', #573);
#198 = VERTEX_POINT('', #574);
#199 = VERTEX_POINT('', #575);
#200 = VERTEX_POINT('', #576);
#201 = VERTEX_POINT('', #577);
#202 = PLANE('', #203);
#203 = AXIS2_PLACEMENT_3D('', #204, #205, #206);
#204 = CARTESIAN_POINT('', (153.0, -77.0, 13.0));
#205 = DIRECTION('', (0.0, 0.0, 1.0));
#206 = DIRECTION('', (-1.0, 0.0, 0.0));
#207 = PLANE('', #208);
#208 = AXIS2_PLACEMENT_3D('', #209, #210, #211);
#209 = CARTESIAN_POINT('', (150.8000001, -79.1999998, 10.0000003));
#210 = DIRECTION('', (0.0, 1.0, -0.0));
#211 = DIRECTION('', (-1.0, 0.0, 0.0));
#212 = PLANE('', #213);
#213 = AXIS2_PLACEMENT_3D('', #214, #215, #216);
#214 = CARTESIAN_POINT('', (99.2000001, -79.1999998, 10.0000003));
#215 = DIRECTION('', (-1.0, 0.0, 0.0));
#216 = DIRECTION('', (0.0, -1.0, 0.0));
#217 = PLANE('', #218);
#218 = AXIS2_PLACEMENT_3D('', #219, #220, #221);
#219 = CARTESIAN_POINT('', (150.8000001, -79.1999998, 10.0000003));
#220 = DIRECTION('', (0.0, 0.0, 1.0));
#221 = DIRECTION('', (-1.0, 0.0, 0.0));
#222 = PLANE('', #223);
#223 = AXIS2_PLACEMENT_3D('', #224, #225, #226);
#224 = CARTESIAN_POINT('', (100.4000001, -80.3999998, 5.0000003));
#225 = DIRECTION('', (-1.0, 0.0, 0.0));
#226 = DIRECTION('', (0.0, -1.0, 0.0));
#227 = PLANE('', #228);
#228 = AXIS2_PLACEMENT_3D('', #229, #230, #231);
#229 = CARTESIAN_POINT('', (149.6000001, -80.3999998, 5.0000003));
#230 = DIRECTION('', (0.0, 0.9999999999999999, -0.0));
#231 = DIRECTION('', (-0.9999999999999999, 0.0, 0.0));
#232 = PLANE('', #233);
#233 = AXIS2_PLACEMENT_3D('', #234, #235, #236);
#234 = CARTESIAN_POINT('', (149.6000001, -80.39999979999999, 13.0000003));
#235 = DIRECTION('', (0.0, 0.0, 0.9999999999999999));
#236 = DIRECTION('', (-0.9999999999999999, 0.0, 0.0));
#237 = PLANE('', #238);
#238 = AXIS2_PLACEMENT_3D('', #239, #240, #241);
#239 = CARTESIAN_POINT('', (149.6000001, -109.59999979999999, 5.0000003));
#240 = DIRECTION('', (1.0, 0.0, 0.0));
#241 = DIRECTION('', (0.0, 1.0, 0.0));
#242 = PLANE('', #243);
#243 = AXIS2_PLACEMENT_3D('', #244, #245, #246);
#244 = CARTESIAN_POINT('', (100.4000001, -109.59999979999999, 5.0000003));
#245 = DIRECTION('', (0.0, -0.9999999999999999, 0.0));
#246 = DIRECTION('', (0.9999999999999999, 0.0, 0.0));
#247 = PLANE('', #248);
#248 = AXIS2_PLACEMENT_3D('', #249, #250, #251);
#249 = CARTESIAN_POINT('', (99.2000001, -110.7999998, 10.0000003));
#250 = DIRECTION('', (0.0, -1.0, 0.0));
#251 = DIRECTION('', (1.0, 0.0, 0.0));
#252 = PLANE('', #253);
#253 = AXIS2_PLACEMENT_3D('', #254, #255, #256);
#254 = CARTESIAN_POINT('', (150.8000001, -110.7999998, 10.0000003));
#255 = DIRECTION('', (1.0, 0.0, 0.0));
#256 = DIRECTION('', (0.0, 1.0, 0.0));
#257 = PLANE('', #258);
#258 = AXIS2_PLACEMENT_3D('', #259, #260, #261);
#259 = CARTESIAN_POINT('', (153.0, -77.0, 13.0));
#260 = DIRECTION('', (0.0, 1.0, -0.0));
#261 = DIRECTION('', (-1.0, 0.0, 0.0));
#262 = PLANE('', #263);
#263 = AXIS2_PLACEMENT_3D('', #264, #265, #266);
#264 = CARTESIAN_POINT('', (153.0, -113.0, 13.0));
#265 = DIRECTION('', (1.0, 0.0, 0.0));
#266 = DIRECTION('', (0.0, 1.0, 0.0));
#267 = PLANE('', #268);
#268 = AXIS2_PLACEMENT_3D('', #269, #270, #271);
#269 = CARTESIAN_POINT('', (97.0, -113.0, 13.0));
#270 = DIRECTION('', (0.0, -1.0, 0.0));
#271 = DIRECTION('', (1.0, 0.0, 0.0));
#272 = PLANE('', #273);
#273 = AXIS2_PLACEMENT_3D('', #274, #275, #276);
#274 = CARTESIAN_POINT('', (97.0, -77.0, 13.0));
#275 = DIRECTION('', (-1.0, 0.0, 0.0));
#276 = DIRECTION('', (0.0, -1.0, 0.0));
#277 = PLANE('', #278);
#278 = AXIS2_PLACEMENT_3D('', #279, #280, #281);
#279 = CARTESIAN_POINT('', (153.0, -77.0, 15.0));
#280 = DIRECTION('', (0.0, 0.0, 1.0));
#281 = DIRECTION('', (-1.0, 0.0, 0.0));
#282 = SURFACE_CURVE('', #283, (#202, #272), .CURVE_3D.);
#283 = LINE('', #284, #285);
#284 = CARTESIAN_POINT('', (97.0, -77.0, 13.0));
#285 = VECTOR('', #286, 36.0);
#286 = DIRECTION('', (0.0, -1.0, 0.0));
#287 = SURFACE_CURVE('', #288, (#202, #267), .CURVE_3D.);
#288 = LINE('', #289, #290);
#289 = CARTESIAN_POINT('', (97.0, -113.0, 13.0));
#290 = VECTOR('', #291, 56.0);
#291 = DIRECTION('', (1.0, 0.0, 0.0));
#292 = SURFACE_CURVE('', #293, (#202, #262), .CURVE_3D.);
#293 = LINE('', #294, #295);
#294 = CARTESIAN_POINT('', (153.0, -113.0, 13.0));
#295 = VECTOR('', #296, 36.0);
#296 = DIRECTION('', (0.0, 1.0, 0.0));
#297 = SURFACE_CURVE('', #298, (#202, #257), .CURVE_3D.);
#298 = LINE('', #299, #300);
#299 = CARTESIAN_POINT('', (153.0, -77.0, 13.0));
#300 = VECTOR('', #301, 56.0);
#301 = DIRECTION('', (-1.0, 0.0, 0.0));
#302 = SURFACE_CURVE('', #303, (#202, #252), .CURVE_3D.);
#303 = INTERSECTION_CURVE('', #304, (#308, #313), .CURVE_3D.);
#304 = B_SPLINE_CURVE_WITH_KNOTS('', 1, (#305, #306, #307), .UNSPECIFIED., .U., .U., (2, 1, 2), (0.0, 0.5, 1.0), .UNSPECIFIED.);
#305 = CARTESIAN_POINT('', (150.8000001, -79.1999998, 13.0));
#306 = CARTESIAN_POINT('', (150.8000001, -87.10000217, 13.0));
#307 = CARTESIAN_POINT('', (150.8000001, -110.7999998, 13.0));
#308 = PLANE('', #309);
#309 = AXIS2_PLACEMENT_3D('', #310, #311, #312);
#310 = CARTESIAN_POINT('', (153.0, -77.0, 13.0));
#311 = DIRECTION('', (0.0, 0.0, 1.0));
#312 = DIRECTION('', (-1.0, 0.0, 0.0));
#313 = PLANE('', #314);
#314 = AXIS2_PLACEMENT_3D('', #315, #316, #317);
#315 = CARTESIAN_POINT('', (150.8000001, -110.7999998, 10.0000003));
#316 = DIRECTION('', (1.0, 0.0, 0.0));
#317 = DIRECTION('', (0.0, 1.0, 0.0));
#318 = SURFACE_CURVE('', #319, (#202, #247), .CURVE_3D.);
#319 = INTERSECTION_CURVE('', #320, (#325, #330), .CURVE_3D.);
#320 = B_SPLINE_CURVE_WITH_KNOTS('', 1, (#321, #322, #323, #324), .UNSPECIFIED., .U., .U., (2, 1, 1, 2), (0.0, 0.3333333333333333, 0.6666666666666666, 1.0), .UNSPECIFIED.);
#321 = CARTESIAN_POINT('', (150.8000001, -110.7999998, 13.0));
#322 = CARTESIAN_POINT('', (149.57777746666665, -110.7999998, 13.0));
#323 = CARTESIAN_POINT('', (137.89999623, -110.7999998, 13.0));
#324 = CARTESIAN_POINT('', (99.2000001, -110.7999998, 13.0));
#325 = PLANE('', #326);
#326 = AXIS2_PLACEMENT_3D('', #327, #328, #329);
#327 = CARTESIAN_POINT('', (153.0, -77.0, 13.0));
#328 = DIRECTION('', (0.0, 0.0, 1.0));
#329 = DIRECTION('', (-1.0, 0.0, 0.0));
#330 = PLANE('', #331);
#331 = AXIS2_PLACEMENT_3D('', #332, #333, #334);
#332 = CARTESIAN_POINT('', (99.2000001, -110.7999998, 10.0000003));
#333 = DIRECTION('', (0.0, -1.0, 0.0));
#334 = DIRECTION('', (1.0, 0.0, 0.0));
#335 = SURFACE_CURVE('', #336, (#202, #212), .CURVE_3D.);
#336 = INTERSECTION_CURVE('', #337, (#341, #346), .CURVE_3D.);
#337 = B_SPLINE_CURVE_WITH_KNOTS('', 1, (#338, #339, #340), .UNSPECIFIED., .U., .U., (2, 1, 2), (0.0, 0.5, 1.0), .UNSPECIFIED.);
#338 = CARTESIAN_POINT('', (99.2000001, -110.7999998, 13.0));
#339 = CARTESIAN_POINT('', (99.20000009999998, -102.89999743, 13.0));
#340 = CARTESIAN_POINT('', (99.2000001, -79.1999998, 13.0));
#341 = PLANE('', #342);
#342 = AXIS2_PLACEMENT_3D('', #343, #344, #345);
#343 = CARTESIAN_POINT('', (153.0, -77.0, 13.0));
#344 = DIRECTION('', (0.0, 0.0, 1.0));
#345 = DIRECTION('', (-1.0, 0.0, 0.0));
#346 = PLANE('', #347);
#347 = AXIS2_PLACEMENT_3D('', #348, #349, #350);
#348 = CARTESIAN_POINT('', (99.2000001, -79.1999998, 10.0000003));
#349 = DIRECTION('', (-1.0, 0.0, 0.0));
#350 = DIRECTION('', (0.0, -1.0, 0.0));
#351 = SURFACE_CURVE('', #352, (#202, #207), .CURVE_3D.);
#352 = INTERSECTION_CURVE('', #353, (#358, #363), .CURVE_3D.);
#353 = B_SPLINE_CURVE_WITH_KNOTS('', 1, (#354, #355, #356, #357), .UNSPECIFIED., .U., .U., (2, 1, 1, 2), (0.0, 0.3333333333333333, 0.6666666666666666, 1.0), .UNSPECIFIED.);
#354 = CARTESIAN_POINT('', (150.8000001, -79.1999998, 13.0));
#355 = CARTESIAN_POINT('', (112.10000396999999, -79.1999998, 13.0));
#356 = CARTESIAN_POINT('', (100.42222191111111, -79.1999998, 13.0));
#357 = CARTESIAN_POINT('', (99.2000001, -79.1999998, 13.0));
#358 = PLANE('', #359);
#359 = AXIS2_PLACEMENT_3D('', #360, #361, #362);
#360 = CARTESIAN_POINT('', (153.0, -77.0, 13.0));
#361 = DIRECTION('', (0.0, 0.0, 1.0));
#362 = DIRECTION('', (-1.0, 0.0, 0.0));
#363 = PLANE('', #364);
#364 = AXIS2_PLACEMENT_3D('', #365, #366, #367);
#365 = CARTESIAN_POINT('', (150.8000001, -79.1999998, 10.0000003));
#366 = DIRECTION('', (0.0, 1.0, -0.0));
#367 = DIRECTION('', (-1.0, 0.0, 0.0));
#368 = SURFACE_CURVE('', #369, (#207, #252), .CURVE_3D.);
#369 = LINE('', #370, #371);
#370 = CARTESIAN_POINT('', (150.8000001, -79.1999998, 10.0000003));
#371 = VECTOR('', #372, 2.9999997);
#372 = DIRECTION('', (0.0, 0.0, 1.0));
#373 = SURFACE_CURVE('', #374, (#207, #217), .CURVE_3D.);
#374 = LINE('', #375, #376);
#375 = CARTESIAN_POINT('', (150.8000001, -79.1999998, 10.0000003));
#376 = VECTOR('', #377, 51.60000000000001);
#377 = DIRECTION('', (-1.0, 0.0, 0.0));
#378 = SURFACE_CURVE('', #379, (#207, #212), .CURVE_3D.);
#379 = LINE('', #380, #381);
#380 = CARTESIAN_POINT('', (99.2000001, -79.1999998, 10.0000003));
#381 = VECTOR('', #382, 2.9999997);
#382 = DIRECTION('', (0.0, 0.0, 1.0));
#383 = SURFACE_CURVE('', #384, (#212, #217), .CURVE_3D.);
#384 = LINE('', #385, #386);
#385 = CARTESIAN_POINT('', (99.2000001, -79.1999998, 10.0000003));
#386 = VECTOR('', #387, 31.599999999999994);
#387 = DIRECTION('', (0.0, -1.0, 0.0));
#388 = SURFACE_CURVE('', #389, (#212, #247), .CURVE_3D.);
#389 = LINE('', #390, #391);
#390 = CARTESIAN_POINT('', (99.2000001, -110.7999998, 10.0000003));
#391 = VECTOR('', #392, 2.9999997);
#392 = DIRECTION('', (0.0, 0.0, 1.0));
#393 = SURFACE_CURVE('', #394, (#217, #247), .CURVE_3D.);
#394 = LINE('', #395, #396);
#395 = CARTESIAN_POINT('', (99.2000001, -110.7999998, 10.0000003));
#396 = VECTOR('', #397, 51.60000000000001);
#397 = DIRECTION('', (1.0, 0.0, 0.0));
#398 = SURFACE_CURVE('', #399, (#217, #252), .CURVE_3D.);
#399 = LINE('', #400, #401);
#400 = CARTESIAN_POINT('', (150.8000001, -110.7999998, 10.0000003));
#401 = VECTOR('', #402, 31.599999999999994);
#402 = DIRECTION('', (0.0, 1.0, 0.0));
#403 = SURFACE_CURVE('', #404, (#217, #227), .CURVE_3D.);
#404 = INTERSECTION_CURVE('', #405, (#410, #415), .CURVE_3D.);
#405 = B_SPLINE_CURVE_WITH_KNOTS('', 1, (#406, #407, #408, #409), .UNSPECIFIED., .U., .U., (2, 1, 1, 2), (0.0, 0.3333333333333333, 0.6666666666666666, 1.0), .UNSPECIFIED.);
#406 = CARTESIAN_POINT('', (100.4000001, -80.3999998, 10.0000003));
#407 = CARTESIAN_POINT('', (101.15949377088609, -80.3999998, 10.0000003));
#408 = CARTESIAN_POINT('', (118.8500001, -80.3999998, 10.0000003));
#409 = CARTESIAN_POINT('', (149.6000001, -80.3999998, 10.0000003));
#410 = PLANE('', #411);
#411 = AXIS2_PLACEMENT_3D('', #412, #413, #414);
#412 = CARTESIAN_POINT('', (150.8000001, -79.1999998, 10.0000003));
#413 = DIRECTION('', (0.0, 0.0, 1.0));
#414 = DIRECTION('', (-1.0, 0.0, 0.0));
#415 = PLANE('', #416);
#416 = AXIS2_PLACEMENT_3D('', #417, #418, #419);
#417 = CARTESIAN_POINT('', (149.6000001, -80.3999998, 5.0000003));
#418 = DIRECTION('', (0.0, 0.9999999999999999, -0.0));
#419 = DIRECTION('', (-0.9999999999999999, 0.0, 0.0));
#420 = SURFACE_CURVE('', #421, (#217, #237), .CURVE_3D.);
#421 = INTERSECTION_CURVE('', #422, (#426, #431), .CURVE_3D.);
#422 = B_SPLINE_CURVE_WITH_KNOTS('', 1, (#423, #424, #425), .UNSPECIFIED., .U., .U., (2, 1, 2), (0.0, 0.5, 1.0), .UNSPECIFIED.);
#423 = CARTESIAN_POINT('', (149.6000001, -109.59999979999999, 10.0000003));
#424 = CARTESIAN_POINT('', (149.6000001, -91.3499998, 10.0000003));
#425 = CARTESIAN_POINT('', (149.6000001, -80.3999998, 10.0000003));
#426 = PLANE('', #427);
#427 = AXIS2_PLACEMENT_3D('', #428, #429, #430);
#428 = CARTESIAN_POINT('', (150.8000001, -79.1999998, 10.0000003));
#429 = DIRECTION('', (0.0, 0.0, 1.0));
#430 = DIRECTION('', (-1.0, 0.0, 0.0));
#431 = PLANE('', #432);
#432 = AXIS2_PLACEMENT_3D('', #433, #434, #435);
#433 = CARTESIAN_POINT('', (149.6000001, -109.59999979999999, 5.0000003));
#434 = DIRECTION('', (1.0, 0.0, 0.0));
#435 = DIRECTION('', (0.0, 1.0, 0.0));
#436 = SURFACE_CURVE('', #437, (#217, #242), .CURVE_3D.);
#437 = INTERSECTION_CURVE('', #438, (#443, #448), .CURVE_3D.);
#438 = B_SPLINE_CURVE_WITH_KNOTS('', 1, (#439, #440, #441, #442), .UNSPECIFIED., .U., .U., (2, 1, 1, 2), (0.0, 0.3333333333333333, 0.6666666666666666, 1.0), .UNSPECIFIED.);
#439 = CARTESIAN_POINT('', (149.6000001, -109.59999979999999, 10.0000003));
#440 = CARTESIAN_POINT('', (148.84050642911393, -109.59999979999999, 10.0000003));
#441 = CARTESIAN_POINT('', (131.1500001, -109.59999979999999, 10.0000003));
#442 = CARTESIAN_POINT('', (100.4000001, -109.59999979999999, 10.0000003));
#443 = PLANE('', #444);
#444 = AXIS2_PLACEMENT_3D('', #445, #446, #447);
#445 = CARTESIAN_POINT('', (150.8000001, -79.1999998, 10.0000003));
#446 = DIRECTION('', (0.0, 0.0, 1.0));
#447 = DIRECTION('', (-1.0, 0.0, 0.0));
#448 = PLANE('', #449);
#449 = AXIS2_PLACEMENT_3D('', #450, #451, #452);
#450 = CARTESIAN_POINT('', (100.4000001, -109.59999979999999, 5.0000003));
#451 = DIRECTION('', (0.0, -0.9999999999999999, 0.0));
#452 = DIRECTION('', (0.9999999999999999, 0.0, 0.0));
#453 = SURFACE_CURVE('', #454, (#217, #222), .CURVE_3D.);
#454 = INTERSECTION_CURVE('', #455, (#459, #464), .CURVE_3D.);
#455 = B_SPLINE_CURVE_WITH_KNOTS('', 1, (#456, #457, #458), .UNSPECIFIED., .U., .U., (2, 1, 2), (0.0, 0.5, 1.0), .UNSPECIFIED.);
#456 = CARTESIAN_POINT('', (100.4000001, -80.3999998, 10.0000003));
#457 = CARTESIAN_POINT('', (100.4000001, -98.64999979999999, 10.0000003));
#458 = CARTESIAN_POINT('', (100.4000001, -109.59999979999999, 10.0000003));
#459 = PLANE('', #460);
#460 = AXIS2_PLACEMENT_3D('', #461, #462, #463);
#461 = CARTESIAN_POINT('', (150.8000001, -79.1999998, 10.0000003));
#462 = DIRECTION('', (0.0, 0.0, 1.0));
#463 = DIRECTION('', (-1.0, 0.0, 0.0));
#464 = PLANE('', #465);
#465 = AXIS2_PLACEMENT_3D('', #466, #467, #468);
#466 = CARTESIAN_POINT('', (100.4000001, -80.3999998, 5.0000003));
#467 = DIRECTION('', (-1.0, 0.0, 0.0));
#468 = DIRECTION('', (0.0, -1.0, 0.0));
#469 = SURFACE_CURVE('', #470, (#222, #242), .CURVE_3D.);
#470 = LINE('', #471, #472);
#471 = CARTESIAN_POINT('', (100.4000001, -109.59999979999999, 10.0000003));
#472 = VECTOR('', #473, 3.0);
#473 = DIRECTION('', (0.0, 0.0, 1.0));
#474 = SURFACE_CURVE('', #475, (#222, #232), .CURVE_3D.);
#475 = LINE('', #476, #477);
#476 = CARTESIAN_POINT('', (100.4000001, -80.3999998, 13.0000003));
#477 = VECTOR('', #478, 29.19999999999999);
#478 = DIRECTION('', (0.0, -1.0, 0.0));
#479 = SURFACE_CURVE('', #480, (#222, #227), .CURVE_3D.);
#480 = LINE('', #481, #482);
#481 = CARTESIAN_POINT('', (100.4000001, -80.3999998, 10.0000003));
#482 = VECTOR('', #483, 3.0);
#483 = DIRECTION('', (0.0, 0.0, 1.0));
#484 = SURFACE_CURVE('', #485, (#227, #232), .CURVE_3D.);
#485 = LINE('', #486, #487);
#486 = CARTESIAN_POINT('', (149.6000001, -80.3999998, 13.0000003));
#487 = VECTOR('', #488, 49.19999999999999);
#488 = DIRECTION('', (-1.0, 0.0, 0.0));
#489 = SURFACE_CURVE('', #490, (#227, #237), .CURVE_3D.);
#490 = LINE('', #491, #492);
#491 = CARTESIAN_POINT('', (149.6000001, -80.3999998, 10.0000003));
#492 = VECTOR('', #493, 3.0);
#493 = DIRECTION('', (0.0, 0.0, 1.0));
#494 = SURFACE_CURVE('', #495, (#232, #242), .CURVE_3D.);
#495 = LINE('', #496, #497);
#496 = CARTESIAN_POINT('', (100.4000001, -109.59999979999999, 13.0000003));
#497 = VECTOR('', #498, 49.19999999999999);
#498 = DIRECTION('', (1.0, 0.0, 0.0));
#499 = SURFACE_CURVE('', #500, (#232, #237), .CURVE_3D.);
#500 = LINE('', #501, #502);
#501 = CARTESIAN_POINT('', (149.6000001, -109.59999979999999, 13.0000003));
#502 = VECTOR('', #503, 29.19999999999999);
#503 = DIRECTION('', (0.0, 1.0, 0.0));
#504 = SURFACE_CURVE('', #505, (#237, #242), .CURVE_3D.);
#505 = LINE('', #506, #507);
#506 = CARTESIAN_POINT('', (149.6000001, -109.59999979999999, 10.0000003));
#507 = VECTOR('', #508, 3.0);
#508 = DIRECTION('', (0.0, 0.0, 1.0));
#509 = SURFACE_CURVE('', #510, (#247, #252), .CURVE_3D.);
#510 = LINE('', #511, #512);
#511 = CARTESIAN_POINT('', (150.8000001, -110.7999998, 10.0000003));
#512 = VECTOR('', #513, 2.9999997);
#513 = DIRECTION('', (0.0, 0.0, 1.0));
#514 = SURFACE_CURVE('', #515, (#257, #272), .CURVE_3D.);
#515 = LINE('', #516, #517);
#516 = CARTESIAN_POINT('', (97.0, -77.0, 13.0));
#517 = VECTOR('', #518, 2.0);
#518 = DIRECTION('', (0.0, 0.0, 1.0));
#519 = SURFACE_CURVE('', #520, (#257, #277), .CURVE_3D.);
#520 = LINE('', #521, #522);
#521 = CARTESIAN_POINT('', (153.0, -77.0, 15.0));
#522 = VECTOR('', #523, 56.0);
#523 = DIRECTION('', (-1.0, 0.0, 0.0));
#524 = SURFACE_CURVE('', #525, (#257, #262), .CURVE_3D.);
#525 = LINE('', #526, #527);
#526 = CARTESIAN_POINT('', (153.0, -77.0, 13.0));
#527 = VECTOR('', #528, 2.0);
#528 = DIRECTION('', (0.0, 0.0, 1.0));
#529 = SURFACE_CURVE('', #530, (#262, #277), .CURVE_3D.);
#530 = LINE('', #531, #532);
#531 = CARTESIAN_POINT('', (153.0, -113.0, 15.0));
#532 = VECTOR('', #533, 36.0);
#533 = DIRECTION('', (0.0, 1.0, 0.0));
#534 = SURFACE_CURVE('', #535, (#262, #267), .CURVE_3D.);
#535 = LINE('', #536, #537);
#536 = CARTESIAN_POINT('', (153.0, -113.0, 13.0));
#537 = VECTOR('', #538, 2.0);
#538 = DIRECTION('', (0.0, 0.0, 1.0));
#539 = SURFACE_CURVE('', #540, (#267, #277), .CURVE_3D.);
#540 = LINE('', #541, #542);
#541 = CARTESIAN_POINT('', (97.0, -113.0, 15.0));
#542 = VECTOR('', #543, 56.0);
#543 = DIRECTION('', (1.0, 0.0, 0.0));
#544 = SURFACE_CURVE('', #545, (#267, #272), .CURVE_3D.);
#545 = LINE('', #546, #547);
#546 = CARTESIAN_POINT('', (97.0, -113.0, 13.0));
#547 = VECTOR('', #548, 2.0);
#548 = DIRECTION('', (0.0, 0.0, 1.0));
#549 = SURFACE_CURVE('', #550, (#272, #277), .CURVE_3D.);
#550 = LINE('', #551, #552);
#551 = CARTESIAN_POINT('', (97.0, -77.0, 15.0));
#552 = VECTOR('', #553, 36.0);
#553 = DIRECTION('', (0.0, -1.0, 0.0));
#554 = CARTESIAN_POINT('', (97.0, -77.0, 13.0));
#555 = CARTESIAN_POINT('', (97.0, -113.0, 13.0));
#556 = CARTESIAN_POINT('', (153.0, -113.0, 13.0));
#557 = CARTESIAN_POINT('', (153.0, -77.0, 13.0));
#558 = CARTESIAN_POINT('', (150.8000001, -79.1999998, 13.0));
#559 = CARTESIAN_POINT('', (150.8000001, -110.7999998, 13.0));
#560 = CARTESIAN_POINT('', (99.2000001, -110.7999998, 13.0));
#561 = CARTESIAN_POINT('', (99.2000001, -79.1999998, 13.0));
#562 = CARTESIAN_POINT('', (150.8000001, -79.1999998, 10.0000003));
#563 = CARTESIAN_POINT('', (99.2000001, -79.1999998, 10.0000003));
#564 = CARTESIAN_POINT('', (99.2000001, -110.7999998, 10.0000003));
#565 = CARTESIAN_POINT('', (150.8000001, -110.7999998, 10.0000003));
#566 = CARTESIAN_POINT('', (100.4000001, -80.3999998, 10.0000003));
#567 = CARTESIAN_POINT('', (149.6000001, -80.3999998, 10.0000003));
#568 = CARTESIAN_POINT('', (149.6000001, -109.59999979999999, 10.0000003));
#569 = CARTESIAN_POINT('', (100.4000001, -109.59999979999999, 10.0000003));
#570 = CARTESIAN_POINT('', (100.4000001, -109.59999979999999, 13.0000003));
#571 = CARTESIAN_POINT('', (100.4000001, -80.3999998, 13.0000003));
#572 = CARTESIAN_POINT('', (149.6000001, -80.3999998, 13.0000003));
#573 = CARTESIAN_POINT('', (149.6000001, -109.59999979999999, 13.0000003));
#574 = CARTESIAN_POINT('', (97.0, -77.0, 15.0));
#575 = CARTESIAN_POINT('', (153.0, -77.0, 15.0));
#576 = CARTESIAN_POINT('', (153.0, -113.0, 15.0));
#577 = CARTESIAN_POINT('', (97.0, -113.0, 15.0));
ENDSEC;
END-ISO-10303-21;
