ISO-10303-21;
HEADER;
FILE_DESCRIPTION(('Shape Data from monstertruck'), '2;1');
FILE_NAME('', '2026-09-01 02:55:36.771178380', (''), (''), 'monstertruck', 'KiCase', '');
FILE_SCHEMA(('AUTOMOTIVE_DESIGN'));
ENDSEC;
DATA;
#1 = APPLICATION_PROTOCOL_DEFINITION('international standard', 'automotive_design', 2000, #2);
#2 = APPLICATION_CONTEXT('core data for automotive mechanical design processes');
#3 = SHAPE_DEFINITION_REPRESENTATION(#4, #10);
#4 = PRODUCT_DEFINITION_SHAPE('','', #5);
#5 = PRODUCT_DEFINITION('design','', #6, #9);
#6 = PRODUCT_DEFINITION_FORMATION('','', #7);
#7 = PRODUCT('','','', (#8));
#8 = PRODUCT_CONTEXT('', #2, 'mechanical');
#9 = PRODUCT_DEFINITION_CONTEXT('part definition', #2, 'design');
#10 = ADVANCED_BREP_SHAPE_REPRESENTATION('', (#16), #11);
#11 = (
    GEOMETRIC_REPRESENTATION_CONTEXT(3) 
    GLOBAL_UNCERTAINTY_ASSIGNED_CONTEXT((#15))
    GLOBAL_UNIT_ASSIGNED_CONTEXT((#12, #13, #14))
    REPRESENTATION_CONTEXT('Context #1', '3D Context with UNIT and UNCERTAINTY')
);
#12 = ( LENGTH_UNIT() NAMED_UNIT(*) SI_UNIT(.MILLI.,.METRE.) );
#13 = ( NAMED_UNIT(*) PLANE_ANGLE_UNIT() SI_UNIT($,.RADIAN.) );
#14 = ( NAMED_UNIT(*) SI_UNIT($,.STERADIAN.) SOLID_ANGLE_UNIT() );
#15 = UNCERTAINTY_MEASURE_WITH_UNIT(LENGTH_MEASURE(1.0E-6), #12, 'distance_accuracy_value','confusion accuracy');
#16 = MANIFOLD_SOLID_BREP('', #17);
#17 = CLOSED_SHELL('', (#18, #25, #32, #45, #52, #59, #66, #73, #80, #87, #94));
#18 = ADVANCED_FACE('', (#19), #141, .F.);
#19 = FACE_BOUND('', #20, .F.);
#20 = EDGE_LOOP('', (#21, #22, #23, #24));
#21 = ORIENTED_EDGE('', *, *, #101, .T.);
#22 = ORIENTED_EDGE('', *, *, #102, .T.);
#23 = ORIENTED_EDGE('', *, *, #103, .T.);
#24 = ORIENTED_EDGE('', *, *, #104, .T.);
#25 = ADVANCED_FACE('', (#26), #146, .T.);
#26 = FACE_BOUND('', #27, .T.);
#27 = EDGE_LOOP('', (#28, #29, #30, #31));
#28 = ORIENTED_EDGE('', *, *, #104, .T.);
#29 = ORIENTED_EDGE('', *, *, #105, .T.);
#30 = ORIENTED_EDGE('', *, *, #106, .F.);
#31 = ORIENTED_EDGE('', *, *, #107, .F.);
#32 = ADVANCED_FACE('', (#33, #39), #151, .T.);
#33 = FACE_BOUND('', #34, .T.);
#34 = EDGE_LOOP('', (#35, #36, #37, #38));
#35 = ORIENTED_EDGE('', *, *, #108, .T.);
#36 = ORIENTED_EDGE('', *, *, #109, .T.);
#37 = ORIENTED_EDGE('', *, *, #110, .T.);
#38 = ORIENTED_EDGE('', *, *, #106, .T.);
#39 = FACE_BOUND('', #40, .T.);
#40 = EDGE_LOOP('', (#41, #42, #43, #44));
#41 = ORIENTED_EDGE('', *, *, #111, .T.);
#42 = ORIENTED_EDGE('', *, *, #112, .T.);
#43 = ORIENTED_EDGE('', *, *, #113, .F.);
#44 = ORIENTED_EDGE('', *, *, #114, .T.);
#45 = ADVANCED_FACE('', (#46), #156, .F.);
#46 = FACE_BOUND('', #47, .F.);
#47 = EDGE_LOOP('', (#48, #49, #50, #51));
#48 = ORIENTED_EDGE('', *, *, #114, .T.);
#49 = ORIENTED_EDGE('', *, *, #115, .F.);
#50 = ORIENTED_EDGE('', *, *, #116, .T.);
#51 = ORIENTED_EDGE('', *, *, #117, .T.);
#52 = ADVANCED_FACE('', (#53), #161, .F.);
#53 = FACE_BOUND('', #54, .F.);
#54 = EDGE_LOOP('', (#55, #56, #57, #58));
#55 = ORIENTED_EDGE('', *, *, #117, .F.);
#56 = ORIENTED_EDGE('', *, *, #118, .T.);
#57 = ORIENTED_EDGE('', *, *, #119, .T.);
#58 = ORIENTED_EDGE('', *, *, #113, .F.);
#59 = ADVANCED_FACE('', (#60), #166, .F.);
#60 = FACE_BOUND('', #61, .F.);
#61 = EDGE_LOOP('', (#62, #63, #64, #65));
#62 = ORIENTED_EDGE('', *, *, #112, .T.);
#63 = ORIENTED_EDGE('', *, *, #119, .F.);
#64 = ORIENTED_EDGE('', *, *, #120, .T.);
#65 = ORIENTED_EDGE('', *, *, #121, .T.);
#66 = ADVANCED_FACE('', (#67), #171, .F.);
#67 = FACE_BOUND('', #68, .F.);
#68 = EDGE_LOOP('', (#69, #70, #71, #72));
#69 = ORIENTED_EDGE('', *, *, #111, .T.);
#70 = ORIENTED_EDGE('', *, *, #121, .F.);
#71 = ORIENTED_EDGE('', *, *, #122, .T.);
#72 = ORIENTED_EDGE('', *, *, #115, .T.);
#73 = ADVANCED_FACE('', (#74), #176, .T.);
#74 = FACE_BOUND('', #75, .T.);
#75 = EDGE_LOOP('', (#76, #77, #78, #79));
#76 = ORIENTED_EDGE('', *, *, #116, .T.);
#77 = ORIENTED_EDGE('', *, *, #118, .T.);
#78 = ORIENTED_EDGE('', *, *, #120, .T.);
#79 = ORIENTED_EDGE('', *, *, #122, .T.);
#80 = ADVANCED_FACE('', (#81), #181, .T.);
#81 = FACE_BOUND('', #82, .T.);
#82 = EDGE_LOOP('', (#83, #84, #85, #86));
#83 = ORIENTED_EDGE('', *, *, #103, .T.);
#84 = ORIENTED_EDGE('', *, *, #107, .T.);
#85 = ORIENTED_EDGE('', *, *, #110, .F.);
#86 = ORIENTED_EDGE('', *, *, #123, .F.);
#87 = ADVANCED_FACE('', (#88), #186, .T.);
#88 = FACE_BOUND('', #89, .T.);
#89 = EDGE_LOOP('', (#90, #91, #92, #93));
#90 = ORIENTED_EDGE('', *, *, #102, .T.);
#91 = ORIENTED_EDGE('', *, *, #123, .T.);
#92 = ORIENTED_EDGE('', *, *, #109, .F.);
#93 = ORIENTED_EDGE('', *, *, #124, .F.);
#94 = ADVANCED_FACE('', (#95), #191, .T.);
#95 = FACE_BOUND('', #96, .T.);
#96 = EDGE_LOOP('', (#97, #98, #99, #100));
#97 = ORIENTED_EDGE('', *, *, #101, .T.);
#98 = ORIENTED_EDGE('', *, *, #124, .T.);
#99 = ORIENTED_EDGE('', *, *, #108, .F.);
#100 = ORIENTED_EDGE('', *, *, #105, .F.);
#101 = EDGE_CURVE('', #125, #126, #196, .T.);
#102 = EDGE_CURVE('', #126, #127, #201, .T.);
#103 = EDGE_CURVE('', #127, #128, #206, .T.);
#104 = EDGE_CURVE('', #128, #125, #211, .T.);
#105 = EDGE_CURVE('', #125, #129, #216, .T.);
#106 = EDGE_CURVE('', #130, #129, #221, .T.);
#107 = EDGE_CURVE('', #128, #130, #226, .T.);
#108 = EDGE_CURVE('', #129, #131, #231, .T.);
#109 = EDGE_CURVE('', #131, #132, #236, .T.);
#110 = EDGE_CURVE('', #132, #130, #241, .T.);
#111 = EDGE_CURVE('', #133, #134, #246, .T.);
#112 = EDGE_CURVE('', #134, #135, #263, .T.);
#113 = EDGE_CURVE('', #136, #135, #279, .T.);
#114 = EDGE_CURVE('', #136, #133, #296, .T.);
#115 = EDGE_CURVE('', #137, #133, #312, .T.);
#116 = EDGE_CURVE('', #137, #138, #317, .T.);
#117 = EDGE_CURVE('', #138, #136, #322, .T.);
#118 = EDGE_CURVE('', #138, #139, #327, .T.);
#119 = EDGE_CURVE('', #139, #135, #332, .T.);
#120 = EDGE_CURVE('', #139, #140, #337, .T.);
#121 = EDGE_CURVE('', #140, #134, #342, .T.);
#122 = EDGE_CURVE('', #140, #137, #347, .T.);
#123 = EDGE_CURVE('', #127, #132, #352, .T.);
#124 = EDGE_CURVE('', #126, #131, #357, .T.);
#125 = VERTEX_POINT('', #362);
#126 = VERTEX_POINT('', #363);
#127 = VERTEX_POINT('', #364);
#128 = VERTEX_POINT('', #365);
#129 = VERTEX_POINT('', #366);
#130 = VERTEX_POINT('', #367);
#131 = VERTEX_POINT('', #368);
#132 = VERTEX_POINT('', #369);
#133 = VERTEX_POINT('', #370);
#134 = VERTEX_POINT('', #371);
#135 = VERTEX_POINT('', #372);
#136 = VERTEX_POINT('', #373);
#137 = VERTEX_POINT('', #374);
#138 = VERTEX_POINT('', #375);
#139 = VERTEX_POINT('', #376);
#140 = VERTEX_POINT('', #377);
#141 = PLANE('', #142);
#142 = AXIS2_PLACEMENT_3D('', #143, #144, #145);
#143 = CARTESIAN_POINT('', (153.0, -77.0, 0.0));
#144 = DIRECTION('', (0.0, 0.0, 1.0));
#145 = DIRECTION('', (-1.0, 0.0, 0.0));
#146 = PLANE('', #147);
#147 = AXIS2_PLACEMENT_3D('', #148, #149, #150);
#148 = CARTESIAN_POINT('', (153.0, -77.0, 0.0));
#149 = DIRECTION('', (0.0, 1.0, -0.0));
#150 = DIRECTION('', (-1.0, 0.0, 0.0));
#151 = PLANE('', #152);
#152 = AXIS2_PLACEMENT_3D('', #153, #154, #155);
#153 = CARTESIAN_POINT('', (153.0, -77.0, 13.0));
#154 = DIRECTION('', (0.0, 0.0, 1.0));
#155 = DIRECTION('', (-1.0, 0.0, 0.0));
#156 = PLANE('', #157);
#157 = AXIS2_PLACEMENT_3D('', #158, #159, #160);
#158 = CARTESIAN_POINT('', (99.0000001, -78.9999998, 2.0000003));
#159 = DIRECTION('', (-1.0, 0.0, 0.0));
#160 = DIRECTION('', (0.0, -1.0, 0.0));
#161 = PLANE('', #162);
#162 = AXIS2_PLACEMENT_3D('', #163, #164, #165);
#163 = CARTESIAN_POINT('', (99.0000001, -110.9999998, 2.0000003));
#164 = DIRECTION('', (0.0, -1.0, 0.0));
#165 = DIRECTION('', (1.0, 0.0, 0.0));
#166 = PLANE('', #167);
#167 = AXIS2_PLACEMENT_3D('', #168, #169, #170);
#168 = CARTESIAN_POINT('', (151.0000001, -110.9999998, 2.0000003));
#169 = DIRECTION('', (1.0, 0.0, 0.0));
#170 = DIRECTION('', (0.0, 1.0, 0.0));
#171 = PLANE('', #172);
#172 = AXIS2_PLACEMENT_3D('', #173, #174, #175);
#173 = CARTESIAN_POINT('', (151.0000001, -78.9999998, 2.0000003));
#174 = DIRECTION('', (0.0, 1.0, -0.0));
#175 = DIRECTION('', (-1.0, 0.0, 0.0));
#176 = PLANE('', #177);
#177 = AXIS2_PLACEMENT_3D('', #178, #179, #180);
#178 = CARTESIAN_POINT('', (151.0000001, -78.9999998, 2.0000003));
#179 = DIRECTION('', (0.0, 0.0, 1.0));
#180 = DIRECTION('', (-1.0, 0.0, 0.0));
#181 = PLANE('', #182);
#182 = AXIS2_PLACEMENT_3D('', #183, #184, #185);
#183 = CARTESIAN_POINT('', (153.0, -113.0, 0.0));
#184 = DIRECTION('', (1.0, 0.0, 0.0));
#185 = DIRECTION('', (0.0, 1.0, 0.0));
#186 = PLANE('', #187);
#187 = AXIS2_PLACEMENT_3D('', #188, #189, #190);
#188 = CARTESIAN_POINT('', (97.0, -113.0, 0.0));
#189 = DIRECTION('', (0.0, -1.0, 0.0));
#190 = DIRECTION('', (1.0, 0.0, 0.0));
#191 = PLANE('', #192);
#192 = AXIS2_PLACEMENT_3D('', #193, #194, #195);
#193 = CARTESIAN_POINT('', (97.0, -77.0, 0.0));
#194 = DIRECTION('', (-1.0, 0.0, 0.0));
#195 = DIRECTION('', (0.0, -1.0, 0.0));
#196 = SURFACE_CURVE('', #197, (#141, #191), .CURVE_3D.);
#197 = LINE('', #198, #199);
#198 = CARTESIAN_POINT('', (97.0, -77.0, 0.0));
#199 = VECTOR('', #200, 36.0);
#200 = DIRECTION('', (0.0, -1.0, 0.0));
#201 = SURFACE_CURVE('', #202, (#141, #186), .CURVE_3D.);
#202 = LINE('', #203, #204);
#203 = CARTESIAN_POINT('', (97.0, -113.0, 0.0));
#204 = VECTOR('', #205, 56.0);
#205 = DIRECTION('', (1.0, 0.0, 0.0));
#206 = SURFACE_CURVE('', #207, (#141, #181), .CURVE_3D.);
#207 = LINE('', #208, #209);
#208 = CARTESIAN_POINT('', (153.0, -113.0, 0.0));
#209 = VECTOR('', #210, 36.0);
#210 = DIRECTION('', (0.0, 1.0, 0.0));
#211 = SURFACE_CURVE('', #212, (#141, #146), .CURVE_3D.);
#212 = LINE('', #213, #214);
#213 = CARTESIAN_POINT('', (153.0, -77.0, 0.0));
#214 = VECTOR('', #215, 56.0);
#215 = DIRECTION('', (-1.0, 0.0, 0.0));
#216 = SURFACE_CURVE('', #217, (#146, #191), .CURVE_3D.);
#217 = LINE('', #218, #219);
#218 = CARTESIAN_POINT('', (97.0, -77.0, 0.0));
#219 = VECTOR('', #220, 13.0);
#220 = DIRECTION('', (0.0, 0.0, 1.0));
#221 = SURFACE_CURVE('', #222, (#146, #151), .CURVE_3D.);
#222 = LINE('', #223, #224);
#223 = CARTESIAN_POINT('', (153.0, -77.0, 13.0));
#224 = VECTOR('', #225, 56.0);
#225 = DIRECTION('', (-1.0, 0.0, 0.0));
#226 = SURFACE_CURVE('', #227, (#146, #181), .CURVE_3D.);
#227 = LINE('', #228, #229);
#228 = CARTESIAN_POINT('', (153.0, -77.0, 0.0));
#229 = VECTOR('', #230, 13.0);
#230 = DIRECTION('', (0.0, 0.0, 1.0));
#231 = SURFACE_CURVE('', #232, (#151, #191), .CURVE_3D.);
#232 = LINE('', #233, #234);
#233 = CARTESIAN_POINT('', (97.0, -77.0, 13.0));
#234 = VECTOR('', #235, 36.0);
#235 = DIRECTION('', (0.0, -1.0, 0.0));
#236 = SURFACE_CURVE('', #237, (#151, #186), .CURVE_3D.);
#237 = LINE('', #238, #239);
#238 = CARTESIAN_POINT('', (97.0, -113.0, 13.0));
#239 = VECTOR('', #240, 56.0);
#240 = DIRECTION('', (1.0, 0.0, 0.0));
#241 = SURFACE_CURVE('', #242, (#151, #181), .CURVE_3D.);
#242 = LINE('', #243, #244);
#243 = CARTESIAN_POINT('', (153.0, -113.0, 13.0));
#244 = VECTOR('', #245, 36.0);
#245 = DIRECTION('', (0.0, 1.0, 0.0));
#246 = SURFACE_CURVE('', #247, (#151, #171), .CURVE_3D.);
#247 = INTERSECTION_CURVE('', #248, (#253, #258), .CURVE_3D.);
#248 = B_SPLINE_CURVE_WITH_KNOTS('', 1, (#249, #250, #251, #252), .UNSPECIFIED., .U., .U., (2, 1, 1, 2), (0.0, 0.3333333333333333, 0.6666666666666666, 1.0), .UNSPECIFIED.);
#249 = CARTESIAN_POINT('', (99.0000001, -78.9999998, 13.0));
#250 = CARTESIAN_POINT('', (100.1111108, -78.9999998, 13.0));
#251 = CARTESIAN_POINT('', (115.250001075, -78.9999998, 13.0));
#252 = CARTESIAN_POINT('', (151.0000001, -78.9999998, 13.0));
#253 = PLANE('', #254);
#254 = AXIS2_PLACEMENT_3D('', #255, #256, #257);
#255 = CARTESIAN_POINT('', (153.0, -77.0, 13.0));
#256 = DIRECTION('', (0.0, 0.0, 1.0));
#257 = DIRECTION('', (-1.0, 0.0, 0.0));
#258 = PLANE('', #259);
#259 = AXIS2_PLACEMENT_3D('', #260, #261, #262);
#260 = CARTESIAN_POINT('', (151.0000001, -78.9999998, 2.0000003));
#261 = DIRECTION('', (0.0, 1.0, -0.0));
#262 = DIRECTION('', (-1.0, 0.0, 0.0));
#263 = SURFACE_CURVE('', #264, (#151, #166), .CURVE_3D.);
#264 = INTERSECTION_CURVE('', #265, (#269, #274), .CURVE_3D.);
#265 = B_SPLINE_CURVE_WITH_KNOTS('', 1, (#266, #267, #268), .UNSPECIFIED., .U., .U., (2, 1, 2), (0.0, 0.5, 1.0), .UNSPECIFIED.);
#266 = CARTESIAN_POINT('', (151.0000001, -78.9999998, 13.0));
#267 = CARTESIAN_POINT('', (151.0000001, -89.0000004, 13.0));
#268 = CARTESIAN_POINT('', (151.0000001, -110.9999998, 13.0));
#269 = PLANE('', #270);
#270 = AXIS2_PLACEMENT_3D('', #271, #272, #273);
#271 = CARTESIAN_POINT('', (153.0, -77.0, 13.0));
#272 = DIRECTION('', (0.0, 0.0, 1.0));
#273 = DIRECTION('', (-1.0, 0.0, 0.0));
#274 = PLANE('', #275);
#275 = AXIS2_PLACEMENT_3D('', #276, #277, #278);
#276 = CARTESIAN_POINT('', (151.0000001, -110.9999998, 2.0000003));
#277 = DIRECTION('', (1.0, 0.0, 0.0));
#278 = DIRECTION('', (0.0, 1.0, 0.0));
#279 = SURFACE_CURVE('', #280, (#151, #161), .CURVE_3D.);
#280 = INTERSECTION_CURVE('', #281, (#286, #291), .CURVE_3D.);
#281 = B_SPLINE_CURVE_WITH_KNOTS('', 1, (#282, #283, #284, #285), .UNSPECIFIED., .U., .U., (2, 1, 1, 2), (0.0, 0.3333333333333333, 0.6666666666666666, 1.0), .UNSPECIFIED.);
#282 = CARTESIAN_POINT('', (99.0000001, -110.9999998, 13.0));
#283 = CARTESIAN_POINT('', (134.749999125, -110.9999998, 13.0));
#284 = CARTESIAN_POINT('', (149.88888857777778, -110.9999998, 13.0));
#285 = CARTESIAN_POINT('', (151.0000001, -110.9999998, 13.0));
#286 = PLANE('', #287);
#287 = AXIS2_PLACEMENT_3D('', #288, #289, #290);
#288 = CARTESIAN_POINT('', (153.0, -77.0, 13.0));
#289 = DIRECTION('', (0.0, 0.0, 1.0));
#290 = DIRECTION('', (-1.0, 0.0, 0.0));
#291 = PLANE('', #292);
#292 = AXIS2_PLACEMENT_3D('', #293, #294, #295);
#293 = CARTESIAN_POINT('', (99.0000001, -110.9999998, 2.0000003));
#294 = DIRECTION('', (0.0, -1.0, 0.0));
#295 = DIRECTION('', (1.0, 0.0, 0.0));
#296 = SURFACE_CURVE('', #297, (#151, #156), .CURVE_3D.);
#297 = INTERSECTION_CURVE('', #298, (#302, #307), .CURVE_3D.);
#298 = B_SPLINE_CURVE_WITH_KNOTS('', 1, (#299, #300, #301), .UNSPECIFIED., .U., .U., (2, 1, 2), (0.0, 0.5, 1.0), .UNSPECIFIED.);
#299 = CARTESIAN_POINT('', (99.0000001, -110.9999998, 13.0));
#300 = CARTESIAN_POINT('', (99.0000001, -100.99999919999999, 13.0));
#301 = CARTESIAN_POINT('', (99.0000001, -78.9999998, 13.0));
#302 = PLANE('', #303);
#303 = AXIS2_PLACEMENT_3D('', #304, #305, #306);
#304 = CARTESIAN_POINT('', (153.0, -77.0, 13.0));
#305 = DIRECTION('', (0.0, 0.0, 1.0));
#306 = DIRECTION('', (-1.0, 0.0, 0.0));
#307 = PLANE('', #308);
#308 = AXIS2_PLACEMENT_3D('', #309, #310, #311);
#309 = CARTESIAN_POINT('', (99.0000001, -78.9999998, 2.0000003));
#310 = DIRECTION('', (-1.0, 0.0, 0.0));
#311 = DIRECTION('', (0.0, -1.0, 0.0));
#312 = SURFACE_CURVE('', #313, (#156, #171), .CURVE_3D.);
#313 = LINE('', #314, #315);
#314 = CARTESIAN_POINT('', (99.0000001, -78.9999998, 2.0000003));
#315 = VECTOR('', #316, 10.9999997);
#316 = DIRECTION('', (0.0, 0.0, 1.0));
#317 = SURFACE_CURVE('', #318, (#156, #176), .CURVE_3D.);
#318 = LINE('', #319, #320);
#319 = CARTESIAN_POINT('', (99.0000001, -78.9999998, 2.0000003));
#320 = VECTOR('', #321, 32.0);
#321 = DIRECTION('', (0.0, -1.0, 0.0));
#322 = SURFACE_CURVE('', #323, (#156, #161), .CURVE_3D.);
#323 = LINE('', #324, #325);
#324 = CARTESIAN_POINT('', (99.0000001, -110.9999998, 2.0000003));
#325 = VECTOR('', #326, 10.9999997);
#326 = DIRECTION('', (0.0, 0.0, 1.0));
#327 = SURFACE_CURVE('', #328, (#161, #176), .CURVE_3D.);
#328 = LINE('', #329, #330);
#329 = CARTESIAN_POINT('', (99.0000001, -110.9999998, 2.0000003));
#330 = VECTOR('', #331, 52.0);
#331 = DIRECTION('', (1.0, 0.0, 0.0));
#332 = SURFACE_CURVE('', #333, (#161, #166), .CURVE_3D.);
#333 = LINE('', #334, #335);
#334 = CARTESIAN_POINT('', (151.0000001, -110.9999998, 2.0000003));
#335 = VECTOR('', #336, 10.9999997);
#336 = DIRECTION('', (0.0, 0.0, 1.0));
#337 = SURFACE_CURVE('', #338, (#166, #176), .CURVE_3D.);
#338 = LINE('', #339, #340);
#339 = CARTESIAN_POINT('', (151.0000001, -110.9999998, 2.0000003));
#340 = VECTOR('', #341, 32.0);
#341 = DIRECTION('', (0.0, 1.0, 0.0));
#342 = SURFACE_CURVE('', #343, (#166, #171), .CURVE_3D.);
#343 = LINE('', #344, #345);
#344 = CARTESIAN_POINT('', (151.0000001, -78.9999998, 2.0000003));
#345 = VECTOR('', #346, 10.9999997);
#346 = DIRECTION('', (0.0, 0.0, 1.0));
#347 = SURFACE_CURVE('', #348, (#171, #176), .CURVE_3D.);
#348 = LINE('', #349, #350);
#349 = CARTESIAN_POINT('', (151.0000001, -78.9999998, 2.0000003));
#350 = VECTOR('', #351, 52.0);
#351 = DIRECTION('', (-1.0, 0.0, 0.0));
#352 = SURFACE_CURVE('', #353, (#181, #186), .CURVE_3D.);
#353 = LINE('', #354, #355);
#354 = CARTESIAN_POINT('', (153.0, -113.0, 0.0));
#355 = VECTOR('', #356, 13.0);
#356 = DIRECTION('', (0.0, 0.0, 1.0));
#357 = SURFACE_CURVE('', #358, (#186, #191), .CURVE_3D.);
#358 = LINE('', #359, #360);
#359 = CARTESIAN_POINT('', (97.0, -113.0, 0.0));
#360 = VECTOR('', #361, 13.0);
#361 = DIRECTION('', (0.0, 0.0, 1.0));
#362 = CARTESIAN_POINT('', (97.0, -77.0, 0.0));
#363 = CARTESIAN_POINT('', (97.0, -113.0, 0.0));
#364 = CARTESIAN_POINT('', (153.0, -113.0, 0.0));
#365 = CARTESIAN_POINT('', (153.0, -77.0, 0.0));
#366 = CARTESIAN_POINT('', (97.0, -77.0, 13.0));
#367 = CARTESIAN_POINT('', (153.0, -77.0, 13.0));
#368 = CARTESIAN_POINT('', (97.0, -113.0, 13.0));
#369 = CARTESIAN_POINT('', (153.0, -113.0, 13.0));
#370 = CARTESIAN_POINT('', (99.0000001, -78.9999998, 13.0));
#371 = CARTESIAN_POINT('', (151.0000001, -78.9999998, 13.0));
#372 = CARTESIAN_POINT('', (151.0000001, -110.9999998, 13.0));
#373 = CARTESIAN_POINT('', (99.0000001, -110.9999998, 13.0));
#374 = CARTESIAN_POINT('', (99.0000001, -78.9999998, 2.0000003));
#375 = CARTESIAN_POINT('', (99.0000001, -110.9999998, 2.0000003));
#376 = CARTESIAN_POINT('', (151.0000001, -110.9999998, 2.0000003));
#377 = CARTESIAN_POINT('', (151.0000001, -78.9999998, 2.0000003));
ENDSEC;
END-ISO-10303-21;
