ISO-10303-21;
HEADER;
FILE_DESCRIPTION(('Shape Data from monstertruck'), '2;1');
FILE_NAME('', '2026-09-01 02:55:36.692825845', (''), (''), 'monstertruck', 'KiCase', '');
FILE_SCHEMA(('AUTOMOTIVE_DESIGN'));
ENDSEC;
DATA;
#1 = APPLICATION_PROTOCOL_DEFINITION('international standard', 'automotive_design', 2000, #2);
#2 = APPLICATION_CONTEXT('core data for automotive mechanical design processes');
#3 = SHAPE_DEFINITION_REPRESENTATION(#4, #10);
#4 = PRODUCT_DEFINITION_SHAPE('','', #5);
#5 = PRODUCT_DEFINITION('design','', #6, #9);
#6 = PRODUCT_DEFINITION_FORMATION('','', #7);
#7 = PRODUCT('','','', (#8));
#8 = PRODUCT_CONTEXT('', #2, 'mechanical');
#9 = PRODUCT_DEFINITION_CONTEXT('part definition', #2, 'design');
#10 = ADVANCED_BREP_SHAPE_REPRESENTATION('', (#16), #11);
#11 = (
    GEOMETRIC_REPRESENTATION_CONTEXT(3) 
    GLOBAL_UNCERTAINTY_ASSIGNED_CONTEXT((#15))
    GLOBAL_UNIT_ASSIGNED_CONTEXT((#12, #13, #14))
    REPRESENTATION_CONTEXT('Context #1', '3D Context with UNIT and UNCERTAINTY')
);
#12 = ( LENGTH_UNIT() NAMED_UNIT(*) SI_UNIT(.MILLI.,.METRE.) );
#13 = ( NAMED_UNIT(*) PLANE_ANGLE_UNIT() SI_UNIT($,.RADIAN.) );
#14 = ( NAMED_UNIT(*) SI_UNIT($,.STERADIAN.) SOLID_ANGLE_UNIT() );
#15 = UNCERTAINTY_MEASURE_WITH_UNIT(LENGTH_MEASURE(1.0E-6), #12, 'distance_accuracy_value','confusion accuracy');
#16 = MANIFOLD_SOLID_BREP('', #17);
#17 = CLOSED_SHELL('', (#18, #27, #34, #51, #58, #65, #72, #79, #86, #93, #102, #109, #116, #123, #130));
#18 = ADVANCED_FACE('', (#19), #197, .F.);
#19 = FACE_BOUND('', #20, .F.);
#20 = EDGE_LOOP('', (#21, #22, #23, #24, #25, #26));
#21 = ORIENTED_EDGE('', *, *, #137, .T.);
#22 = ORIENTED_EDGE('', *, *, #138, .T.);
#23 = ORIENTED_EDGE('', *, *, #139, .T.);
#24 = ORIENTED_EDGE('', *, *, #140, .T.);
#25 = ORIENTED_EDGE('', *, *, #141, .T.);
#26 = ORIENTED_EDGE('', *, *, #142, .T.);
#27 = ADVANCED_FACE('', (#28), #202, .T.);
#28 = FACE_BOUND('', #29, .T.);
#29 = EDGE_LOOP('', (#30, #31, #32, #33));
#30 = ORIENTED_EDGE('', *, *, #142, .T.);
#31 = ORIENTED_EDGE('', *, *, #143, .T.);
#32 = ORIENTED_EDGE('', *, *, #144, .F.);
#33 = ORIENTED_EDGE('', *, *, #145, .F.);
#34 = ADVANCED_FACE('', (#35, #43), #207, .T.);
#35 = FACE_BOUND('', #36, .T.);
#36 = EDGE_LOOP('', (#37, #38, #39, #40, #41, #42));
#37 = ORIENTED_EDGE('', *, *, #146, .T.);
#38 = ORIENTED_EDGE('', *, *, #147, .T.);
#39 = ORIENTED_EDGE('', *, *, #148, .T.);
#40 = ORIENTED_EDGE('', *, *, #149, .T.);
#41 = ORIENTED_EDGE('', *, *, #150, .T.);
#42 = ORIENTED_EDGE('', *, *, #144, .T.);
#43 = FACE_BOUND('', #44, .T.);
#44 = EDGE_LOOP('', (#45, #46, #47, #48, #49, #50));
#45 = ORIENTED_EDGE('', *, *, #151, .T.);
#46 = ORIENTED_EDGE('', *, *, #152, .T.);
#47 = ORIENTED_EDGE('', *, *, #153, .F.);
#48 = ORIENTED_EDGE('', *, *, #154, .F.);
#49 = ORIENTED_EDGE('', *, *, #155, .F.);
#50 = ORIENTED_EDGE('', *, *, #156, .F.);
#51 = ADVANCED_FACE('', (#52), #212, .F.);
#52 = FACE_BOUND('', #53, .F.);
#53 = EDGE_LOOP('', (#54, #55, #56, #57));
#54 = ORIENTED_EDGE('', *, *, #157, .F.);
#55 = ORIENTED_EDGE('', *, *, #158, .T.);
#56 = ORIENTED_EDGE('', *, *, #159, .T.);
#57 = ORIENTED_EDGE('', *, *, #156, .F.);
#58 = ADVANCED_FACE('', (#59), #217, .F.);
#59 = FACE_BOUND('', #60, .F.);
#60 = EDGE_LOOP('', (#61, #62, #63, #64));
#61 = ORIENTED_EDGE('', *, *, #151, .T.);
#62 = ORIENTED_EDGE('', *, *, #160, .F.);
#63 = ORIENTED_EDGE('', *, *, #161, .T.);
#64 = ORIENTED_EDGE('', *, *, #157, .T.);
#65 = ADVANCED_FACE('', (#66), #222, .F.);
#66 = FACE_BOUND('', #67, .F.);
#67 = EDGE_LOOP('', (#68, #69, #70, #71));
#68 = ORIENTED_EDGE('', *, *, #152, .T.);
#69 = ORIENTED_EDGE('', *, *, #162, .F.);
#70 = ORIENTED_EDGE('', *, *, #163, .T.);
#71 = ORIENTED_EDGE('', *, *, #160, .T.);
#72 = ADVANCED_FACE('', (#73), #227, .F.);
#73 = FACE_BOUND('', #74, .F.);
#74 = EDGE_LOOP('', (#75, #76, #77, #78));
#75 = ORIENTED_EDGE('', *, *, #164, .F.);
#76 = ORIENTED_EDGE('', *, *, #165, .T.);
#77 = ORIENTED_EDGE('', *, *, #162, .T.);
#78 = ORIENTED_EDGE('', *, *, #153, .F.);
#79 = ADVANCED_FACE('', (#80), #232, .F.);
#80 = FACE_BOUND('', #81, .F.);
#81 = EDGE_LOOP('', (#82, #83, #84, #85));
#82 = ORIENTED_EDGE('', *, *, #166, .F.);
#83 = ORIENTED_EDGE('', *, *, #167, .T.);
#84 = ORIENTED_EDGE('', *, *, #164, .T.);
#85 = ORIENTED_EDGE('', *, *, #154, .F.);
#86 = ADVANCED_FACE('', (#87), #237, .F.);
#87 = FACE_BOUND('', #88, .F.);
#88 = EDGE_LOOP('', (#89, #90, #91, #92));
#89 = ORIENTED_EDGE('', *, *, #159, .F.);
#90 = ORIENTED_EDGE('', *, *, #168, .T.);
#91 = ORIENTED_EDGE('', *, *, #166, .T.);
#92 = ORIENTED_EDGE('', *, *, #155, .F.);
#93 = ADVANCED_FACE('', (#94), #242, .T.);
#94 = FACE_BOUND('', #95, .T.);
#95 = EDGE_LOOP('', (#96, #97, #98, #99, #100, #101));
#96 = ORIENTED_EDGE('', *, *, #168, .T.);
#97 = ORIENTED_EDGE('', *, *, #167, .T.);
#98 = ORIENTED_EDGE('', *, *, #165, .T.);
#99 = ORIENTED_EDGE('', *, *, #163, .T.);
#100 = ORIENTED_EDGE('', *, *, #161, .T.);
#101 = ORIENTED_EDGE('', *, *, #158, .T.);
#102 = ADVANCED_FACE('', (#103), #247, .T.);
#103 = FACE_BOUND('', #104, .T.);
#104 = EDGE_LOOP('', (#105, #106, #107, #108));
#105 = ORIENTED_EDGE('', *, *, #141, .T.);
#106 = ORIENTED_EDGE('', *, *, #145, .T.);
#107 = ORIENTED_EDGE('', *, *, #150, .F.);
#108 = ORIENTED_EDGE('', *, *, #169, .F.);
#109 = ADVANCED_FACE('', (#110), #252, .T.);
#110 = FACE_BOUND('', #111, .T.);
#111 = EDGE_LOOP('', (#112, #113, #114, #115));
#112 = ORIENTED_EDGE('', *, *, #140, .T.);
#113 = ORIENTED_EDGE('', *, *, #169, .T.);
#114 = ORIENTED_EDGE('', *, *, #149, .F.);
#115 = ORIENTED_EDGE('', *, *, #170, .F.);
#116 = ADVANCED_FACE('', (#117), #257, .T.);
#117 = FACE_BOUND('', #118, .T.);
#118 = EDGE_LOOP('', (#119, #120, #121, #122));
#119 = ORIENTED_EDGE('', *, *, #139, .T.);
#120 = ORIENTED_EDGE('', *, *, #170, .T.);
#121 = ORIENTED_EDGE('', *, *, #148, .F.);
#122 = ORIENTED_EDGE('', *, *, #171, .F.);
#123 = ADVANCED_FACE('', (#124), #262, .T.);
#124 = FACE_BOUND('', #125, .T.);
#125 = EDGE_LOOP('', (#126, #127, #128, #129));
#126 = ORIENTED_EDGE('', *, *, #138, .T.);
#127 = ORIENTED_EDGE('', *, *, #171, .T.);
#128 = ORIENTED_EDGE('', *, *, #147, .F.);
#129 = ORIENTED_EDGE('', *, *, #172, .F.);
#130 = ADVANCED_FACE('', (#131), #267, .T.);
#131 = FACE_BOUND('', #132, .T.);
#132 = EDGE_LOOP('', (#133, #134, #135, #136));
#133 = ORIENTED_EDGE('', *, *, #137, .T.);
#134 = ORIENTED_EDGE('', *, *, #172, .T.);
#135 = ORIENTED_EDGE('', *, *, #146, .F.);
#136 = ORIENTED_EDGE('', *, *, #143, .F.);
#137 = EDGE_CURVE('', #173, #174, #272, .T.);
#138 = EDGE_CURVE('', #174, #175, #277, .T.);
#139 = EDGE_CURVE('', #175, #176, #282, .T.);
#140 = EDGE_CURVE('', #176, #177, #287, .T.);
#141 = EDGE_CURVE('', #177, #178, #292, .T.);
#142 = EDGE_CURVE('', #178, #173, #297, .T.);
#143 = EDGE_CURVE('', #173, #179, #302, .T.);
#144 = EDGE_CURVE('', #180, #179, #307, .T.);
#145 = EDGE_CURVE('', #178, #180, #312, .T.);
#146 = EDGE_CURVE('', #179, #181, #317, .T.);
#147 = EDGE_CURVE('', #181, #182, #322, .T.);
#148 = EDGE_CURVE('', #182, #183, #327, .T.);
#149 = EDGE_CURVE('', #183, #184, #332, .T.);
#150 = EDGE_CURVE('', #184, #180, #337, .T.);
#151 = EDGE_CURVE('', #185, #186, #342, .T.);
#152 = EDGE_CURVE('', #186, #187, #358, .T.);
#153 = EDGE_CURVE('', #188, #187, #375, .T.);
#154 = EDGE_CURVE('', #189, #188, #393, .T.);
#155 = EDGE_CURVE('', #190, #189, #410, .T.);
#156 = EDGE_CURVE('', #185, #190, #426, .T.);
#157 = EDGE_CURVE('', #191, #185, #444, .T.);
#158 = EDGE_CURVE('', #191, #192, #449, .T.);
#159 = EDGE_CURVE('', #192, #190, #454, .T.);
#160 = EDGE_CURVE('', #193, #186, #459, .T.);
#161 = EDGE_CURVE('', #193, #191, #464, .T.);
#162 = EDGE_CURVE('', #194, #187, #469, .T.);
#163 = EDGE_CURVE('', #194, #193, #474, .T.);
#164 = EDGE_CURVE('', #195, #188, #479, .T.);
#165 = EDGE_CURVE('', #195, #194, #484, .T.);
#166 = EDGE_CURVE('', #196, #189, #489, .T.);
#167 = EDGE_CURVE('', #196, #195, #494, .T.);
#168 = EDGE_CURVE('', #192, #196, #499, .T.);
#169 = EDGE_CURVE('', #177, #184, #504, .T.);
#170 = EDGE_CURVE('', #176, #183, #509, .T.);
#171 = EDGE_CURVE('', #175, #182, #514, .T.);
#172 = EDGE_CURVE('', #174, #181, #519, .T.);
#173 = VERTEX_POINT('', #524);
#174 = VERTEX_POINT('', #525);
#175 = VERTEX_POINT('', #526);
#176 = VERTEX_POINT('', #527);
#177 = VERTEX_POINT('', #528);
#178 = VERTEX_POINT('', #529);
#179 = VERTEX_POINT('', #530);
#180 = VERTEX_POINT('', #531);
#181 = VERTEX_POINT('', #532);
#182 = VERTEX_POINT('', #533);
#183 = VERTEX_POINT('', #534);
#184 = VERTEX_POINT('', #535);
#185 = VERTEX_POINT('', #536);
#186 = VERTEX_POINT('', #537);
#187 = VERTEX_POINT('', #538);
#188 = VERTEX_POINT('', #539);
#189 = VERTEX_POINT('', #540);
#190 = VERTEX_POINT('', #541);
#191 = VERTEX_POINT('', #542);
#192 = VERTEX_POINT('', #543);
#193 = VERTEX_POINT('', #544);
#194 = VERTEX_POINT('', #545);
#195 = VERTEX_POINT('', #546);
#196 = VERTEX_POINT('', #547);
#197 = PLANE('', #198);
#198 = AXIS2_PLACEMENT_3D('', #199, #200, #201);
#199 = CARTESIAN_POINT('', (163.0, -77.0, 0.0));
#200 = DIRECTION('', (0.0, 0.0, 1.0));
#201 = DIRECTION('', (-1.0, 0.0, 0.0));
#202 = PLANE('', #203);
#203 = AXIS2_PLACEMENT_3D('', #204, #205, #206);
#204 = CARTESIAN_POINT('', (163.0, -77.0, 0.0));
#205 = DIRECTION('', (0.0, 1.0, -0.0));
#206 = DIRECTION('', (-1.0, 0.0, 0.0));
#207 = PLANE('', #208);
#208 = AXIS2_PLACEMENT_3D('', #209, #210, #211);
#209 = CARTESIAN_POINT('', (163.0, -77.0, 13.0));
#210 = DIRECTION('', (0.0, 0.0, 1.0));
#211 = DIRECTION('', (-1.0, 0.0, 0.0));
#212 = PLANE('', #213);
#213 = AXIS2_PLACEMENT_3D('', #214, #215, #216);
#214 = CARTESIAN_POINT('', (161.0000001, -78.9999998, 2.0000003));
#215 = DIRECTION('', (0.0, 1.0, -0.0));
#216 = DIRECTION('', (-1.0, 0.0, 0.0));
#217 = PLANE('', #218);
#218 = AXIS2_PLACEMENT_3D('', #219, #220, #221);
#219 = CARTESIAN_POINT('', (161.0000001, -100.9999998, 2.0000003));
#220 = DIRECTION('', (1.0, 0.0, 0.0));
#221 = DIRECTION('', (0.0, 1.0, 0.0));
#222 = PLANE('', #223);
#223 = AXIS2_PLACEMENT_3D('', #224, #225, #226);
#224 = CARTESIAN_POINT('', (126.0000001, -100.9999998, 2.0000003));
#225 = DIRECTION('', (0.0, -1.0, 0.0));
#226 = DIRECTION('', (1.0, 0.0, 0.0));
#227 = PLANE('', #228);
#228 = AXIS2_PLACEMENT_3D('', #229, #230, #231);
#229 = CARTESIAN_POINT('', (126.0000001, -120.9999998, 2.0000003));
#230 = DIRECTION('', (1.0, 0.0, 0.0));
#231 = DIRECTION('', (0.0, 1.0, 0.0));
#232 = PLANE('', #233);
#233 = AXIS2_PLACEMENT_3D('', #234, #235, #236);
#234 = CARTESIAN_POINT('', (99.0000001, -120.9999998, 2.0000003));
#235 = DIRECTION('', (0.0, -1.0, 0.0));
#236 = DIRECTION('', (1.0, 0.0, 0.0));
#237 = PLANE('', #238);
#238 = AXIS2_PLACEMENT_3D('', #239, #240, #241);
#239 = CARTESIAN_POINT('', (99.0000001, -78.9999998, 2.0000003));
#240 = DIRECTION('', (-1.0, 0.0, 0.0));
#241 = DIRECTION('', (0.0, -1.0, 0.0));
#242 = PLANE('', #243);
#243 = AXIS2_PLACEMENT_3D('', #244, #245, #246);
#244 = CARTESIAN_POINT('', (161.0000001, -78.9999998, 2.0000003));
#245 = DIRECTION('', (0.0, 0.0, 1.0));
#246 = DIRECTION('', (-1.0, 0.0, 0.0));
#247 = PLANE('', #248);
#248 = AXIS2_PLACEMENT_3D('', #249, #250, #251);
#249 = CARTESIAN_POINT('', (163.0, -103.0, 0.0));
#250 = DIRECTION('', (1.0, 0.0, 0.0));
#251 = DIRECTION('', (0.0, 1.0, 0.0));
#252 = PLANE('', #253);
#253 = AXIS2_PLACEMENT_3D('', #254, #255, #256);
#254 = CARTESIAN_POINT('', (128.0, -103.0, 0.0));
#255 = DIRECTION('', (0.0, -1.0, 0.0));
#256 = DIRECTION('', (1.0, 0.0, 0.0));
#257 = PLANE('', #258);
#258 = AXIS2_PLACEMENT_3D('', #259, #260, #261);
#259 = CARTESIAN_POINT('', (128.0, -123.0, 0.0));
#260 = DIRECTION('', (1.0, 0.0, 0.0));
#261 = DIRECTION('', (0.0, 1.0, 0.0));
#262 = PLANE('', #263);
#263 = AXIS2_PLACEMENT_3D('', #264, #265, #266);
#264 = CARTESIAN_POINT('', (97.0, -123.0, 0.0));
#265 = DIRECTION('', (0.0, -1.0, 0.0));
#266 = DIRECTION('', (1.0, 0.0, 0.0));
#267 = PLANE('', #268);
#268 = AXIS2_PLACEMENT_3D('', #269, #270, #271);
#269 = CARTESIAN_POINT('', (97.0, -77.0, 0.0));
#270 = DIRECTION('', (-1.0, 0.0, 0.0));
#271 = DIRECTION('', (0.0, -1.0, 0.0));
#272 = SURFACE_CURVE('', #273, (#197, #267), .CURVE_3D.);
#273 = LINE('', #274, #275);
#274 = CARTESIAN_POINT('', (97.0, -77.0, 0.0));
#275 = VECTOR('', #276, 46.0);
#276 = DIRECTION('', (0.0, -1.0, 0.0));
#277 = SURFACE_CURVE('', #278, (#197, #262), .CURVE_3D.);
#278 = LINE('', #279, #280);
#279 = CARTESIAN_POINT('', (97.0, -123.0, 0.0));
#280 = VECTOR('', #281, 31.0);
#281 = DIRECTION('', (1.0, 0.0, 0.0));
#282 = SURFACE_CURVE('', #283, (#197, #257), .CURVE_3D.);
#283 = LINE('', #284, #285);
#284 = CARTESIAN_POINT('', (128.0, -123.0, 0.0));
#285 = VECTOR('', #286, 20.0);
#286 = DIRECTION('', (0.0, 1.0, 0.0));
#287 = SURFACE_CURVE('', #288, (#197, #252), .CURVE_3D.);
#288 = LINE('', #289, #290);
#289 = CARTESIAN_POINT('', (128.0, -103.0, 0.0));
#290 = VECTOR('', #291, 35.0);
#291 = DIRECTION('', (1.0, 0.0, 0.0));
#292 = SURFACE_CURVE('', #293, (#197, #247), .CURVE_3D.);
#293 = LINE('', #294, #295);
#294 = CARTESIAN_POINT('', (163.0, -103.0, 0.0));
#295 = VECTOR('', #296, 26.0);
#296 = DIRECTION('', (0.0, 1.0, 0.0));
#297 = SURFACE_CURVE('', #298, (#197, #202), .CURVE_3D.);
#298 = LINE('', #299, #300);
#299 = CARTESIAN_POINT('', (163.0, -77.0, 0.0));
#300 = VECTOR('', #301, 66.0);
#301 = DIRECTION('', (-1.0, 0.0, 0.0));
#302 = SURFACE_CURVE('', #303, (#202, #267), .CURVE_3D.);
#303 = LINE('', #304, #305);
#304 = CARTESIAN_POINT('', (97.0, -77.0, 0.0));
#305 = VECTOR('', #306, 13.0);
#306 = DIRECTION('', (0.0, 0.0, 1.0));
#307 = SURFACE_CURVE('', #308, (#202, #207), .CURVE_3D.);
#308 = LINE('', #309, #310);
#309 = CARTESIAN_POINT('', (163.0, -77.0, 13.0));
#310 = VECTOR('', #311, 66.0);
#311 = DIRECTION('', (-1.0, 0.0, 0.0));
#312 = SURFACE_CURVE('', #313, (#202, #247), .CURVE_3D.);
#313 = LINE('', #314, #315);
#314 = CARTESIAN_POINT('', (163.0, -77.0, 0.0));
#315 = VECTOR('', #316, 13.0);
#316 = DIRECTION('', (0.0, 0.0, 1.0));
#317 = SURFACE_CURVE('', #318, (#207, #267), .CURVE_3D.);
#318 = LINE('', #319, #320);
#319 = CARTESIAN_POINT('', (97.0, -77.0, 13.0));
#320 = VECTOR('', #321, 46.0);
#321 = DIRECTION('', (0.0, -1.0, 0.0));
#322 = SURFACE_CURVE('', #323, (#207, #262), .CURVE_3D.);
#323 = LINE('', #324, #325);
#324 = CARTESIAN_POINT('', (97.0, -123.0, 13.0));
#325 = VECTOR('', #326, 31.0);
#326 = DIRECTION('', (1.0, 0.0, 0.0));
#327 = SURFACE_CURVE('', #328, (#207, #257), .CURVE_3D.);
#328 = LINE('', #329, #330);
#329 = CARTESIAN_POINT('', (128.0, -123.0, 13.0));
#330 = VECTOR('', #331, 20.0);
#331 = DIRECTION('', (0.0, 1.0, 0.0));
#332 = SURFACE_CURVE('', #333, (#207, #252), .CURVE_3D.);
#333 = LINE('', #334, #335);
#334 = CARTESIAN_POINT('', (128.0, -103.0, 13.0));
#335 = VECTOR('', #336, 35.0);
#336 = DIRECTION('', (1.0, 0.0, 0.0));
#337 = SURFACE_CURVE('', #338, (#207, #247), .CURVE_3D.);
#338 = LINE('', #339, #340);
#339 = CARTESIAN_POINT('', (163.0, -103.0, 13.0));
#340 = VECTOR('', #341, 26.0);
#341 = DIRECTION('', (0.0, 1.0, 0.0));
#342 = SURFACE_CURVE('', #343, (#207, #217), .CURVE_3D.);
#343 = INTERSECTION_CURVE('', #344, (#348, #353), .CURVE_3D.);
#344 = B_SPLINE_CURVE_WITH_KNOTS('', 1, (#345, #346, #347), .UNSPECIFIED., .U., .U., (2, 1, 2), (0.0, 0.5, 1.0), .UNSPECIFIED.);
#345 = CARTESIAN_POINT('', (161.0000001, -78.9999998, 13.0));
#346 = CARTESIAN_POINT('', (161.0000001, -85.8750002125, 13.0));
#347 = CARTESIAN_POINT('', (161.0000001, -100.9999998, 13.0));
#348 = PLANE('', #349);
#349 = AXIS2_PLACEMENT_3D('', #350, #351, #352);
#350 = CARTESIAN_POINT('', (163.0, -77.0, 13.0));
#351 = DIRECTION('', (0.0, 0.0, 1.0));
#352 = DIRECTION('', (-1.0, 0.0, 0.0));
#353 = PLANE('', #354);
#354 = AXIS2_PLACEMENT_3D('', #355, #356, #357);
#355 = CARTESIAN_POINT('', (161.0000001, -100.9999998, 2.0000003));
#356 = DIRECTION('', (1.0, 0.0, 0.0));
#357 = DIRECTION('', (0.0, 1.0, 0.0));
#358 = SURFACE_CURVE('', #359, (#207, #222), .CURVE_3D.);
#359 = INTERSECTION_CURVE('', #360, (#365, #370), .CURVE_3D.);
#360 = B_SPLINE_CURVE_WITH_KNOTS('', 1, (#361, #362, #363, #364), .UNSPECIFIED., .U., .U., (2, 1, 1, 2), (0.0, 0.3333333333333333, 0.6666666666666666, 1.0), .UNSPECIFIED.);
#361 = CARTESIAN_POINT('', (161.0000001, -100.9999998, 13.0));
#362 = CARTESIAN_POINT('', (150.06249944375, -100.9999998, 13.0));
#363 = CARTESIAN_POINT('', (130.69230796153846, -100.9999998, 13.0));
#364 = CARTESIAN_POINT('', (126.0000001, -100.9999998, 13.000000000000002));
#365 = PLANE('', #366);
#366 = AXIS2_PLACEMENT_3D('', #367, #368, #369);
#367 = CARTESIAN_POINT('', (163.0, -77.0, 13.0));
#368 = DIRECTION('', (0.0, 0.0, 1.0));
#369 = DIRECTION('', (-1.0, 0.0, 0.0));
#370 = PLANE('', #371);
#371 = AXIS2_PLACEMENT_3D('', #372, #373, #374);
#372 = CARTESIAN_POINT('', (126.0000001, -100.9999998, 2.0000003));
#373 = DIRECTION('', (0.0, -1.0, 0.0));
#374 = DIRECTION('', (1.0, 0.0, 0.0));
#375 = SURFACE_CURVE('', #376, (#207, #227), .CURVE_3D.);
#376 = INTERSECTION_CURVE('', #377, (#383, #388), .CURVE_3D.);
#377 = B_SPLINE_CURVE_WITH_KNOTS('', 1, (#378, #379, #380, #381, #382), .UNSPECIFIED., .U., .U., (2, 1, 1, 1, 2), (0.0, 0.25, 0.5, 0.75, 1.0), .UNSPECIFIED.);
#378 = CARTESIAN_POINT('', (126.0000001, -120.9999998, 13.0));
#379 = CARTESIAN_POINT('', (126.0000001, -107.250000175, 13.0));
#380 = CARTESIAN_POINT('', (126.0000001, -104.29032251612904, 13.0));
#381 = CARTESIAN_POINT('', (126.0000001, -101.32258072903225, 13.0));
#382 = CARTESIAN_POINT('', (126.0000001, -100.9999998, 13.000000000000002));
#383 = PLANE('', #384);
#384 = AXIS2_PLACEMENT_3D('', #385, #386, #387);
#385 = CARTESIAN_POINT('', (163.0, -77.0, 13.0));
#386 = DIRECTION('', (0.0, 0.0, 1.0));
#387 = DIRECTION('', (-1.0, 0.0, 0.0));
#388 = PLANE('', #389);
#389 = AXIS2_PLACEMENT_3D('', #390, #391, #392);
#390 = CARTESIAN_POINT('', (126.0000001, -120.9999998, 2.0000003));
#391 = DIRECTION('', (1.0, 0.0, 0.0));
#392 = DIRECTION('', (0.0, 1.0, 0.0));
#393 = SURFACE_CURVE('', #394, (#207, #232), .CURVE_3D.);
#394 = INTERSECTION_CURVE('', #395, (#400, #405), .CURVE_3D.);
#395 = B_SPLINE_CURVE_WITH_KNOTS('', 1, (#396, #397, #398, #399), .UNSPECIFIED., .U., .U., (2, 1, 1, 2), (0.0, 0.3333333333333333, 0.6666666666666666, 1.0), .UNSPECIFIED.);
#396 = CARTESIAN_POINT('', (99.0000001, -120.9999998, 13.0));
#397 = CARTESIAN_POINT('', (100.10000031000001, -120.9999998, 13.0));
#398 = CARTESIAN_POINT('', (117.56249959374999, -120.9999998, 13.0));
#399 = CARTESIAN_POINT('', (126.0000001, -120.9999998, 13.0));
#400 = PLANE('', #401);
#401 = AXIS2_PLACEMENT_3D('', #402, #403, #404);
#402 = CARTESIAN_POINT('', (163.0, -77.0, 13.0));
#403 = DIRECTION('', (0.0, 0.0, 1.0));
#404 = DIRECTION('', (-1.0, 0.0, 0.0));
#405 = PLANE('', #406);
#406 = AXIS2_PLACEMENT_3D('', #407, #408, #409);
#407 = CARTESIAN_POINT('', (99.0000001, -120.9999998, 2.0000003));
#408 = DIRECTION('', (0.0, -1.0, 0.0));
#409 = DIRECTION('', (1.0, 0.0, 0.0));
#410 = SURFACE_CURVE('', #411, (#207, #237), .CURVE_3D.);
#411 = INTERSECTION_CURVE('', #412, (#416, #421), .CURVE_3D.);
#412 = B_SPLINE_CURVE_WITH_KNOTS('', 1, (#413, #414, #415), .UNSPECIFIED., .U., .U., (2, 1, 2), (0.0, 0.5, 1.0), .UNSPECIFIED.);
#413 = CARTESIAN_POINT('', (99.0000001, -78.9999998, 13.0));
#414 = CARTESIAN_POINT('', (99.0000001, -107.8749990125, 13.0));
#415 = CARTESIAN_POINT('', (99.0000001, -120.9999998, 13.0));
#416 = PLANE('', #417);
#417 = AXIS2_PLACEMENT_3D('', #418, #419, #420);
#418 = CARTESIAN_POINT('', (163.0, -77.0, 13.0));
#419 = DIRECTION('', (0.0, 0.0, 1.0));
#420 = DIRECTION('', (-1.0, 0.0, 0.0));
#421 = PLANE('', #422);
#422 = AXIS2_PLACEMENT_3D('', #423, #424, #425);
#423 = CARTESIAN_POINT('', (99.0000001, -78.9999998, 2.0000003));
#424 = DIRECTION('', (-1.0, 0.0, 0.0));
#425 = DIRECTION('', (0.0, -1.0, 0.0));
#426 = SURFACE_CURVE('', #427, (#207, #212), .CURVE_3D.);
#427 = INTERSECTION_CURVE('', #428, (#434, #439), .CURVE_3D.);
#428 = B_SPLINE_CURVE_WITH_KNOTS('', 1, (#429, #430, #431, #432, #433), .UNSPECIFIED., .U., .U., (2, 1, 1, 1, 2), (0.0, 0.25, 0.5, 0.75, 1.0), .UNSPECIFIED.);
#429 = CARTESIAN_POINT('', (161.0000001, -78.9999998, 13.0));
#430 = CARTESIAN_POINT('', (160.30769257692307, -78.9999998, 13.0));
#431 = CARTESIAN_POINT('', (118.37500126249999, -78.9999998, 13.0));
#432 = CARTESIAN_POINT('', (99.38461514615383, -78.9999998, 13.0));
#433 = CARTESIAN_POINT('', (99.0000001, -78.9999998, 13.0));
#434 = PLANE('', #435);
#435 = AXIS2_PLACEMENT_3D('', #436, #437, #438);
#436 = CARTESIAN_POINT('', (163.0, -77.0, 13.0));
#437 = DIRECTION('', (0.0, 0.0, 1.0));
#438 = DIRECTION('', (-1.0, 0.0, 0.0));
#439 = PLANE('', #440);
#440 = AXIS2_PLACEMENT_3D('', #441, #442, #443);
#441 = CARTESIAN_POINT('', (161.0000001, -78.9999998, 2.0000003));
#442 = DIRECTION('', (0.0, 1.0, -0.0));
#443 = DIRECTION('', (-1.0, 0.0, 0.0));
#444 = SURFACE_CURVE('', #445, (#212, #217), .CURVE_3D.);
#445 = LINE('', #446, #447);
#446 = CARTESIAN_POINT('', (161.0000001, -78.9999998, 2.0000003));
#447 = VECTOR('', #448, 10.9999997);
#448 = DIRECTION('', (0.0, 0.0, 1.0));
#449 = SURFACE_CURVE('', #450, (#212, #242), .CURVE_3D.);
#450 = LINE('', #451, #452);
#451 = CARTESIAN_POINT('', (161.0000001, -78.9999998, 2.0000003));
#452 = VECTOR('', #453, 62.0);
#453 = DIRECTION('', (-1.0, 0.0, 0.0));
#454 = SURFACE_CURVE('', #455, (#212, #237), .CURVE_3D.);
#455 = LINE('', #456, #457);
#456 = CARTESIAN_POINT('', (99.0000001, -78.9999998, 2.0000003));
#457 = VECTOR('', #458, 10.9999997);
#458 = DIRECTION('', (0.0, 0.0, 1.0));
#459 = SURFACE_CURVE('', #460, (#217, #222), .CURVE_3D.);
#460 = LINE('', #461, #462);
#461 = CARTESIAN_POINT('', (161.0000001, -100.9999998, 2.0000003));
#462 = VECTOR('', #463, 10.9999997);
#463 = DIRECTION('', (0.0, 0.0, 1.0));
#464 = SURFACE_CURVE('', #465, (#217, #242), .CURVE_3D.);
#465 = LINE('', #466, #467);
#466 = CARTESIAN_POINT('', (161.0000001, -100.9999998, 2.0000003));
#467 = VECTOR('', #468, 22.0);
#468 = DIRECTION('', (0.0, 1.0, 0.0));
#469 = SURFACE_CURVE('', #470, (#222, #227), .CURVE_3D.);
#470 = LINE('', #471, #472);
#471 = CARTESIAN_POINT('', (126.0000001, -100.9999998, 2.0000003));
#472 = VECTOR('', #473, 10.999999700000002);
#473 = DIRECTION('', (0.0, 0.0, 1.0));
#474 = SURFACE_CURVE('', #475, (#222, #242), .CURVE_3D.);
#475 = LINE('', #476, #477);
#476 = CARTESIAN_POINT('', (126.0000001, -100.9999998, 2.0000003));
#477 = VECTOR('', #478, 35.0);
#478 = DIRECTION('', (1.0, 0.0, 0.0));
#479 = SURFACE_CURVE('', #480, (#227, #232), .CURVE_3D.);
#480 = LINE('', #481, #482);
#481 = CARTESIAN_POINT('', (126.0000001, -120.9999998, 2.0000003));
#482 = VECTOR('', #483, 10.9999997);
#483 = DIRECTION('', (0.0, 0.0, 1.0));
#484 = SURFACE_CURVE('', #485, (#227, #242), .CURVE_3D.);
#485 = LINE('', #486, #487);
#486 = CARTESIAN_POINT('', (126.0000001, -120.9999998, 2.0000003));
#487 = VECTOR('', #488, 20.0);
#488 = DIRECTION('', (0.0, 1.0, 0.0));
#489 = SURFACE_CURVE('', #490, (#232, #237), .CURVE_3D.);
#490 = LINE('', #491, #492);
#491 = CARTESIAN_POINT('', (99.0000001, -120.9999998, 2.0000003));
#492 = VECTOR('', #493, 10.9999997);
#493 = DIRECTION('', (0.0, 0.0, 1.0));
#494 = SURFACE_CURVE('', #495, (#232, #242), .CURVE_3D.);
#495 = LINE('', #496, #497);
#496 = CARTESIAN_POINT('', (99.0000001, -120.9999998, 2.0000003));
#497 = VECTOR('', #498, 27.0);
#498 = DIRECTION('', (1.0, 0.0, 0.0));
#499 = SURFACE_CURVE('', #500, (#237, #242), .CURVE_3D.);
#500 = LINE('', #501, #502);
#501 = CARTESIAN_POINT('', (99.0000001, -78.9999998, 2.0000003));
#502 = VECTOR('', #503, 42.0);
#503 = DIRECTION('', (0.0, -1.0, 0.0));
#504 = SURFACE_CURVE('', #505, (#247, #252), .CURVE_3D.);
#505 = LINE('', #506, #507);
#506 = CARTESIAN_POINT('', (163.0, -103.0, 0.0));
#507 = VECTOR('', #508, 13.0);
#508 = DIRECTION('', (0.0, 0.0, 1.0));
#509 = SURFACE_CURVE('', #510, (#252, #257), .CURVE_3D.);
#510 = LINE('', #511, #512);
#511 = CARTESIAN_POINT('', (128.0, -103.0, 0.0));
#512 = VECTOR('', #513, 13.0);
#513 = DIRECTION('', (0.0, 0.0, 1.0));
#514 = SURFACE_CURVE('', #515, (#257, #262), .CURVE_3D.);
#515 = LINE('', #516, #517);
#516 = CARTESIAN_POINT('', (128.0, -123.0, 0.0));
#517 = VECTOR('', #518, 13.0);
#518 = DIRECTION('', (0.0, 0.0, 1.0));
#519 = SURFACE_CURVE('', #520, (#262, #267), .CURVE_3D.);
#520 = LINE('', #521, #522);
#521 = CARTESIAN_POINT('', (97.0, -123.0, 0.0));
#522 = VECTOR('', #523, 13.0);
#523 = DIRECTION('', (0.0, 0.0, 1.0));
#524 = CARTESIAN_POINT('', (97.0, -77.0, 0.0));
#525 = CARTESIAN_POINT('', (97.0, -123.0, 0.0));
#526 = CARTESIAN_POINT('', (128.0, -123.0, 0.0));
#527 = CARTESIAN_POINT('', (128.0, -103.0, 0.0));
#528 = CARTESIAN_POINT('', (163.0, -103.0, 0.0));
#529 = CARTESIAN_POINT('', (163.0, -77.0, 0.0));
#530 = CARTESIAN_POINT('', (97.0, -77.0, 13.0));
#531 = CARTESIAN_POINT('', (163.0, -77.0, 13.0));
#532 = CARTESIAN_POINT('', (97.0, -123.0, 13.0));
#533 = CARTESIAN_POINT('', (128.0, -123.0, 13.0));
#534 = CARTESIAN_POINT('', (128.0, -103.0, 13.0));
#535 = CARTESIAN_POINT('', (163.0, -103.0, 13.0));
#536 = CARTESIAN_POINT('', (161.0000001, -78.9999998, 13.0));
#537 = CARTESIAN_POINT('', (161.0000001, -100.9999998, 13.0));
#538 = CARTESIAN_POINT('', (126.0000001, -100.9999998, 13.000000000000002));
#539 = CARTESIAN_POINT('', (126.0000001, -120.9999998, 13.0));
#540 = CARTESIAN_POINT('', (99.0000001, -120.9999998, 13.0));
#541 = CARTESIAN_POINT('', (99.0000001, -78.9999998, 13.0));
#542 = CARTESIAN_POINT('', (161.0000001, -78.9999998, 2.0000003));
#543 = CARTESIAN_POINT('', (99.0000001, -78.9999998, 2.0000003));
#544 = CARTESIAN_POINT('', (161.0000001, -100.9999998, 2.0000003));
#545 = CARTESIAN_POINT('', (126.0000001, -100.9999998, 2.0000003));
#546 = CARTESIAN_POINT('', (126.0000001, -120.9999998, 2.0000003));
#547 = CARTESIAN_POINT('', (99.0000001, -120.9999998, 2.0000003));
ENDSEC;
END-ISO-10303-21;
