ISO-10303-21;
HEADER;
FILE_DESCRIPTION(('Shape Data from monstertruck'), '2;1');
FILE_NAME('', '2026-09-01 02:55:36.693414984', (''), (''), 'monstertruck', 'KiCase', '');
FILE_SCHEMA(('AUTOMOTIVE_DESIGN'));
ENDSEC;
DATA;
#1 = APPLICATION_PROTOCOL_DEFINITION('international standard', 'automotive_design', 2000, #2);
#2 = APPLICATION_CONTEXT('core data for automotive mechanical design processes');
#3 = SHAPE_DEFINITION_REPRESENTATION(#4, #10);
#4 = PRODUCT_DEFINITION_SHAPE('','', #5);
#5 = PRODUCT_DEFINITION('design','', #6, #9);
#6 = PRODUCT_DEFINITION_FORMATION('','', #7);
#7 = PRODUCT('','','', (#8));
#8 = PRODUCT_CONTEXT('', #2, 'mechanical');
#9 = PRODUCT_DEFINITION_CONTEXT('part definition', #2, 'design');
#10 = ADVANCED_BREP_SHAPE_REPRESENTATION('', (#16, #548), #11);
#11 = (
    GEOMETRIC_REPRESENTATION_CONTEXT(3) 
    GLOBAL_UNCERTAINTY_ASSIGNED_CONTEXT((#15))
    GLOBAL_UNIT_ASSIGNED_CONTEXT((#12, #13, #14))
    REPRESENTATION_CONTEXT('Context #1', '3D Context with UNIT and UNCERTAINTY')
);
#12 = ( LENGTH_UNIT() NAMED_UNIT(*) SI_UNIT(.MILLI.,.METRE.) );
#13 = ( NAMED_UNIT(*) PLANE_ANGLE_UNIT() SI_UNIT($,.RADIAN.) );
#14 = ( NAMED_UNIT(*) SI_UNIT($,.STERADIAN.) SOLID_ANGLE_UNIT() );
#15 = UNCERTAINTY_MEASURE_WITH_UNIT(LENGTH_MEASURE(1.0E-6), #12, 'distance_accuracy_value','confusion accuracy');
#16 = MANIFOLD_SOLID_BREP('', #17);
#17 = CLOSED_SHELL('', (#18, #27, #34, #51, #58, #65, #72, #79, #86, #93, #102, #109, #116, #123, #130));
#18 = ADVANCED_FACE('', (#19), #197, .F.);
#19 = FACE_BOUND('', #20, .F.);
#20 = EDGE_LOOP('', (#21, #22, #23, #24, #25, #26));
#21 = ORIENTED_EDGE('', *, *, #137, .T.);
#22 = ORIENTED_EDGE('', *, *, #138, .T.);
#23 = ORIENTED_EDGE('', *, *, #139, .T.);
#24 = ORIENTED_EDGE('', *, *, #140, .T.);
#25 = ORIENTED_EDGE('', *, *, #141, .T.);
#26 = ORIENTED_EDGE('', *, *, #142, .T.);
#27 = ADVANCED_FACE('', (#28), #202, .T.);
#28 = FACE_BOUND('', #29, .T.);
#29 = EDGE_LOOP('', (#30, #31, #32, #33));
#30 = ORIENTED_EDGE('', *, *, #142, .T.);
#31 = ORIENTED_EDGE('', *, *, #143, .T.);
#32 = ORIENTED_EDGE('', *, *, #144, .F.);
#33 = ORIENTED_EDGE('', *, *, #145, .F.);
#34 = ADVANCED_FACE('', (#35, #43), #207, .T.);
#35 = FACE_BOUND('', #36, .T.);
#36 = EDGE_LOOP('', (#37, #38, #39, #40, #41, #42));
#37 = ORIENTED_EDGE('', *, *, #146, .T.);
#38 = ORIENTED_EDGE('', *, *, #147, .T.);
#39 = ORIENTED_EDGE('', *, *, #148, .T.);
#40 = ORIENTED_EDGE('', *, *, #149, .T.);
#41 = ORIENTED_EDGE('', *, *, #150, .T.);
#42 = ORIENTED_EDGE('', *, *, #144, .T.);
#43 = FACE_BOUND('', #44, .T.);
#44 = EDGE_LOOP('', (#45, #46, #47, #48, #49, #50));
#45 = ORIENTED_EDGE('', *, *, #151, .T.);
#46 = ORIENTED_EDGE('', *, *, #152, .T.);
#47 = ORIENTED_EDGE('', *, *, #153, .F.);
#48 = ORIENTED_EDGE('', *, *, #154, .F.);
#49 = ORIENTED_EDGE('', *, *, #155, .F.);
#50 = ORIENTED_EDGE('', *, *, #156, .F.);
#51 = ADVANCED_FACE('', (#52), #212, .F.);
#52 = FACE_BOUND('', #53, .F.);
#53 = EDGE_LOOP('', (#54, #55, #56, #57));
#54 = ORIENTED_EDGE('', *, *, #157, .F.);
#55 = ORIENTED_EDGE('', *, *, #158, .T.);
#56 = ORIENTED_EDGE('', *, *, #159, .T.);
#57 = ORIENTED_EDGE('', *, *, #156, .F.);
#58 = ADVANCED_FACE('', (#59), #217, .F.);
#59 = FACE_BOUND('', #60, .F.);
#60 = EDGE_LOOP('', (#61, #62, #63, #64));
#61 = ORIENTED_EDGE('', *, *, #151, .T.);
#62 = ORIENTED_EDGE('', *, *, #160, .F.);
#63 = ORIENTED_EDGE('', *, *, #161, .T.);
#64 = ORIENTED_EDGE('', *, *, #157, .T.);
#65 = ADVANCED_FACE('', (#66), #222, .F.);
#66 = FACE_BOUND('', #67, .F.);
#67 = EDGE_LOOP('', (#68, #69, #70, #71));
#68 = ORIENTED_EDGE('', *, *, #152, .T.);
#69 = ORIENTED_EDGE('', *, *, #162, .F.);
#70 = ORIENTED_EDGE('', *, *, #163, .T.);
#71 = ORIENTED_EDGE('', *, *, #160, .T.);
#72 = ADVANCED_FACE('', (#73), #227, .F.);
#73 = FACE_BOUND('', #74, .F.);
#74 = EDGE_LOOP('', (#75, #76, #77, #78));
#75 = ORIENTED_EDGE('', *, *, #164, .F.);
#76 = ORIENTED_EDGE('', *, *, #165, .T.);
#77 = ORIENTED_EDGE('', *, *, #162, .T.);
#78 = ORIENTED_EDGE('', *, *, #153, .F.);
#79 = ADVANCED_FACE('', (#80), #232, .F.);
#80 = FACE_BOUND('', #81, .F.);
#81 = EDGE_LOOP('', (#82, #83, #84, #85));
#82 = ORIENTED_EDGE('', *, *, #166, .F.);
#83 = ORIENTED_EDGE('', *, *, #167, .T.);
#84 = ORIENTED_EDGE('', *, *, #164, .T.);
#85 = ORIENTED_EDGE('', *, *, #154, .F.);
#86 = ADVANCED_FACE('', (#87), #237, .F.);
#87 = FACE_BOUND('', #88, .F.);
#88 = EDGE_LOOP('', (#89, #90, #91, #92));
#89 = ORIENTED_EDGE('', *, *, #159, .F.);
#90 = ORIENTED_EDGE('', *, *, #168, .T.);
#91 = ORIENTED_EDGE('', *, *, #166, .T.);
#92 = ORIENTED_EDGE('', *, *, #155, .F.);
#93 = ADVANCED_FACE('', (#94), #242, .T.);
#94 = FACE_BOUND('', #95, .T.);
#95 = EDGE_LOOP('', (#96, #97, #98, #99, #100, #101));
#96 = ORIENTED_EDGE('', *, *, #168, .T.);
#97 = ORIENTED_EDGE('', *, *, #167, .T.);
#98 = ORIENTED_EDGE('', *, *, #165, .T.);
#99 = ORIENTED_EDGE('', *, *, #163, .T.);
#100 = ORIENTED_EDGE('', *, *, #161, .T.);
#101 = ORIENTED_EDGE('', *, *, #158, .T.);
#102 = ADVANCED_FACE('', (#103), #247, .T.);
#103 = FACE_BOUND('', #104, .T.);
#104 = EDGE_LOOP('', (#105, #106, #107, #108));
#105 = ORIENTED_EDGE('', *, *, #141, .T.);
#106 = ORIENTED_EDGE('', *, *, #145, .T.);
#107 = ORIENTED_EDGE('', *, *, #150, .F.);
#108 = ORIENTED_EDGE('', *, *, #169, .F.);
#109 = ADVANCED_FACE('', (#110), #252, .T.);
#110 = FACE_BOUND('', #111, .T.);
#111 = EDGE_LOOP('', (#112, #113, #114, #115));
#112 = ORIENTED_EDGE('', *, *, #140, .T.);
#113 = ORIENTED_EDGE('', *, *, #169, .T.);
#114 = ORIENTED_EDGE('', *, *, #149, .F.);
#115 = ORIENTED_EDGE('', *, *, #170, .F.);
#116 = ADVANCED_FACE('', (#117), #257, .T.);
#117 = FACE_BOUND('', #118, .T.);
#118 = EDGE_LOOP('', (#119, #120, #121, #122));
#119 = ORIENTED_EDGE('', *, *, #139, .T.);
#120 = ORIENTED_EDGE('', *, *, #170, .T.);
#121 = ORIENTED_EDGE('', *, *, #148, .F.);
#122 = ORIENTED_EDGE('', *, *, #171, .F.);
#123 = ADVANCED_FACE('', (#124), #262, .T.);
#124 = FACE_BOUND('', #125, .T.);
#125 = EDGE_LOOP('', (#126, #127, #128, #129));
#126 = ORIENTED_EDGE('', *, *, #138, .T.);
#127 = ORIENTED_EDGE('', *, *, #171, .T.);
#128 = ORIENTED_EDGE('', *, *, #147, .F.);
#129 = ORIENTED_EDGE('', *, *, #172, .F.);
#130 = ADVANCED_FACE('', (#131), #267, .T.);
#131 = FACE_BOUND('', #132, .T.);
#132 = EDGE_LOOP('', (#133, #134, #135, #136));
#133 = ORIENTED_EDGE('', *, *, #137, .T.);
#134 = ORIENTED_EDGE('', *, *, #172, .T.);
#135 = ORIENTED_EDGE('', *, *, #146, .F.);
#136 = ORIENTED_EDGE('', *, *, #143, .F.);
#137 = EDGE_CURVE('', #173, #174, #272, .T.);
#138 = EDGE_CURVE('', #174, #175, #277, .T.);
#139 = EDGE_CURVE('', #175, #176, #282, .T.);
#140 = EDGE_CURVE('', #176, #177, #287, .T.);
#141 = EDGE_CURVE('', #177, #178, #292, .T.);
#142 = EDGE_CURVE('', #178, #173, #297, .T.);
#143 = EDGE_CURVE('', #173, #179, #302, .T.);
#144 = EDGE_CURVE('', #180, #179, #307, .T.);
#145 = EDGE_CURVE('', #178, #180, #312, .T.);
#146 = EDGE_CURVE('', #179, #181, #317, .T.);
#147 = EDGE_CURVE('', #181, #182, #322, .T.);
#148 = EDGE_CURVE('', #182, #183, #327, .T.);
#149 = EDGE_CURVE('', #183, #184, #332, .T.);
#150 = EDGE_CURVE('', #184, #180, #337, .T.);
#151 = EDGE_CURVE('', #185, #186, #342, .T.);
#152 = EDGE_CURVE('', #186, #187, #358, .T.);
#153 = EDGE_CURVE('', #188, #187, #375, .T.);
#154 = EDGE_CURVE('', #189, #188, #393, .T.);
#155 = EDGE_CURVE('', #190, #189, #410, .T.);
#156 = EDGE_CURVE('', #185, #190, #426, .T.);
#157 = EDGE_CURVE('', #191, #185, #444, .T.);
#158 = EDGE_CURVE('', #191, #192, #449, .T.);
#159 = EDGE_CURVE('', #192, #190, #454, .T.);
#160 = EDGE_CURVE('', #193, #186, #459, .T.);
#161 = EDGE_CURVE('', #193, #191, #464, .T.);
#162 = EDGE_CURVE('', #194, #187, #469, .T.);
#163 = EDGE_CURVE('', #194, #193, #474, .T.);
#164 = EDGE_CURVE('', #195, #188, #479, .T.);
#165 = EDGE_CURVE('', #195, #194, #484, .T.);
#166 = EDGE_CURVE('', #196, #189, #489, .T.);
#167 = EDGE_CURVE('', #196, #195, #494, .T.);
#168 = EDGE_CURVE('', #192, #196, #499, .T.);
#169 = EDGE_CURVE('', #177, #184, #504, .T.);
#170 = EDGE_CURVE('', #176, #183, #509, .T.);
#171 = EDGE_CURVE('', #175, #182, #514, .T.);
#172 = EDGE_CURVE('', #174, #181, #519, .T.);
#173 = VERTEX_POINT('', #524);
#174 = VERTEX_POINT('', #525);
#175 = VERTEX_POINT('', #526);
#176 = VERTEX_POINT('', #527);
#177 = VERTEX_POINT('', #528);
#178 = VERTEX_POINT('', #529);
#179 = VERTEX_POINT('', #530);
#180 = VERTEX_POINT('', #531);
#181 = VERTEX_POINT('', #532);
#182 = VERTEX_POINT('', #533);
#183 = VERTEX_POINT('', #534);
#184 = VERTEX_POINT('', #535);
#185 = VERTEX_POINT('', #536);
#186 = VERTEX_POINT('', #537);
#187 = VERTEX_POINT('', #538);
#188 = VERTEX_POINT('', #539);
#189 = VERTEX_POINT('', #540);
#190 = VERTEX_POINT('', #541);
#191 = VERTEX_POINT('', #542);
#192 = VERTEX_POINT('', #543);
#193 = VERTEX_POINT('', #544);
#194 = VERTEX_POINT('', #545);
#195 = VERTEX_POINT('', #546);
#196 = VERTEX_POINT('', #547);
#197 = PLANE('', #198);
#198 = AXIS2_PLACEMENT_3D('', #199, #200, #201);
#199 = CARTESIAN_POINT('', (163.0, -77.0, 0.0));
#200 = DIRECTION('', (0.0, 0.0, 1.0));
#201 = DIRECTION('', (-1.0, 0.0, 0.0));
#202 = PLANE('', #203);
#203 = AXIS2_PLACEMENT_3D('', #204, #205, #206);
#204 = CARTESIAN_POINT('', (163.0, -77.0, 0.0));
#205 = DIRECTION('', (0.0, 1.0, -0.0));
#206 = DIRECTION('', (-1.0, 0.0, 0.0));
#207 = PLANE('', #208);
#208 = AXIS2_PLACEMENT_3D('', #209, #210, #211);
#209 = CARTESIAN_POINT('', (163.0, -77.0, 13.0));
#210 = DIRECTION('', (0.0, 0.0, 1.0));
#211 = DIRECTION('', (-1.0, 0.0, 0.0));
#212 = PLANE('', #213);
#213 = AXIS2_PLACEMENT_3D('', #214, #215, #216);
#214 = CARTESIAN_POINT('', (161.0000001, -78.9999998, 2.0000003));
#215 = DIRECTION('', (0.0, 1.0, -0.0));
#216 = DIRECTION('', (-1.0, 0.0, 0.0));
#217 = PLANE('', #218);
#218 = AXIS2_PLACEMENT_3D('', #219, #220, #221);
#219 = CARTESIAN_POINT('', (161.0000001, -100.9999998, 2.0000003));
#220 = DIRECTION('', (1.0, 0.0, 0.0));
#221 = DIRECTION('', (0.0, 1.0, 0.0));
#222 = PLANE('', #223);
#223 = AXIS2_PLACEMENT_3D('', #224, #225, #226);
#224 = CARTESIAN_POINT('', (126.0000001, -100.9999998, 2.0000003));
#225 = DIRECTION('', (0.0, -1.0, 0.0));
#226 = DIRECTION('', (1.0, 0.0, 0.0));
#227 = PLANE('', #228);
#228 = AXIS2_PLACEMENT_3D('', #229, #230, #231);
#229 = CARTESIAN_POINT('', (126.0000001, -120.9999998, 2.0000003));
#230 = DIRECTION('', (1.0, 0.0, 0.0));
#231 = DIRECTION('', (0.0, 1.0, 0.0));
#232 = PLANE('', #233);
#233 = AXIS2_PLACEMENT_3D('', #234, #235, #236);
#234 = CARTESIAN_POINT('', (99.0000001, -120.9999998, 2.0000003));
#235 = DIRECTION('', (0.0, -1.0, 0.0));
#236 = DIRECTION('', (1.0, 0.0, 0.0));
#237 = PLANE('', #238);
#238 = AXIS2_PLACEMENT_3D('', #239, #240, #241);
#239 = CARTESIAN_POINT('', (99.0000001, -78.9999998, 2.0000003));
#240 = DIRECTION('', (-1.0, 0.0, 0.0));
#241 = DIRECTION('', (0.0, -1.0, 0.0));
#242 = PLANE('', #243);
#243 = AXIS2_PLACEMENT_3D('', #244, #245, #246);
#244 = CARTESIAN_POINT('', (161.0000001, -78.9999998, 2.0000003));
#245 = DIRECTION('', (0.0, 0.0, 1.0));
#246 = DIRECTION('', (-1.0, 0.0, 0.0));
#247 = PLANE('', #248);
#248 = AXIS2_PLACEMENT_3D('', #249, #250, #251);
#249 = CARTESIAN_POINT('', (163.0, -103.0, 0.0));
#250 = DIRECTION('', (1.0, 0.0, 0.0));
#251 = DIRECTION('', (0.0, 1.0, 0.0));
#252 = PLANE('', #253);
#253 = AXIS2_PLACEMENT_3D('', #254, #255, #256);
#254 = CARTESIAN_POINT('', (128.0, -103.0, 0.0));
#255 = DIRECTION('', (0.0, -1.0, 0.0));
#256 = DIRECTION('', (1.0, 0.0, 0.0));
#257 = PLANE('', #258);
#258 = AXIS2_PLACEMENT_3D('', #259, #260, #261);
#259 = CARTESIAN_POINT('', (128.0, -123.0, 0.0));
#260 = DIRECTION('', (1.0, 0.0, 0.0));
#261 = DIRECTION('', (0.0, 1.0, 0.0));
#262 = PLANE('', #263);
#263 = AXIS2_PLACEMENT_3D('', #264, #265, #266);
#264 = CARTESIAN_POINT('', (97.0, -123.0, 0.0));
#265 = DIRECTION('', (0.0, -1.0, 0.0));
#266 = DIRECTION('', (1.0, 0.0, 0.0));
#267 = PLANE('', #268);
#268 = AXIS2_PLACEMENT_3D('', #269, #270, #271);
#269 = CARTESIAN_POINT('', (97.0, -77.0, 0.0));
#270 = DIRECTION('', (-1.0, 0.0, 0.0));
#271 = DIRECTION('', (0.0, -1.0, 0.0));
#272 = SURFACE_CURVE('', #273, (#197, #267), .CURVE_3D.);
#273 = LINE('', #274, #275);
#274 = CARTESIAN_POINT('', (97.0, -77.0, 0.0));
#275 = VECTOR('', #276, 46.0);
#276 = DIRECTION('', (0.0, -1.0, 0.0));
#277 = SURFACE_CURVE('', #278, (#197, #262), .CURVE_3D.);
#278 = LINE('', #279, #280);
#279 = CARTESIAN_POINT('', (97.0, -123.0, 0.0));
#280 = VECTOR('', #281, 31.0);
#281 = DIRECTION('', (1.0, 0.0, 0.0));
#282 = SURFACE_CURVE('', #283, (#197, #257), .CURVE_3D.);
#283 = LINE('', #284, #285);
#284 = CARTESIAN_POINT('', (128.0, -123.0, 0.0));
#285 = VECTOR('', #286, 20.0);
#286 = DIRECTION('', (0.0, 1.0, 0.0));
#287 = SURFACE_CURVE('', #288, (#197, #252), .CURVE_3D.);
#288 = LINE('', #289, #290);
#289 = CARTESIAN_POINT('', (128.0, -103.0, 0.0));
#290 = VECTOR('', #291, 35.0);
#291 = DIRECTION('', (1.0, 0.0, 0.0));
#292 = SURFACE_CURVE('', #293, (#197, #247), .CURVE_3D.);
#293 = LINE('', #294, #295);
#294 = CARTESIAN_POINT('', (163.0, -103.0, 0.0));
#295 = VECTOR('', #296, 26.0);
#296 = DIRECTION('', (0.0, 1.0, 0.0));
#297 = SURFACE_CURVE('', #298, (#197, #202), .CURVE_3D.);
#298 = LINE('', #299, #300);
#299 = CARTESIAN_POINT('', (163.0, -77.0, 0.0));
#300 = VECTOR('', #301, 66.0);
#301 = DIRECTION('', (-1.0, 0.0, 0.0));
#302 = SURFACE_CURVE('', #303, (#202, #267), .CURVE_3D.);
#303 = LINE('', #304, #305);
#304 = CARTESIAN_POINT('', (97.0, -77.0, 0.0));
#305 = VECTOR('', #306, 13.0);
#306 = DIRECTION('', (0.0, 0.0, 1.0));
#307 = SURFACE_CURVE('', #308, (#202, #207), .CURVE_3D.);
#308 = LINE('', #309, #310);
#309 = CARTESIAN_POINT('', (163.0, -77.0, 13.0));
#310 = VECTOR('', #311, 66.0);
#311 = DIRECTION('', (-1.0, 0.0, 0.0));
#312 = SURFACE_CURVE('', #313, (#202, #247), .CURVE_3D.);
#313 = LINE('', #314, #315);
#314 = CARTESIAN_POINT('', (163.0, -77.0, 0.0));
#315 = VECTOR('', #316, 13.0);
#316 = DIRECTION('', (0.0, 0.0, 1.0));
#317 = SURFACE_CURVE('', #318, (#207, #267), .CURVE_3D.);
#318 = LINE('', #319, #320);
#319 = CARTESIAN_POINT('', (97.0, -77.0, 13.0));
#320 = VECTOR('', #321, 46.0);
#321 = DIRECTION('', (0.0, -1.0, 0.0));
#322 = SURFACE_CURVE('', #323, (#207, #262), .CURVE_3D.);
#323 = LINE('', #324, #325);
#324 = CARTESIAN_POINT('', (97.0, -123.0, 13.0));
#325 = VECTOR('', #326, 31.0);
#326 = DIRECTION('', (1.0, 0.0, 0.0));
#327 = SURFACE_CURVE('', #328, (#207, #257), .CURVE_3D.);
#328 = LINE('', #329, #330);
#329 = CARTESIAN_POINT('', (128.0, -123.0, 13.0));
#330 = VECTOR('', #331, 20.0);
#331 = DIRECTION('', (0.0, 1.0, 0.0));
#332 = SURFACE_CURVE('', #333, (#207, #252), .CURVE_3D.);
#333 = LINE('', #334, #335);
#334 = CARTESIAN_POINT('', (128.0, -103.0, 13.0));
#335 = VECTOR('', #336, 35.0);
#336 = DIRECTION('', (1.0, 0.0, 0.0));
#337 = SURFACE_CURVE('', #338, (#207, #247), .CURVE_3D.);
#338 = LINE('', #339, #340);
#339 = CARTESIAN_POINT('', (163.0, -103.0, 13.0));
#340 = VECTOR('', #341, 26.0);
#341 = DIRECTION('', (0.0, 1.0, 0.0));
#342 = SURFACE_CURVE('', #343, (#207, #217), .CURVE_3D.);
#343 = INTERSECTION_CURVE('', #344, (#348, #353), .CURVE_3D.);
#344 = B_SPLINE_CURVE_WITH_KNOTS('', 1, (#345, #346, #347), .UNSPECIFIED., .U., .U., (2, 1, 2), (0.0, 0.5, 1.0), .UNSPECIFIED.);
#345 = CARTESIAN_POINT('', (161.0000001, -78.9999998, 13.0));
#346 = CARTESIAN_POINT('', (161.0000001, -85.8750002125, 13.0));
#347 = CARTESIAN_POINT('', (161.0000001, -100.9999998, 13.0));
#348 = PLANE('', #349);
#349 = AXIS2_PLACEMENT_3D('', #350, #351, #352);
#350 = CARTESIAN_POINT('', (163.0, -77.0, 13.0));
#351 = DIRECTION('', (0.0, 0.0, 1.0));
#352 = DIRECTION('', (-1.0, 0.0, 0.0));
#353 = PLANE('', #354);
#354 = AXIS2_PLACEMENT_3D('', #355, #356, #357);
#355 = CARTESIAN_POINT('', (161.0000001, -100.9999998, 2.0000003));
#356 = DIRECTION('', (1.0, 0.0, 0.0));
#357 = DIRECTION('', (0.0, 1.0, 0.0));
#358 = SURFACE_CURVE('', #359, (#207, #222), .CURVE_3D.);
#359 = INTERSECTION_CURVE('', #360, (#365, #370), .CURVE_3D.);
#360 = B_SPLINE_CURVE_WITH_KNOTS('', 1, (#361, #362, #363, #364), .UNSPECIFIED., .U., .U., (2, 1, 1, 2), (0.0, 0.3333333333333333, 0.6666666666666666, 1.0), .UNSPECIFIED.);
#361 = CARTESIAN_POINT('', (161.0000001, -100.9999998, 13.0));
#362 = CARTESIAN_POINT('', (150.06249944375, -100.9999998, 13.0));
#363 = CARTESIAN_POINT('', (130.69230796153846, -100.9999998, 13.0));
#364 = CARTESIAN_POINT('', (126.0000001, -100.9999998, 13.000000000000002));
#365 = PLANE('', #366);
#366 = AXIS2_PLACEMENT_3D('', #367, #368, #369);
#367 = CARTESIAN_POINT('', (163.0, -77.0, 13.0));
#368 = DIRECTION('', (0.0, 0.0, 1.0));
#369 = DIRECTION('', (-1.0, 0.0, 0.0));
#370 = PLANE('', #371);
#371 = AXIS2_PLACEMENT_3D('', #372, #373, #374);
#372 = CARTESIAN_POINT('', (126.0000001, -100.9999998, 2.0000003));
#373 = DIRECTION('', (0.0, -1.0, 0.0));
#374 = DIRECTION('', (1.0, 0.0, 0.0));
#375 = SURFACE_CURVE('', #376, (#207, #227), .CURVE_3D.);
#376 = INTERSECTION_CURVE('', #377, (#383, #388), .CURVE_3D.);
#377 = B_SPLINE_CURVE_WITH_KNOTS('', 1, (#378, #379, #380, #381, #382), .UNSPECIFIED., .U., .U., (2, 1, 1, 1, 2), (0.0, 0.25, 0.5, 0.75, 1.0), .UNSPECIFIED.);
#378 = CARTESIAN_POINT('', (126.0000001, -120.9999998, 13.0));
#379 = CARTESIAN_POINT('', (126.0000001, -107.250000175, 13.0));
#380 = CARTESIAN_POINT('', (126.0000001, -104.29032251612904, 13.0));
#381 = CARTESIAN_POINT('', (126.0000001, -101.32258072903225, 13.0));
#382 = CARTESIAN_POINT('', (126.0000001, -100.9999998, 13.000000000000002));
#383 = PLANE('', #384);
#384 = AXIS2_PLACEMENT_3D('', #385, #386, #387);
#385 = CARTESIAN_POINT('', (163.0, -77.0, 13.0));
#386 = DIRECTION('', (0.0, 0.0, 1.0));
#387 = DIRECTION('', (-1.0, 0.0, 0.0));
#388 = PLANE('', #389);
#389 = AXIS2_PLACEMENT_3D('', #390, #391, #392);
#390 = CARTESIAN_POINT('', (126.0000001, -120.9999998, 2.0000003));
#391 = DIRECTION('', (1.0, 0.0, 0.0));
#392 = DIRECTION('', (0.0, 1.0, 0.0));
#393 = SURFACE_CURVE('', #394, (#207, #232), .CURVE_3D.);
#394 = INTERSECTION_CURVE('', #395, (#400, #405), .CURVE_3D.);
#395 = B_SPLINE_CURVE_WITH_KNOTS('', 1, (#396, #397, #398, #399), .UNSPECIFIED., .U., .U., (2, 1, 1, 2), (0.0, 0.3333333333333333, 0.6666666666666666, 1.0), .UNSPECIFIED.);
#396 = CARTESIAN_POINT('', (99.0000001, -120.9999998, 13.0));
#397 = CARTESIAN_POINT('', (100.10000031000001, -120.9999998, 13.0));
#398 = CARTESIAN_POINT('', (117.56249959374999, -120.9999998, 13.0));
#399 = CARTESIAN_POINT('', (126.0000001, -120.9999998, 13.0));
#400 = PLANE('', #401);
#401 = AXIS2_PLACEMENT_3D('', #402, #403, #404);
#402 = CARTESIAN_POINT('', (163.0, -77.0, 13.0));
#403 = DIRECTION('', (0.0, 0.0, 1.0));
#404 = DIRECTION('', (-1.0, 0.0, 0.0));
#405 = PLANE('', #406);
#406 = AXIS2_PLACEMENT_3D('', #407, #408, #409);
#407 = CARTESIAN_POINT('', (99.0000001, -120.9999998, 2.0000003));
#408 = DIRECTION('', (0.0, -1.0, 0.0));
#409 = DIRECTION('', (1.0, 0.0, 0.0));
#410 = SURFACE_CURVE('', #411, (#207, #237), .CURVE_3D.);
#411 = INTERSECTION_CURVE('', #412, (#416, #421), .CURVE_3D.);
#412 = B_SPLINE_CURVE_WITH_KNOTS('', 1, (#413, #414, #415), .UNSPECIFIED., .U., .U., (2, 1, 2), (0.0, 0.5, 1.0), .UNSPECIFIED.);
#413 = CARTESIAN_POINT('', (99.0000001, -78.9999998, 13.0));
#414 = CARTESIAN_POINT('', (99.0000001, -107.8749990125, 13.0));
#415 = CARTESIAN_POINT('', (99.0000001, -120.9999998, 13.0));
#416 = PLANE('', #417);
#417 = AXIS2_PLACEMENT_3D('', #418, #419, #420);
#418 = CARTESIAN_POINT('', (163.0, -77.0, 13.0));
#419 = DIRECTION('', (0.0, 0.0, 1.0));
#420 = DIRECTION('', (-1.0, 0.0, 0.0));
#421 = PLANE('', #422);
#422 = AXIS2_PLACEMENT_3D('', #423, #424, #425);
#423 = CARTESIAN_POINT('', (99.0000001, -78.9999998, 2.0000003));
#424 = DIRECTION('', (-1.0, 0.0, 0.0));
#425 = DIRECTION('', (0.0, -1.0, 0.0));
#426 = SURFACE_CURVE('', #427, (#207, #212), .CURVE_3D.);
#427 = INTERSECTION_CURVE('', #428, (#434, #439), .CURVE_3D.);
#428 = B_SPLINE_CURVE_WITH_KNOTS('', 1, (#429, #430, #431, #432, #433), .UNSPECIFIED., .U., .U., (2, 1, 1, 1, 2), (0.0, 0.25, 0.5, 0.75, 1.0), .UNSPECIFIED.);
#429 = CARTESIAN_POINT('', (161.0000001, -78.9999998, 13.0));
#430 = CARTESIAN_POINT('', (160.30769257692307, -78.9999998, 13.0));
#431 = CARTESIAN_POINT('', (118.37500126249999, -78.9999998, 13.0));
#432 = CARTESIAN_POINT('', (99.38461514615383, -78.9999998, 13.0));
#433 = CARTESIAN_POINT('', (99.0000001, -78.9999998, 13.0));
#434 = PLANE('', #435);
#435 = AXIS2_PLACEMENT_3D('', #436, #437, #438);
#436 = CARTESIAN_POINT('', (163.0, -77.0, 13.0));
#437 = DIRECTION('', (0.0, 0.0, 1.0));
#438 = DIRECTION('', (-1.0, 0.0, 0.0));
#439 = PLANE('', #440);
#440 = AXIS2_PLACEMENT_3D('', #441, #442, #443);
#441 = CARTESIAN_POINT('', (161.0000001, -78.9999998, 2.0000003));
#442 = DIRECTION('', (0.0, 1.0, -0.0));
#443 = DIRECTION('', (-1.0, 0.0, 0.0));
#444 = SURFACE_CURVE('', #445, (#212, #217), .CURVE_3D.);
#445 = LINE('', #446, #447);
#446 = CARTESIAN_POINT('', (161.0000001, -78.9999998, 2.0000003));
#447 = VECTOR('', #448, 10.9999997);
#448 = DIRECTION('', (0.0, 0.0, 1.0));
#449 = SURFACE_CURVE('', #450, (#212, #242), .CURVE_3D.);
#450 = LINE('', #451, #452);
#451 = CARTESIAN_POINT('', (161.0000001, -78.9999998, 2.0000003));
#452 = VECTOR('', #453, 62.0);
#453 = DIRECTION('', (-1.0, 0.0, 0.0));
#454 = SURFACE_CURVE('', #455, (#212, #237), .CURVE_3D.);
#455 = LINE('', #456, #457);
#456 = CARTESIAN_POINT('', (99.0000001, -78.9999998, 2.0000003));
#457 = VECTOR('', #458, 10.9999997);
#458 = DIRECTION('', (0.0, 0.0, 1.0));
#459 = SURFACE_CURVE('', #460, (#217, #222), .CURVE_3D.);
#460 = LINE('', #461, #462);
#461 = CARTESIAN_POINT('', (161.0000001, -100.9999998, 2.0000003));
#462 = VECTOR('', #463, 10.9999997);
#463 = DIRECTION('', (0.0, 0.0, 1.0));
#464 = SURFACE_CURVE('', #465, (#217, #242), .CURVE_3D.);
#465 = LINE('', #466, #467);
#466 = CARTESIAN_POINT('', (161.0000001, -100.9999998, 2.0000003));
#467 = VECTOR('', #468, 22.0);
#468 = DIRECTION('', (0.0, 1.0, 0.0));
#469 = SURFACE_CURVE('', #470, (#222, #227), .CURVE_3D.);
#470 = LINE('', #471, #472);
#471 = CARTESIAN_POINT('', (126.0000001, -100.9999998, 2.0000003));
#472 = VECTOR('', #473, 10.999999700000002);
#473 = DIRECTION('', (0.0, 0.0, 1.0));
#474 = SURFACE_CURVE('', #475, (#222, #242), .CURVE_3D.);
#475 = LINE('', #476, #477);
#476 = CARTESIAN_POINT('', (126.0000001, -100.9999998, 2.0000003));
#477 = VECTOR('', #478, 35.0);
#478 = DIRECTION('', (1.0, 0.0, 0.0));
#479 = SURFACE_CURVE('', #480, (#227, #232), .CURVE_3D.);
#480 = LINE('', #481, #482);
#481 = CARTESIAN_POINT('', (126.0000001, -120.9999998, 2.0000003));
#482 = VECTOR('', #483, 10.9999997);
#483 = DIRECTION('', (0.0, 0.0, 1.0));
#484 = SURFACE_CURVE('', #485, (#227, #242), .CURVE_3D.);
#485 = LINE('', #486, #487);
#486 = CARTESIAN_POINT('', (126.0000001, -120.9999998, 2.0000003));
#487 = VECTOR('', #488, 20.0);
#488 = DIRECTION('', (0.0, 1.0, 0.0));
#489 = SURFACE_CURVE('', #490, (#232, #237), .CURVE_3D.);
#490 = LINE('', #491, #492);
#491 = CARTESIAN_POINT('', (99.0000001, -120.9999998, 2.0000003));
#492 = VECTOR('', #493, 10.9999997);
#493 = DIRECTION('', (0.0, 0.0, 1.0));
#494 = SURFACE_CURVE('', #495, (#232, #242), .CURVE_3D.);
#495 = LINE('', #496, #497);
#496 = CARTESIAN_POINT('', (99.0000001, -120.9999998, 2.0000003));
#497 = VECTOR('', #498, 27.0);
#498 = DIRECTION('', (1.0, 0.0, 0.0));
#499 = SURFACE_CURVE('', #500, (#237, #242), .CURVE_3D.);
#500 = LINE('', #501, #502);
#501 = CARTESIAN_POINT('', (99.0000001, -78.9999998, 2.0000003));
#502 = VECTOR('', #503, 42.0);
#503 = DIRECTION('', (0.0, -1.0, 0.0));
#504 = SURFACE_CURVE('', #505, (#247, #252), .CURVE_3D.);
#505 = LINE('', #506, #507);
#506 = CARTESIAN_POINT('', (163.0, -103.0, 0.0));
#507 = VECTOR('', #508, 13.0);
#508 = DIRECTION('', (0.0, 0.0, 1.0));
#509 = SURFACE_CURVE('', #510, (#252, #257), .CURVE_3D.);
#510 = LINE('', #511, #512);
#511 = CARTESIAN_POINT('', (128.0, -103.0, 0.0));
#512 = VECTOR('', #513, 13.0);
#513 = DIRECTION('', (0.0, 0.0, 1.0));
#514 = SURFACE_CURVE('', #515, (#257, #262), .CURVE_3D.);
#515 = LINE('', #516, #517);
#516 = CARTESIAN_POINT('', (128.0, -123.0, 0.0));
#517 = VECTOR('', #518, 13.0);
#518 = DIRECTION('', (0.0, 0.0, 1.0));
#519 = SURFACE_CURVE('', #520, (#262, #267), .CURVE_3D.);
#520 = LINE('', #521, #522);
#521 = CARTESIAN_POINT('', (97.0, -123.0, 0.0));
#522 = VECTOR('', #523, 13.0);
#523 = DIRECTION('', (0.0, 0.0, 1.0));
#524 = CARTESIAN_POINT('', (97.0, -77.0, 0.0));
#525 = CARTESIAN_POINT('', (97.0, -123.0, 0.0));
#526 = CARTESIAN_POINT('', (128.0, -123.0, 0.0));
#527 = CARTESIAN_POINT('', (128.0, -103.0, 0.0));
#528 = CARTESIAN_POINT('', (163.0, -103.0, 0.0));
#529 = CARTESIAN_POINT('', (163.0, -77.0, 0.0));
#530 = CARTESIAN_POINT('', (97.0, -77.0, 13.0));
#531 = CARTESIAN_POINT('', (163.0, -77.0, 13.0));
#532 = CARTESIAN_POINT('', (97.0, -123.0, 13.0));
#533 = CARTESIAN_POINT('', (128.0, -123.0, 13.0));
#534 = CARTESIAN_POINT('', (128.0, -103.0, 13.0));
#535 = CARTESIAN_POINT('', (163.0, -103.0, 13.0));
#536 = CARTESIAN_POINT('', (161.0000001, -78.9999998, 13.0));
#537 = CARTESIAN_POINT('', (161.0000001, -100.9999998, 13.0));
#538 = CARTESIAN_POINT('', (126.0000001, -100.9999998, 13.000000000000002));
#539 = CARTESIAN_POINT('', (126.0000001, -120.9999998, 13.0));
#540 = CARTESIAN_POINT('', (99.0000001, -120.9999998, 13.0));
#541 = CARTESIAN_POINT('', (99.0000001, -78.9999998, 13.0));
#542 = CARTESIAN_POINT('', (161.0000001, -78.9999998, 2.0000003));
#543 = CARTESIAN_POINT('', (99.0000001, -78.9999998, 2.0000003));
#544 = CARTESIAN_POINT('', (161.0000001, -100.9999998, 2.0000003));
#545 = CARTESIAN_POINT('', (126.0000001, -100.9999998, 2.0000003));
#546 = CARTESIAN_POINT('', (126.0000001, -120.9999998, 2.0000003));
#547 = CARTESIAN_POINT('', (99.0000001, -120.9999998, 2.0000003));
#548 = MANIFOLD_SOLID_BREP('', #549);
#549 = CLOSED_SHELL('', (#550, #567, #574, #581, #598, #605, #612, #621, #628, #635, #642, #649, #656, #663, #670, #677, #684, #691, #698, #705, #712, #719));
#550 = ADVANCED_FACE('', (#551, #559), #818, .F.);
#551 = FACE_BOUND('', #552, .F.);
#552 = EDGE_LOOP('', (#553, #554, #555, #556, #557, #558));
#553 = ORIENTED_EDGE('', *, *, #728, .T.);
#554 = ORIENTED_EDGE('', *, *, #729, .T.);
#555 = ORIENTED_EDGE('', *, *, #730, .T.);
#556 = ORIENTED_EDGE('', *, *, #731, .T.);
#557 = ORIENTED_EDGE('', *, *, #732, .T.);
#558 = ORIENTED_EDGE('', *, *, #733, .T.);
#559 = FACE_BOUND('', #560, .F.);
#560 = EDGE_LOOP('', (#561, #562, #563, #564, #565, #566));
#561 = ORIENTED_EDGE('', *, *, #734, .F.);
#562 = ORIENTED_EDGE('', *, *, #735, .T.);
#563 = ORIENTED_EDGE('', *, *, #736, .T.);
#564 = ORIENTED_EDGE('', *, *, #737, .T.);
#565 = ORIENTED_EDGE('', *, *, #738, .T.);
#566 = ORIENTED_EDGE('', *, *, #739, .F.);
#567 = ADVANCED_FACE('', (#568), #823, .T.);
#568 = FACE_BOUND('', #569, .T.);
#569 = EDGE_LOOP('', (#570, #571, #572, #573));
#570 = ORIENTED_EDGE('', *, *, #740, .F.);
#571 = ORIENTED_EDGE('', *, *, #741, .T.);
#572 = ORIENTED_EDGE('', *, *, #742, .T.);
#573 = ORIENTED_EDGE('', *, *, #739, .F.);
#574 = ADVANCED_FACE('', (#575), #828, .T.);
#575 = FACE_BOUND('', #576, .T.);
#576 = EDGE_LOOP('', (#577, #578, #579, #580));
#577 = ORIENTED_EDGE('', *, *, #738, .T.);
#578 = ORIENTED_EDGE('', *, *, #742, .F.);
#579 = ORIENTED_EDGE('', *, *, #743, .T.);
#580 = ORIENTED_EDGE('', *, *, #744, .T.);
#581 = ADVANCED_FACE('', (#582, #590), #833, .F.);
#582 = FACE_BOUND('', #583, .F.);
#583 = EDGE_LOOP('', (#584, #585, #586, #587, #588, #589));
#584 = ORIENTED_EDGE('', *, *, #743, .T.);
#585 = ORIENTED_EDGE('', *, *, #745, .T.);
#586 = ORIENTED_EDGE('', *, *, #746, .T.);
#587 = ORIENTED_EDGE('', *, *, #747, .T.);
#588 = ORIENTED_EDGE('', *, *, #748, .T.);
#589 = ORIENTED_EDGE('', *, *, #741, .T.);
#590 = FACE_BOUND('', #591, .F.);
#591 = EDGE_LOOP('', (#592, #593, #594, #595, #596, #597));
#592 = ORIENTED_EDGE('', *, *, #749, .T.);
#593 = ORIENTED_EDGE('', *, *, #750, .F.);
#594 = ORIENTED_EDGE('', *, *, #751, .F.);
#595 = ORIENTED_EDGE('', *, *, #752, .F.);
#596 = ORIENTED_EDGE('', *, *, #753, .F.);
#597 = ORIENTED_EDGE('', *, *, #754, .T.);
#598 = ADVANCED_FACE('', (#599), #838, .F.);
#599 = FACE_BOUND('', #600, .F.);
#600 = EDGE_LOOP('', (#601, #602, #603, #604));
#601 = ORIENTED_EDGE('', *, *, #755, .T.);
#602 = ORIENTED_EDGE('', *, *, #756, .F.);
#603 = ORIENTED_EDGE('', *, *, #757, .F.);
#604 = ORIENTED_EDGE('', *, *, #754, .F.);
#605 = ADVANCED_FACE('', (#606), #843, .F.);
#606 = FACE_BOUND('', #607, .F.);
#607 = EDGE_LOOP('', (#608, #609, #610, #611));
#608 = ORIENTED_EDGE('', *, *, #757, .T.);
#609 = ORIENTED_EDGE('', *, *, #758, .F.);
#610 = ORIENTED_EDGE('', *, *, #759, .F.);
#611 = ORIENTED_EDGE('', *, *, #749, .F.);
#612 = ADVANCED_FACE('', (#613), #848, .F.);
#613 = FACE_BOUND('', #614, .F.);
#614 = EDGE_LOOP('', (#615, #616, #617, #618, #619, #620));
#615 = ORIENTED_EDGE('', *, *, #756, .T.);
#616 = ORIENTED_EDGE('', *, *, #760, .T.);
#617 = ORIENTED_EDGE('', *, *, #761, .T.);
#618 = ORIENTED_EDGE('', *, *, #762, .T.);
#619 = ORIENTED_EDGE('', *, *, #763, .T.);
#620 = ORIENTED_EDGE('', *, *, #758, .T.);
#621 = ADVANCED_FACE('', (#622), #853, .F.);
#622 = FACE_BOUND('', #623, .F.);
#623 = EDGE_LOOP('', (#624, #625, #626, #627));
#624 = ORIENTED_EDGE('', *, *, #750, .T.);
#625 = ORIENTED_EDGE('', *, *, #759, .T.);
#626 = ORIENTED_EDGE('', *, *, #763, .F.);
#627 = ORIENTED_EDGE('', *, *, #764, .F.);
#628 = ADVANCED_FACE('', (#629), #858, .F.);
#629 = FACE_BOUND('', #630, .F.);
#630 = EDGE_LOOP('', (#631, #632, #633, #634));
#631 = ORIENTED_EDGE('', *, *, #751, .T.);
#632 = ORIENTED_EDGE('', *, *, #764, .T.);
#633 = ORIENTED_EDGE('', *, *, #762, .F.);
#634 = ORIENTED_EDGE('', *, *, #765, .F.);
#635 = ADVANCED_FACE('', (#636), #863, .F.);
#636 = FACE_BOUND('', #637, .F.);
#637 = EDGE_LOOP('', (#638, #639, #640, #641));
#638 = ORIENTED_EDGE('', *, *, #752, .T.);
#639 = ORIENTED_EDGE('', *, *, #765, .T.);
#640 = ORIENTED_EDGE('', *, *, #761, .F.);
#641 = ORIENTED_EDGE('', *, *, #766, .F.);
#642 = ADVANCED_FACE('', (#643), #868, .F.);
#643 = FACE_BOUND('', #644, .F.);
#644 = EDGE_LOOP('', (#645, #646, #647, #648));
#645 = ORIENTED_EDGE('', *, *, #753, .T.);
#646 = ORIENTED_EDGE('', *, *, #766, .T.);
#647 = ORIENTED_EDGE('', *, *, #760, .F.);
#648 = ORIENTED_EDGE('', *, *, #755, .F.);
#649 = ADVANCED_FACE('', (#650), #873, .T.);
#650 = FACE_BOUND('', #651, .T.);
#651 = EDGE_LOOP('', (#652, #653, #654, #655));
#652 = ORIENTED_EDGE('', *, *, #737, .T.);
#653 = ORIENTED_EDGE('', *, *, #744, .F.);
#654 = ORIENTED_EDGE('', *, *, #745, .T.);
#655 = ORIENTED_EDGE('', *, *, #767, .T.);
#656 = ADVANCED_FACE('', (#657), #878, .T.);
#657 = FACE_BOUND('', #658, .T.);
#658 = EDGE_LOOP('', (#659, #660, #661, #662));
#659 = ORIENTED_EDGE('', *, *, #736, .T.);
#660 = ORIENTED_EDGE('', *, *, #767, .F.);
#661 = ORIENTED_EDGE('', *, *, #746, .T.);
#662 = ORIENTED_EDGE('', *, *, #768, .T.);
#663 = ADVANCED_FACE('', (#664), #883, .T.);
#664 = FACE_BOUND('', #665, .T.);
#665 = EDGE_LOOP('', (#666, #667, #668, #669));
#666 = ORIENTED_EDGE('', *, *, #735, .T.);
#667 = ORIENTED_EDGE('', *, *, #768, .F.);
#668 = ORIENTED_EDGE('', *, *, #747, .T.);
#669 = ORIENTED_EDGE('', *, *, #769, .T.);
#670 = ADVANCED_FACE('', (#671), #888, .T.);
#671 = FACE_BOUND('', #672, .T.);
#672 = EDGE_LOOP('', (#673, #674, #675, #676));
#673 = ORIENTED_EDGE('', *, *, #769, .F.);
#674 = ORIENTED_EDGE('', *, *, #748, .T.);
#675 = ORIENTED_EDGE('', *, *, #740, .T.);
#676 = ORIENTED_EDGE('', *, *, #734, .F.);
#677 = ADVANCED_FACE('', (#678), #893, .T.);
#678 = FACE_BOUND('', #679, .T.);
#679 = EDGE_LOOP('', (#680, #681, #682, #683));
#680 = ORIENTED_EDGE('', *, *, #733, .T.);
#681 = ORIENTED_EDGE('', *, *, #770, .T.);
#682 = ORIENTED_EDGE('', *, *, #771, .F.);
#683 = ORIENTED_EDGE('', *, *, #772, .F.);
#684 = ADVANCED_FACE('', (#685), #898, .T.);
#685 = FACE_BOUND('', #686, .T.);
#686 = EDGE_LOOP('', (#687, #688, #689, #690));
#687 = ORIENTED_EDGE('', *, *, #732, .T.);
#688 = ORIENTED_EDGE('', *, *, #772, .T.);
#689 = ORIENTED_EDGE('', *, *, #773, .F.);
#690 = ORIENTED_EDGE('', *, *, #774, .F.);
#691 = ADVANCED_FACE('', (#692), #903, .T.);
#692 = FACE_BOUND('', #693, .T.);
#693 = EDGE_LOOP('', (#694, #695, #696, #697));
#694 = ORIENTED_EDGE('', *, *, #731, .T.);
#695 = ORIENTED_EDGE('', *, *, #774, .T.);
#696 = ORIENTED_EDGE('', *, *, #775, .F.);
#697 = ORIENTED_EDGE('', *, *, #776, .F.);
#698 = ADVANCED_FACE('', (#699), #908, .T.);
#699 = FACE_BOUND('', #700, .T.);
#700 = EDGE_LOOP('', (#701, #702, #703, #704));
#701 = ORIENTED_EDGE('', *, *, #730, .T.);
#702 = ORIENTED_EDGE('', *, *, #776, .T.);
#703 = ORIENTED_EDGE('', *, *, #777, .F.);
#704 = ORIENTED_EDGE('', *, *, #778, .F.);
#705 = ADVANCED_FACE('', (#706), #913, .T.);
#706 = FACE_BOUND('', #707, .T.);
#707 = EDGE_LOOP('', (#708, #709, #710, #711));
#708 = ORIENTED_EDGE('', *, *, #729, .T.);
#709 = ORIENTED_EDGE('', *, *, #778, .T.);
#710 = ORIENTED_EDGE('', *, *, #779, .F.);
#711 = ORIENTED_EDGE('', *, *, #780, .F.);
#712 = ADVANCED_FACE('', (#713), #918, .T.);
#713 = FACE_BOUND('', #714, .T.);
#714 = EDGE_LOOP('', (#715, #716, #717, #718));
#715 = ORIENTED_EDGE('', *, *, #728, .T.);
#716 = ORIENTED_EDGE('', *, *, #780, .T.);
#717 = ORIENTED_EDGE('', *, *, #781, .F.);
#718 = ORIENTED_EDGE('', *, *, #770, .F.);
#719 = ADVANCED_FACE('', (#720), #923, .T.);
#720 = FACE_BOUND('', #721, .T.);
#721 = EDGE_LOOP('', (#722, #723, #724, #725, #726, #727));
#722 = ORIENTED_EDGE('', *, *, #781, .T.);
#723 = ORIENTED_EDGE('', *, *, #779, .T.);
#724 = ORIENTED_EDGE('', *, *, #777, .T.);
#725 = ORIENTED_EDGE('', *, *, #775, .T.);
#726 = ORIENTED_EDGE('', *, *, #773, .T.);
#727 = ORIENTED_EDGE('', *, *, #771, .T.);
#728 = EDGE_CURVE('', #782, #783, #928, .T.);
#729 = EDGE_CURVE('', #783, #784, #933, .T.);
#730 = EDGE_CURVE('', #784, #785, #938, .T.);
#731 = EDGE_CURVE('', #785, #786, #943, .T.);
#732 = EDGE_CURVE('', #786, #787, #948, .T.);
#733 = EDGE_CURVE('', #787, #782, #953, .T.);
#734 = EDGE_CURVE('', #788, #789, #958, .T.);
#735 = EDGE_CURVE('', #788, #790, #974, .T.);
#736 = EDGE_CURVE('', #790, #791, #991, .T.);
#737 = EDGE_CURVE('', #791, #792, #1009, .T.);
#738 = EDGE_CURVE('', #792, #793, #1026, .T.);
#739 = EDGE_CURVE('', #789, #793, #1042, .T.);
#740 = EDGE_CURVE('', #794, #789, #1060, .T.);
#741 = EDGE_CURVE('', #794, #795, #1065, .T.);
#742 = EDGE_CURVE('', #795, #793, #1070, .T.);
#743 = EDGE_CURVE('', #795, #796, #1075, .T.);
#744 = EDGE_CURVE('', #796, #792, #1080, .T.);
#745 = EDGE_CURVE('', #796, #797, #1085, .T.);
#746 = EDGE_CURVE('', #797, #798, #1090, .T.);
#747 = EDGE_CURVE('', #798, #799, #1095, .T.);
#748 = EDGE_CURVE('', #799, #794, #1100, .T.);
#749 = EDGE_CURVE('', #800, #801, #1105, .T.);
#750 = EDGE_CURVE('', #802, #801, #1123, .T.);
#751 = EDGE_CURVE('', #803, #802, #1139, .T.);
#752 = EDGE_CURVE('', #804, #803, #1156, .T.);
#753 = EDGE_CURVE('', #805, #804, #1174, .T.);
#754 = EDGE_CURVE('', #805, #800, #1191, .T.);
#755 = EDGE_CURVE('', #805, #806, #1207, .T.);
#756 = EDGE_CURVE('', #807, #806, #1212, .T.);
#757 = EDGE_CURVE('', #800, #807, #1217, .T.);
#758 = EDGE_CURVE('', #808, #807, #1222, .T.);
#759 = EDGE_CURVE('', #801, #808, #1227, .T.);
#760 = EDGE_CURVE('', #806, #809, #1232, .T.);
#761 = EDGE_CURVE('', #809, #810, #1237, .T.);
#762 = EDGE_CURVE('', #810, #811, #1242, .T.);
#763 = EDGE_CURVE('', #811, #808, #1247, .T.);
#764 = EDGE_CURVE('', #802, #811, #1252, .T.);
#765 = EDGE_CURVE('', #803, #810, #1257, .T.);
#766 = EDGE_CURVE('', #804, #809, #1262, .T.);
#767 = EDGE_CURVE('', #797, #791, #1267, .T.);
#768 = EDGE_CURVE('', #798, #790, #1272, .T.);
#769 = EDGE_CURVE('', #799, #788, #1277, .T.);
#770 = EDGE_CURVE('', #782, #812, #1282, .T.);
#771 = EDGE_CURVE('', #813, #812, #1287, .T.);
#772 = EDGE_CURVE('', #787, #813, #1292, .T.);
#773 = EDGE_CURVE('', #814, #813, #1297, .T.);
#774 = EDGE_CURVE('', #786, #814, #1302, .T.);
#775 = EDGE_CURVE('', #815, #814, #1307, .T.);
#776 = EDGE_CURVE('', #785, #815, #1312, .T.);
#777 = EDGE_CURVE('', #816, #815, #1317, .T.);
#778 = EDGE_CURVE('', #784, #816, #1322, .T.);
#779 = EDGE_CURVE('', #817, #816, #1327, .T.);
#780 = EDGE_CURVE('', #783, #817, #1332, .T.);
#781 = EDGE_CURVE('', #812, #817, #1337, .T.);
#782 = VERTEX_POINT('', #1342);
#783 = VERTEX_POINT('', #1343);
#784 = VERTEX_POINT('', #1344);
#785 = VERTEX_POINT('', #1345);
#786 = VERTEX_POINT('', #1346);
#787 = VERTEX_POINT('', #1347);
#788 = VERTEX_POINT('', #1348);
#789 = VERTEX_POINT('', #1349);
#790 = VERTEX_POINT('', #1350);
#791 = VERTEX_POINT('', #1351);
#792 = VERTEX_POINT('', #1352);
#793 = VERTEX_POINT('', #1353);
#794 = VERTEX_POINT('', #1354);
#795 = VERTEX_POINT('', #1355);
#796 = VERTEX_POINT('', #1356);
#797 = VERTEX_POINT('', #1357);
#798 = VERTEX_POINT('', #1358);
#799 = VERTEX_POINT('', #1359);
#800 = VERTEX_POINT('', #1360);
#801 = VERTEX_POINT('', #1361);
#802 = VERTEX_POINT('', #1362);
#803 = VERTEX_POINT('', #1363);
#804 = VERTEX_POINT('', #1364);
#805 = VERTEX_POINT('', #1365);
#806 = VERTEX_POINT('', #1366);
#807 = VERTEX_POINT('', #1367);
#808 = VERTEX_POINT('', #1368);
#809 = VERTEX_POINT('', #1369);
#810 = VERTEX_POINT('', #1370);
#811 = VERTEX_POINT('', #1371);
#812 = VERTEX_POINT('', #1372);
#813 = VERTEX_POINT('', #1373);
#814 = VERTEX_POINT('', #1374);
#815 = VERTEX_POINT('', #1375);
#816 = VERTEX_POINT('', #1376);
#817 = VERTEX_POINT('', #1377);
#818 = PLANE('', #819);
#819 = AXIS2_PLACEMENT_3D('', #820, #821, #822);
#820 = CARTESIAN_POINT('', (163.0, -77.0, 13.0));
#821 = DIRECTION('', (0.0, 0.0, 1.0));
#822 = DIRECTION('', (-1.0, 0.0, 0.0));
#823 = PLANE('', #824);
#824 = AXIS2_PLACEMENT_3D('', #825, #826, #827);
#825 = CARTESIAN_POINT('', (160.8000001, -79.1999998, 10.0000003));
#826 = DIRECTION('', (0.0, 1.0, -0.0));
#827 = DIRECTION('', (-1.0, 0.0, 0.0));
#828 = PLANE('', #829);
#829 = AXIS2_PLACEMENT_3D('', #830, #831, #832);
#830 = CARTESIAN_POINT('', (99.2000001, -79.1999998, 10.0000003));
#831 = DIRECTION('', (-1.0, 0.0, 0.0));
#832 = DIRECTION('', (0.0, -1.0, 0.0));
#833 = PLANE('', #834);
#834 = AXIS2_PLACEMENT_3D('', #835, #836, #837);
#835 = CARTESIAN_POINT('', (160.8000001, -79.1999998, 10.0000003));
#836 = DIRECTION('', (0.0, 0.0, 1.0));
#837 = DIRECTION('', (-1.0, 0.0, 0.0));
#838 = PLANE('', #839);
#839 = AXIS2_PLACEMENT_3D('', #840, #841, #842);
#840 = CARTESIAN_POINT('', (100.4000001, -80.3999998, 5.0000003));
#841 = DIRECTION('', (-1.0, 0.0, 0.0));
#842 = DIRECTION('', (0.0, -1.0, 0.0));
#843 = PLANE('', #844);
#844 = AXIS2_PLACEMENT_3D('', #845, #846, #847);
#845 = CARTESIAN_POINT('', (159.6000001, -80.3999998, 5.0000003));
#846 = DIRECTION('', (0.0, 1.0, -0.0));
#847 = DIRECTION('', (-1.0, 0.0, 0.0));
#848 = PLANE('', #849);
#849 = AXIS2_PLACEMENT_3D('', #850, #851, #852);
#850 = CARTESIAN_POINT('', (159.6000001, -80.3999998, 13.0000003));
#851 = DIRECTION('', (0.0, 0.0, 1.0));
#852 = DIRECTION('', (-1.0, 0.0, 0.0));
#853 = PLANE('', #854);
#854 = AXIS2_PLACEMENT_3D('', #855, #856, #857);
#855 = CARTESIAN_POINT('', (159.6000001, -99.59999979999999, 5.0000003));
#856 = DIRECTION('', (1.0, 0.0, 0.0));
#857 = DIRECTION('', (0.0, 1.0, 0.0));
#858 = PLANE('', #859);
#859 = AXIS2_PLACEMENT_3D('', #860, #861, #862);
#860 = CARTESIAN_POINT('', (124.60000009999999, -99.59999979999999, 5.0000003));
#861 = DIRECTION('', (0.0, -1.0, 0.0));
#862 = DIRECTION('', (1.0, 0.0, 0.0));
#863 = PLANE('', #864);
#864 = AXIS2_PLACEMENT_3D('', #865, #866, #867);
#865 = CARTESIAN_POINT('', (124.60000009999999, -119.59999979999999, 5.0000003));
#866 = DIRECTION('', (1.0, 0.0, 0.0));
#867 = DIRECTION('', (0.0, 1.0, 0.0));
#868 = PLANE('', #869);
#869 = AXIS2_PLACEMENT_3D('', #870, #871, #872);
#870 = CARTESIAN_POINT('', (100.4000001, -119.59999979999999, 5.0000003));
#871 = DIRECTION('', (0.0, -1.0, 0.0));
#872 = DIRECTION('', (1.0, 0.0, 0.0));
#873 = PLANE('', #874);
#874 = AXIS2_PLACEMENT_3D('', #875, #876, #877);
#875 = CARTESIAN_POINT('', (99.2000001, -120.7999998, 10.0000003));
#876 = DIRECTION('', (0.0, -0.9999999999999999, 0.0));
#877 = DIRECTION('', (0.9999999999999999, 0.0, 0.0));
#878 = PLANE('', #879);
#879 = AXIS2_PLACEMENT_3D('', #880, #881, #882);
#880 = CARTESIAN_POINT('', (125.80000009999999, -120.7999998, 10.0000003));
#881 = DIRECTION('', (1.0, 0.0, 0.0));
#882 = DIRECTION('', (0.0, 1.0, 0.0));
#883 = PLANE('', #884);
#884 = AXIS2_PLACEMENT_3D('', #885, #886, #887);
#885 = CARTESIAN_POINT('', (125.80000009999999, -100.7999998, 10.0000003));
#886 = DIRECTION('', (0.0, -1.0, 0.0));
#887 = DIRECTION('', (1.0, 0.0, 0.0));
#888 = PLANE('', #889);
#889 = AXIS2_PLACEMENT_3D('', #890, #891, #892);
#890 = CARTESIAN_POINT('', (160.8000001, -100.7999998, 10.0000003));
#891 = DIRECTION('', (1.0, 0.0, 0.0));
#892 = DIRECTION('', (0.0, 1.0, 0.0));
#893 = PLANE('', #894);
#894 = AXIS2_PLACEMENT_3D('', #895, #896, #897);
#895 = CARTESIAN_POINT('', (163.0, -77.0, 13.0));
#896 = DIRECTION('', (0.0, 1.0, -0.0));
#897 = DIRECTION('', (-1.0, 0.0, 0.0));
#898 = PLANE('', #899);
#899 = AXIS2_PLACEMENT_3D('', #900, #901, #902);
#900 = CARTESIAN_POINT('', (163.0, -103.0, 13.0));
#901 = DIRECTION('', (1.0, 0.0, 0.0));
#902 = DIRECTION('', (0.0, 1.0, 0.0));
#903 = PLANE('', #904);
#904 = AXIS2_PLACEMENT_3D('', #905, #906, #907);
#905 = CARTESIAN_POINT('', (128.0, -103.0, 13.0));
#906 = DIRECTION('', (0.0, -1.0, 0.0));
#907 = DIRECTION('', (1.0, 0.0, 0.0));
#908 = PLANE('', #909);
#909 = AXIS2_PLACEMENT_3D('', #910, #911, #912);
#910 = CARTESIAN_POINT('', (128.0, -123.0, 13.0));
#911 = DIRECTION('', (1.0, 0.0, 0.0));
#912 = DIRECTION('', (0.0, 1.0, 0.0));
#913 = PLANE('', #914);
#914 = AXIS2_PLACEMENT_3D('', #915, #916, #917);
#915 = CARTESIAN_POINT('', (97.0, -123.0, 13.0));
#916 = DIRECTION('', (0.0, -1.0, 0.0));
#917 = DIRECTION('', (1.0, 0.0, 0.0));
#918 = PLANE('', #919);
#919 = AXIS2_PLACEMENT_3D('', #920, #921, #922);
#920 = CARTESIAN_POINT('', (97.0, -77.0, 13.0));
#921 = DIRECTION('', (-1.0, 0.0, 0.0));
#922 = DIRECTION('', (0.0, -1.0, 0.0));
#923 = PLANE('', #924);
#924 = AXIS2_PLACEMENT_3D('', #925, #926, #927);
#925 = CARTESIAN_POINT('', (163.0, -77.0, 15.0));
#926 = DIRECTION('', (0.0, 0.0, 1.0));
#927 = DIRECTION('', (-1.0, 0.0, 0.0));
#928 = SURFACE_CURVE('', #929, (#818, #918), .CURVE_3D.);
#929 = LINE('', #930, #931);
#930 = CARTESIAN_POINT('', (97.0, -77.0, 13.0));
#931 = VECTOR('', #932, 46.0);
#932 = DIRECTION('', (0.0, -1.0, 0.0));
#933 = SURFACE_CURVE('', #934, (#818, #913), .CURVE_3D.);
#934 = LINE('', #935, #936);
#935 = CARTESIAN_POINT('', (97.0, -123.0, 13.0));
#936 = VECTOR('', #937, 31.0);
#937 = DIRECTION('', (1.0, 0.0, 0.0));
#938 = SURFACE_CURVE('', #939, (#818, #908), .CURVE_3D.);
#939 = LINE('', #940, #941);
#940 = CARTESIAN_POINT('', (128.0, -123.0, 13.0));
#941 = VECTOR('', #942, 20.0);
#942 = DIRECTION('', (0.0, 1.0, 0.0));
#943 = SURFACE_CURVE('', #944, (#818, #903), .CURVE_3D.);
#944 = LINE('', #945, #946);
#945 = CARTESIAN_POINT('', (128.0, -103.0, 13.0));
#946 = VECTOR('', #947, 35.0);
#947 = DIRECTION('', (1.0, 0.0, 0.0));
#948 = SURFACE_CURVE('', #949, (#818, #898), .CURVE_3D.);
#949 = LINE('', #950, #951);
#950 = CARTESIAN_POINT('', (163.0, -103.0, 13.0));
#951 = VECTOR('', #952, 26.0);
#952 = DIRECTION('', (0.0, 1.0, 0.0));
#953 = SURFACE_CURVE('', #954, (#818, #893), .CURVE_3D.);
#954 = LINE('', #955, #956);
#955 = CARTESIAN_POINT('', (163.0, -77.0, 13.0));
#956 = VECTOR('', #957, 66.0);
#957 = DIRECTION('', (-1.0, 0.0, 0.0));
#958 = SURFACE_CURVE('', #959, (#818, #888), .CURVE_3D.);
#959 = INTERSECTION_CURVE('', #960, (#964, #969), .CURVE_3D.);
#960 = B_SPLINE_CURVE_WITH_KNOTS('', 1, (#961, #962, #963), .UNSPECIFIED., .U., .U., (2, 1, 2), (0.0, 0.5, 1.0), .UNSPECIFIED.);
#961 = CARTESIAN_POINT('', (160.8000001, -100.7999998, 13.0));
#962 = CARTESIAN_POINT('', (160.8000001, -84.60000142, 13.0));
#963 = CARTESIAN_POINT('', (160.8000001, -79.1999998, 13.0));
#964 = PLANE('', #965);
#965 = AXIS2_PLACEMENT_3D('', #966, #967, #968);
#966 = CARTESIAN_POINT('', (163.0, -77.0, 13.0));
#967 = DIRECTION('', (0.0, 0.0, 1.0));
#968 = DIRECTION('', (-1.0, 0.0, 0.0));
#969 = PLANE('', #970);
#970 = AXIS2_PLACEMENT_3D('', #971, #972, #973);
#971 = CARTESIAN_POINT('', (160.8000001, -100.7999998, 10.0000003));
#972 = DIRECTION('', (1.0, 0.0, 0.0));
#973 = DIRECTION('', (0.0, 1.0, 0.0));
#974 = SURFACE_CURVE('', #975, (#818, #883), .CURVE_3D.);
#975 = INTERSECTION_CURVE('', #976, (#981, #986), .CURVE_3D.);
#976 = B_SPLINE_CURVE_WITH_KNOTS('', 1, (#977, #978, #979, #980), .UNSPECIFIED., .U., .U., (2, 1, 1, 2), (0.0, 0.3333333333333333, 0.6666666666666666, 1.0), .UNSPECIFIED.);
#977 = CARTESIAN_POINT('', (160.8000001, -100.7999998, 13.0));
#978 = CARTESIAN_POINT('', (152.049997475, -100.7999998, 13.0));
#979 = CARTESIAN_POINT('', (130.96153873076923, -100.7999998, 13.0));
#980 = CARTESIAN_POINT('', (125.80000009999999, -100.7999998, 13.0));
#981 = PLANE('', #982);
#982 = AXIS2_PLACEMENT_3D('', #983, #984, #985);
#983 = CARTESIAN_POINT('', (163.0, -77.0, 13.0));
#984 = DIRECTION('', (0.0, 0.0, 1.0));
#985 = DIRECTION('', (-1.0, 0.0, 0.0));
#986 = PLANE('', #987);
#987 = AXIS2_PLACEMENT_3D('', #988, #989, #990);
#988 = CARTESIAN_POINT('', (125.80000009999999, -100.7999998, 10.0000003));
#989 = DIRECTION('', (0.0, -1.0, 0.0));
#990 = DIRECTION('', (1.0, 0.0, 0.0));
#991 = SURFACE_CURVE('', #992, (#818, #878), .CURVE_3D.);
#992 = INTERSECTION_CURVE('', #993, (#999, #1004), .CURVE_3D.);
#993 = B_SPLINE_CURVE_WITH_KNOTS('', 1, (#994, #995, #996, #997, #998), .UNSPECIFIED., .U., .U., (2, 1, 1, 1, 2), (0.0, 0.25, 0.5, 0.75, 1.0), .UNSPECIFIED.);
#994 = CARTESIAN_POINT('', (125.80000009999999, -100.7999998, 13.0));
#995 = CARTESIAN_POINT('', (125.80000009999999, -101.15483879354838, 13.0));
#996 = CARTESIAN_POINT('', (125.80000009999999, -104.41935477419355, 13.0));
#997 = CARTESIAN_POINT('', (125.80000009999999, -105.80000129999999, 13.0));
#998 = CARTESIAN_POINT('', (125.80000009999999, -120.7999998, 13.0));
#999 = PLANE('', #1000);
#1000 = AXIS2_PLACEMENT_3D('', #1001, #1002, #1003);
#1001 = CARTESIAN_POINT('', (163.0, -77.0, 13.0));
#1002 = DIRECTION('', (0.0, 0.0, 1.0));
#1003 = DIRECTION('', (-1.0, 0.0, 0.0));
#1004 = PLANE('', #1005);
#1005 = AXIS2_PLACEMENT_3D('', #1006, #1007, #1008);
#1006 = CARTESIAN_POINT('', (125.80000009999999, -120.7999998, 10.0000003));
#1007 = DIRECTION('', (1.0, 0.0, 0.0));
#1008 = DIRECTION('', (0.0, 1.0, 0.0));
#1009 = SURFACE_CURVE('', #1010, (#818, #873), .CURVE_3D.);
#1010 = INTERSECTION_CURVE('', #1011, (#1016, #1021), .CURVE_3D.);
#1011 = B_SPLINE_CURVE_WITH_KNOTS('', 1, (#1012, #1013, #1014, #1015), .UNSPECIFIED., .U., .U., (2, 1, 1, 2), (0.0, 0.3333333333333333, 0.6666666666666666, 1.0), .UNSPECIFIED.);
#1012 = CARTESIAN_POINT('', (125.80000009999999, -120.7999998, 13.0));
#1013 = CARTESIAN_POINT('', (119.149998105, -120.7999998, 13.0));
#1014 = CARTESIAN_POINT('', (100.41000031000002, -120.7999998, 13.0));
#1015 = CARTESIAN_POINT('', (99.2000001, -120.7999998, 13.0));
#1016 = PLANE('', #1017);
#1017 = AXIS2_PLACEMENT_3D('', #1018, #1019, #1020);
#1018 = CARTESIAN_POINT('', (163.0, -77.0, 13.0));
#1019 = DIRECTION('', (0.0, 0.0, 1.0));
#1020 = DIRECTION('', (-1.0, 0.0, 0.0));
#1021 = PLANE('', #1022);
#1022 = AXIS2_PLACEMENT_3D('', #1023, #1024, #1025);
#1023 = CARTESIAN_POINT('', (99.2000001, -120.7999998, 10.0000003));
#1024 = DIRECTION('', (0.0, -0.9999999999999999, 0.0));
#1025 = DIRECTION('', (0.9999999999999999, 0.0, 0.0));
#1026 = SURFACE_CURVE('', #1027, (#818, #828), .CURVE_3D.);
#1027 = INTERSECTION_CURVE('', #1028, (#1032, #1037), .CURVE_3D.);
#1028 = B_SPLINE_CURVE_WITH_KNOTS('', 1, (#1029, #1030, #1031), .UNSPECIFIED., .U., .U., (2, 1, 2), (0.0, 0.5, 1.0), .UNSPECIFIED.);
#1029 = CARTESIAN_POINT('', (99.2000001, -120.7999998, 13.0));
#1030 = CARTESIAN_POINT('', (99.2000001, -110.39999668, 13.0));
#1031 = CARTESIAN_POINT('', (99.2000001, -79.1999998, 13.0));
#1032 = PLANE('', #1033);
#1033 = AXIS2_PLACEMENT_3D('', #1034, #1035, #1036);
#1034 = CARTESIAN_POINT('', (163.0, -77.0, 13.0));
#1035 = DIRECTION('', (0.0, 0.0, 1.0));
#1036 = DIRECTION('', (-1.0, 0.0, 0.0));
#1037 = PLANE('', #1038);
#1038 = AXIS2_PLACEMENT_3D('', #1039, #1040, #1041);
#1039 = CARTESIAN_POINT('', (99.2000001, -79.1999998, 10.0000003));
#1040 = DIRECTION('', (-1.0, 0.0, 0.0));
#1041 = DIRECTION('', (0.0, -1.0, 0.0));
#1042 = SURFACE_CURVE('', #1043, (#818, #823), .CURVE_3D.);
#1043 = INTERSECTION_CURVE('', #1044, (#1050, #1055), .CURVE_3D.);
#1044 = B_SPLINE_CURVE_WITH_KNOTS('', 1, (#1045, #1046, #1047, #1048, #1049), .UNSPECIFIED., .U., .U., (2, 1, 1, 1, 2), (0.0, 0.25, 0.5, 0.75, 1.0), .UNSPECIFIED.);
#1045 = CARTESIAN_POINT('', (160.8000001, -79.1999998, 13.0));
#1046 = CARTESIAN_POINT('', (160.0384618076923, -79.1999998, 13.0));
#1047 = CARTESIAN_POINT('', (114.60000472, -79.1999998, 13.0));
#1048 = CARTESIAN_POINT('', (99.6230766846154, -79.1999998, 13.0));
#1049 = CARTESIAN_POINT('', (99.2000001, -79.1999998, 13.0));
#1050 = PLANE('', #1051);
#1051 = AXIS2_PLACEMENT_3D('', #1052, #1053, #1054);
#1052 = CARTESIAN_POINT('', (163.0, -77.0, 13.0));
#1053 = DIRECTION('', (0.0, 0.0, 1.0));
#1054 = DIRECTION('', (-1.0, 0.0, 0.0));
#1055 = PLANE('', #1056);
#1056 = AXIS2_PLACEMENT_3D('', #1057, #1058, #1059);
#1057 = CARTESIAN_POINT('', (160.8000001, -79.1999998, 10.0000003));
#1058 = DIRECTION('', (0.0, 1.0, -0.0));
#1059 = DIRECTION('', (-1.0, 0.0, 0.0));
#1060 = SURFACE_CURVE('', #1061, (#823, #888), .CURVE_3D.);
#1061 = LINE('', #1062, #1063);
#1062 = CARTESIAN_POINT('', (160.8000001, -79.1999998, 10.0000003));
#1063 = VECTOR('', #1064, 2.9999997);
#1064 = DIRECTION('', (0.0, 0.0, 1.0));
#1065 = SURFACE_CURVE('', #1066, (#823, #833), .CURVE_3D.);
#1066 = LINE('', #1067, #1068);
#1067 = CARTESIAN_POINT('', (160.8000001, -79.1999998, 10.0000003));
#1068 = VECTOR('', #1069, 61.60000000000001);
#1069 = DIRECTION('', (-1.0, 0.0, 0.0));
#1070 = SURFACE_CURVE('', #1071, (#823, #828), .CURVE_3D.);
#1071 = LINE('', #1072, #1073);
#1072 = CARTESIAN_POINT('', (99.2000001, -79.1999998, 10.0000003));
#1073 = VECTOR('', #1074, 2.9999997);
#1074 = DIRECTION('', (0.0, 0.0, 1.0));
#1075 = SURFACE_CURVE('', #1076, (#828, #833), .CURVE_3D.);
#1076 = LINE('', #1077, #1078);
#1077 = CARTESIAN_POINT('', (99.2000001, -79.1999998, 10.0000003));
#1078 = VECTOR('', #1079, 41.599999999999994);
#1079 = DIRECTION('', (0.0, -1.0, 0.0));
#1080 = SURFACE_CURVE('', #1081, (#828, #873), .CURVE_3D.);
#1081 = LINE('', #1082, #1083);
#1082 = CARTESIAN_POINT('', (99.2000001, -120.7999998, 10.0000003));
#1083 = VECTOR('', #1084, 2.9999997);
#1084 = DIRECTION('', (0.0, 0.0, 1.0));
#1085 = SURFACE_CURVE('', #1086, (#833, #873), .CURVE_3D.);
#1086 = LINE('', #1087, #1088);
#1087 = CARTESIAN_POINT('', (99.2000001, -120.7999998, 10.0000003));
#1088 = VECTOR('', #1089, 26.599999999999994);
#1089 = DIRECTION('', (1.0, 0.0, 0.0));
#1090 = SURFACE_CURVE('', #1091, (#833, #878), .CURVE_3D.);
#1091 = LINE('', #1092, #1093);
#1092 = CARTESIAN_POINT('', (125.80000009999999, -120.7999998, 10.0000003));
#1093 = VECTOR('', #1094, 20.0);
#1094 = DIRECTION('', (0.0, 1.0, 0.0));
#1095 = SURFACE_CURVE('', #1096, (#833, #883), .CURVE_3D.);
#1096 = LINE('', #1097, #1098);
#1097 = CARTESIAN_POINT('', (125.80000009999999, -100.7999998, 10.0000003));
#1098 = VECTOR('', #1099, 35.000000000000014);
#1099 = DIRECTION('', (1.0, 0.0, 0.0));
#1100 = SURFACE_CURVE('', #1101, (#833, #888), .CURVE_3D.);
#1101 = LINE('', #1102, #1103);
#1102 = CARTESIAN_POINT('', (160.8000001, -100.7999998, 10.0000003));
#1103 = VECTOR('', #1104, 21.599999999999994);
#1104 = DIRECTION('', (0.0, 1.0, 0.0));
#1105 = SURFACE_CURVE('', #1106, (#833, #843), .CURVE_3D.);
#1106 = INTERSECTION_CURVE('', #1107, (#1113, #1118), .CURVE_3D.);
#1107 = B_SPLINE_CURVE_WITH_KNOTS('', 1, (#1108, #1109, #1110, #1111, #1112), .UNSPECIFIED., .U., .U., (2, 1, 1, 1, 2), (0.0, 0.25, 0.5, 0.75, 1.0), .UNSPECIFIED.);
#1108 = CARTESIAN_POINT('', (100.4000001, -80.3999998, 10.0000003));
#1109 = CARTESIAN_POINT('', (100.67777787777777, -80.3999998, 10.0000003));
#1110 = CARTESIAN_POINT('', (122.60000009999999, -80.3999998, 10.0000003));
#1111 = CARTESIAN_POINT('', (158.85555565555555, -80.3999998, 10.0000003));
#1112 = CARTESIAN_POINT('', (159.6000001, -80.3999998, 10.0000003));
#1113 = PLANE('', #1114);
#1114 = AXIS2_PLACEMENT_3D('', #1115, #1116, #1117);
#1115 = CARTESIAN_POINT('', (160.8000001, -79.1999998, 10.0000003));
#1116 = DIRECTION('', (0.0, 0.0, 1.0));
#1117 = DIRECTION('', (-1.0, 0.0, 0.0));
#1118 = PLANE('', #1119);
#1119 = AXIS2_PLACEMENT_3D('', #1120, #1121, #1122);
#1120 = CARTESIAN_POINT('', (159.6000001, -80.3999998, 5.0000003));
#1121 = DIRECTION('', (0.0, 1.0, -0.0));
#1122 = DIRECTION('', (-1.0, 0.0, 0.0));
#1123 = SURFACE_CURVE('', #1124, (#833, #853), .CURVE_3D.);
#1124 = INTERSECTION_CURVE('', #1125, (#1129, #1134), .CURVE_3D.);
#1125 = B_SPLINE_CURVE_WITH_KNOTS('', 1, (#1126, #1127, #1128), .UNSPECIFIED., .U., .U., (2, 1, 2), (0.0, 0.5, 1.0), .UNSPECIFIED.);
#1126 = CARTESIAN_POINT('', (159.6000001, -99.59999979999999, 10.0000003));
#1127 = CARTESIAN_POINT('', (159.6000001, -87.5999998, 10.0000003));
#1128 = CARTESIAN_POINT('', (159.6000001, -80.3999998, 10.0000003));
#1129 = PLANE('', #1130);
#1130 = AXIS2_PLACEMENT_3D('', #1131, #1132, #1133);
#1131 = CARTESIAN_POINT('', (160.8000001, -79.1999998, 10.0000003));
#1132 = DIRECTION('', (0.0, 0.0, 1.0));
#1133 = DIRECTION('', (-1.0, 0.0, 0.0));
#1134 = PLANE('', #1135);
#1135 = AXIS2_PLACEMENT_3D('', #1136, #1137, #1138);
#1136 = CARTESIAN_POINT('', (159.6000001, -99.59999979999999, 5.0000003));
#1137 = DIRECTION('', (1.0, 0.0, 0.0));
#1138 = DIRECTION('', (0.0, 1.0, 0.0));
#1139 = SURFACE_CURVE('', #1140, (#833, #858), .CURVE_3D.);
#1140 = INTERSECTION_CURVE('', #1141, (#1146, #1151), .CURVE_3D.);
#1141 = B_SPLINE_CURVE_WITH_KNOTS('', 1, (#1142, #1143, #1144, #1145), .UNSPECIFIED., .U., .U., (2, 1, 1, 2), (0.0, 0.3333333333333333, 0.6666666666666666, 1.0), .UNSPECIFIED.);
#1142 = CARTESIAN_POINT('', (124.60000009999999, -99.59999979999999, 10.0000003));
#1143 = CARTESIAN_POINT('', (127.74444454444443, -99.59999979999999, 10.0000003));
#1144 = CARTESIAN_POINT('', (146.4750001, -99.59999979999999, 10.0000003));
#1145 = CARTESIAN_POINT('', (159.6000001, -99.59999979999999, 10.0000003));
#1146 = PLANE('', #1147);
#1147 = AXIS2_PLACEMENT_3D('', #1148, #1149, #1150);
#1148 = CARTESIAN_POINT('', (160.8000001, -79.1999998, 10.0000003));
#1149 = DIRECTION('', (0.0, 0.0, 1.0));
#1150 = DIRECTION('', (-1.0, 0.0, 0.0));
#1151 = PLANE('', #1152);
#1152 = AXIS2_PLACEMENT_3D('', #1153, #1154, #1155);
#1153 = CARTESIAN_POINT('', (124.60000009999999, -99.59999979999999, 5.0000003));
#1154 = DIRECTION('', (0.0, -1.0, 0.0));
#1155 = DIRECTION('', (1.0, 0.0, 0.0));
#1156 = SURFACE_CURVE('', #1157, (#833, #863), .CURVE_3D.);
#1157 = INTERSECTION_CURVE('', #1158, (#1164, #1169), .CURVE_3D.);
#1158 = B_SPLINE_CURVE_WITH_KNOTS('', 1, (#1159, #1160, #1161, #1162, #1163), .UNSPECIFIED., .U., .U., (2, 1, 1, 1, 2), (0.0, 0.25, 0.5, 0.75, 1.0), .UNSPECIFIED.);
#1159 = CARTESIAN_POINT('', (124.60000009999999, -119.59999979999999, 10.0000003));
#1160 = CARTESIAN_POINT('', (124.60000009999999, -107.09999979999999, 10.0000003));
#1161 = CARTESIAN_POINT('', (124.60000009999999, -101.70225543909774, 10.0000003));
#1162 = CARTESIAN_POINT('', (124.60000009999999, -99.82556370977443, 10.0000003));
#1163 = CARTESIAN_POINT('', (124.60000009999999, -99.59999979999999, 10.0000003));
#1164 = PLANE('', #1165);
#1165 = AXIS2_PLACEMENT_3D('', #1166, #1167, #1168);
#1166 = CARTESIAN_POINT('', (160.8000001, -79.1999998, 10.0000003));
#1167 = DIRECTION('', (0.0, 0.0, 1.0));
#1168 = DIRECTION('', (-1.0, 0.0, 0.0));
#1169 = PLANE('', #1170);
#1170 = AXIS2_PLACEMENT_3D('', #1171, #1172, #1173);
#1171 = CARTESIAN_POINT('', (124.60000009999999, -119.59999979999999, 5.0000003));
#1172 = DIRECTION('', (1.0, 0.0, 0.0));
#1173 = DIRECTION('', (0.0, 1.0, 0.0));
#1174 = SURFACE_CURVE('', #1175, (#833, #868), .CURVE_3D.);
#1175 = INTERSECTION_CURVE('', #1176, (#1181, #1186), .CURVE_3D.);
#1176 = B_SPLINE_CURVE_WITH_KNOTS('', 1, (#1177, #1178, #1179, #1180), .UNSPECIFIED., .U., .U., (2, 1, 1, 2), (0.0, 0.3333333333333333, 0.6666666666666666, 1.0), .UNSPECIFIED.);
#1177 = CARTESIAN_POINT('', (100.4000001, -119.59999979999999, 10.0000003));
#1178 = CARTESIAN_POINT('', (100.79600010000001, -119.59999979999999, 10.0000003));
#1179 = CARTESIAN_POINT('', (115.5250001, -119.59999979999999, 10.0000003));
#1180 = CARTESIAN_POINT('', (124.60000009999999, -119.59999979999999, 10.0000003));
#1181 = PLANE('', #1182);
#1182 = AXIS2_PLACEMENT_3D('', #1183, #1184, #1185);
#1183 = CARTESIAN_POINT('', (160.8000001, -79.1999998, 10.0000003));
#1184 = DIRECTION('', (0.0, 0.0, 1.0));
#1185 = DIRECTION('', (-1.0, 0.0, 0.0));
#1186 = PLANE('', #1187);
#1187 = AXIS2_PLACEMENT_3D('', #1188, #1189, #1190);
#1188 = CARTESIAN_POINT('', (100.4000001, -119.59999979999999, 5.0000003));
#1189 = DIRECTION('', (0.0, -1.0, 0.0));
#1190 = DIRECTION('', (1.0, 0.0, 0.0));
#1191 = SURFACE_CURVE('', #1192, (#833, #838), .CURVE_3D.);
#1192 = INTERSECTION_CURVE('', #1193, (#1197, #1202), .CURVE_3D.);
#1193 = B_SPLINE_CURVE_WITH_KNOTS('', 1, (#1194, #1195, #1196), .UNSPECIFIED., .U., .U., (2, 1, 2), (0.0, 0.5, 1.0), .UNSPECIFIED.);
#1194 = CARTESIAN_POINT('', (100.4000001, -119.59999979999999, 10.0000003));
#1195 = CARTESIAN_POINT('', (100.4000001, -104.89999979999999, 10.0000003));
#1196 = CARTESIAN_POINT('', (100.4000001, -80.3999998, 10.0000003));
#1197 = PLANE('', #1198);
#1198 = AXIS2_PLACEMENT_3D('', #1199, #1200, #1201);
#1199 = CARTESIAN_POINT('', (160.8000001, -79.1999998, 10.0000003));
#1200 = DIRECTION('', (0.0, 0.0, 1.0));
#1201 = DIRECTION('', (-1.0, 0.0, 0.0));
#1202 = PLANE('', #1203);
#1203 = AXIS2_PLACEMENT_3D('', #1204, #1205, #1206);
#1204 = CARTESIAN_POINT('', (100.4000001, -80.3999998, 5.0000003));
#1205 = DIRECTION('', (-1.0, 0.0, 0.0));
#1206 = DIRECTION('', (0.0, -1.0, 0.0));
#1207 = SURFACE_CURVE('', #1208, (#838, #868), .CURVE_3D.);
#1208 = LINE('', #1209, #1210);
#1209 = CARTESIAN_POINT('', (100.4000001, -119.59999979999999, 10.0000003));
#1210 = VECTOR('', #1211, 3.0);
#1211 = DIRECTION('', (0.0, 0.0, 1.0));
#1212 = SURFACE_CURVE('', #1213, (#838, #848), .CURVE_3D.);
#1213 = LINE('', #1214, #1215);
#1214 = CARTESIAN_POINT('', (100.4000001, -80.3999998, 13.0000003));
#1215 = VECTOR('', #1216, 39.19999999999999);
#1216 = DIRECTION('', (0.0, -1.0, 0.0));
#1217 = SURFACE_CURVE('', #1218, (#838, #843), .CURVE_3D.);
#1218 = LINE('', #1219, #1220);
#1219 = CARTESIAN_POINT('', (100.4000001, -80.3999998, 10.0000003));
#1220 = VECTOR('', #1221, 3.0);
#1221 = DIRECTION('', (0.0, 0.0, 1.0));
#1222 = SURFACE_CURVE('', #1223, (#843, #848), .CURVE_3D.);
#1223 = LINE('', #1224, #1225);
#1224 = CARTESIAN_POINT('', (159.6000001, -80.3999998, 13.0000003));
#1225 = VECTOR('', #1226, 59.19999999999999);
#1226 = DIRECTION('', (-1.0, 0.0, 0.0));
#1227 = SURFACE_CURVE('', #1228, (#843, #853), .CURVE_3D.);
#1228 = LINE('', #1229, #1230);
#1229 = CARTESIAN_POINT('', (159.6000001, -80.3999998, 10.0000003));
#1230 = VECTOR('', #1231, 3.0);
#1231 = DIRECTION('', (0.0, 0.0, 1.0));
#1232 = SURFACE_CURVE('', #1233, (#848, #868), .CURVE_3D.);
#1233 = LINE('', #1234, #1235);
#1234 = CARTESIAN_POINT('', (100.4000001, -119.59999979999999, 13.0000003));
#1235 = VECTOR('', #1236, 24.19999999999999);
#1236 = DIRECTION('', (1.0, 0.0, 0.0));
#1237 = SURFACE_CURVE('', #1238, (#848, #863), .CURVE_3D.);
#1238 = LINE('', #1239, #1240);
#1239 = CARTESIAN_POINT('', (124.60000009999999, -119.59999979999999, 13.0000003));
#1240 = VECTOR('', #1241, 20.0);
#1241 = DIRECTION('', (0.0, 1.0, 0.0));
#1242 = SURFACE_CURVE('', #1243, (#848, #858), .CURVE_3D.);
#1243 = LINE('', #1244, #1245);
#1244 = CARTESIAN_POINT('', (124.60000009999999, -99.59999979999999, 13.0000003));
#1245 = VECTOR('', #1246, 35.0);
#1246 = DIRECTION('', (1.0, 0.0, 0.0));
#1247 = SURFACE_CURVE('', #1248, (#848, #853), .CURVE_3D.);
#1248 = LINE('', #1249, #1250);
#1249 = CARTESIAN_POINT('', (159.6000001, -99.59999979999999, 13.0000003));
#1250 = VECTOR('', #1251, 19.19999999999999);
#1251 = DIRECTION('', (0.0, 1.0, 0.0));
#1252 = SURFACE_CURVE('', #1253, (#853, #858), .CURVE_3D.);
#1253 = LINE('', #1254, #1255);
#1254 = CARTESIAN_POINT('', (159.6000001, -99.59999979999999, 10.0000003));
#1255 = VECTOR('', #1256, 3.0);
#1256 = DIRECTION('', (0.0, 0.0, 1.0));
#1257 = SURFACE_CURVE('', #1258, (#858, #863), .CURVE_3D.);
#1258 = LINE('', #1259, #1260);
#1259 = CARTESIAN_POINT('', (124.60000009999999, -99.59999979999999, 10.0000003));
#1260 = VECTOR('', #1261, 3.0);
#1261 = DIRECTION('', (0.0, 0.0, 1.0));
#1262 = SURFACE_CURVE('', #1263, (#863, #868), .CURVE_3D.);
#1263 = LINE('', #1264, #1265);
#1264 = CARTESIAN_POINT('', (124.60000009999999, -119.59999979999999, 10.0000003));
#1265 = VECTOR('', #1266, 3.0);
#1266 = DIRECTION('', (0.0, 0.0, 1.0));
#1267 = SURFACE_CURVE('', #1268, (#873, #878), .CURVE_3D.);
#1268 = LINE('', #1269, #1270);
#1269 = CARTESIAN_POINT('', (125.80000009999999, -120.7999998, 10.0000003));
#1270 = VECTOR('', #1271, 2.9999997);
#1271 = DIRECTION('', (0.0, 0.0, 1.0));
#1272 = SURFACE_CURVE('', #1273, (#878, #883), .CURVE_3D.);
#1273 = LINE('', #1274, #1275);
#1274 = CARTESIAN_POINT('', (125.80000009999999, -100.7999998, 10.0000003));
#1275 = VECTOR('', #1276, 2.9999997);
#1276 = DIRECTION('', (0.0, 0.0, 1.0));
#1277 = SURFACE_CURVE('', #1278, (#883, #888), .CURVE_3D.);
#1278 = LINE('', #1279, #1280);
#1279 = CARTESIAN_POINT('', (160.8000001, -100.7999998, 10.0000003));
#1280 = VECTOR('', #1281, 2.9999997);
#1281 = DIRECTION('', (0.0, 0.0, 1.0));
#1282 = SURFACE_CURVE('', #1283, (#893, #918), .CURVE_3D.);
#1283 = LINE('', #1284, #1285);
#1284 = CARTESIAN_POINT('', (97.0, -77.0, 13.0));
#1285 = VECTOR('', #1286, 2.0);
#1286 = DIRECTION('', (0.0, 0.0, 1.0));
#1287 = SURFACE_CURVE('', #1288, (#893, #923), .CURVE_3D.);
#1288 = LINE('', #1289, #1290);
#1289 = CARTESIAN_POINT('', (163.0, -77.0, 15.0));
#1290 = VECTOR('', #1291, 66.0);
#1291 = DIRECTION('', (-1.0, 0.0, 0.0));
#1292 = SURFACE_CURVE('', #1293, (#893, #898), .CURVE_3D.);
#1293 = LINE('', #1294, #1295);
#1294 = CARTESIAN_POINT('', (163.0, -77.0, 13.0));
#1295 = VECTOR('', #1296, 2.0);
#1296 = DIRECTION('', (0.0, 0.0, 1.0));
#1297 = SURFACE_CURVE('', #1298, (#898, #923), .CURVE_3D.);
#1298 = LINE('', #1299, #1300);
#1299 = CARTESIAN_POINT('', (163.0, -103.0, 15.0));
#1300 = VECTOR('', #1301, 26.0);
#1301 = DIRECTION('', (0.0, 1.0, 0.0));
#1302 = SURFACE_CURVE('', #1303, (#898, #903), .CURVE_3D.);
#1303 = LINE('', #1304, #1305);
#1304 = CARTESIAN_POINT('', (163.0, -103.0, 13.0));
#1305 = VECTOR('', #1306, 2.0);
#1306 = DIRECTION('', (0.0, 0.0, 1.0));
#1307 = SURFACE_CURVE('', #1308, (#903, #923), .CURVE_3D.);
#1308 = LINE('', #1309, #1310);
#1309 = CARTESIAN_POINT('', (128.0, -103.0, 15.0));
#1310 = VECTOR('', #1311, 35.0);
#1311 = DIRECTION('', (1.0, 0.0, 0.0));
#1312 = SURFACE_CURVE('', #1313, (#903, #908), .CURVE_3D.);
#1313 = LINE('', #1314, #1315);
#1314 = CARTESIAN_POINT('', (128.0, -103.0, 13.0));
#1315 = VECTOR('', #1316, 2.0);
#1316 = DIRECTION('', (0.0, 0.0, 1.0));
#1317 = SURFACE_CURVE('', #1318, (#908, #923), .CURVE_3D.);
#1318 = LINE('', #1319, #1320);
#1319 = CARTESIAN_POINT('', (128.0, -123.0, 15.0));
#1320 = VECTOR('', #1321, 20.0);
#1321 = DIRECTION('', (0.0, 1.0, 0.0));
#1322 = SURFACE_CURVE('', #1323, (#908, #913), .CURVE_3D.);
#1323 = LINE('', #1324, #1325);
#1324 = CARTESIAN_POINT('', (128.0, -123.0, 13.0));
#1325 = VECTOR('', #1326, 2.0);
#1326 = DIRECTION('', (0.0, 0.0, 1.0));
#1327 = SURFACE_CURVE('', #1328, (#913, #923), .CURVE_3D.);
#1328 = LINE('', #1329, #1330);
#1329 = CARTESIAN_POINT('', (97.0, -123.0, 15.0));
#1330 = VECTOR('', #1331, 31.0);
#1331 = DIRECTION('', (1.0, 0.0, 0.0));
#1332 = SURFACE_CURVE('', #1333, (#913, #918), .CURVE_3D.);
#1333 = LINE('', #1334, #1335);
#1334 = CARTESIAN_POINT('', (97.0, -123.0, 13.0));
#1335 = VECTOR('', #1336, 2.0);
#1336 = DIRECTION('', (0.0, 0.0, 1.0));
#1337 = SURFACE_CURVE('', #1338, (#918, #923), .CURVE_3D.);
#1338 = LINE('', #1339, #1340);
#1339 = CARTESIAN_POINT('', (97.0, -77.0, 15.0));
#1340 = VECTOR('', #1341, 46.0);
#1341 = DIRECTION('', (0.0, -1.0, 0.0));
#1342 = CARTESIAN_POINT('', (97.0, -77.0, 13.0));
#1343 = CARTESIAN_POINT('', (97.0, -123.0, 13.0));
#1344 = CARTESIAN_POINT('', (128.0, -123.0, 13.0));
#1345 = CARTESIAN_POINT('', (128.0, -103.0, 13.0));
#1346 = CARTESIAN_POINT('', (163.0, -103.0, 13.0));
#1347 = CARTESIAN_POINT('', (163.0, -77.0, 13.0));
#1348 = CARTESIAN_POINT('', (160.8000001, -100.7999998, 13.0));
#1349 = CARTESIAN_POINT('', (160.8000001, -79.1999998, 13.0));
#1350 = CARTESIAN_POINT('', (125.80000009999999, -100.7999998, 13.0));
#1351 = CARTESIAN_POINT('', (125.80000009999999, -120.7999998, 13.0));
#1352 = CARTESIAN_POINT('', (99.2000001, -120.7999998, 13.0));
#1353 = CARTESIAN_POINT('', (99.2000001, -79.1999998, 13.0));
#1354 = CARTESIAN_POINT('', (160.8000001, -79.1999998, 10.0000003));
#1355 = CARTESIAN_POINT('', (99.2000001, -79.1999998, 10.0000003));
#1356 = CARTESIAN_POINT('', (99.2000001, -120.7999998, 10.0000003));
#1357 = CARTESIAN_POINT('', (125.80000009999999, -120.7999998, 10.0000003));
#1358 = CARTESIAN_POINT('', (125.80000009999999, -100.7999998, 10.0000003));
#1359 = CARTESIAN_POINT('', (160.8000001, -100.7999998, 10.0000003));
#1360 = CARTESIAN_POINT('', (100.4000001, -80.3999998, 10.0000003));
#1361 = CARTESIAN_POINT('', (159.6000001, -80.3999998, 10.0000003));
#1362 = CARTESIAN_POINT('', (159.6000001, -99.59999979999999, 10.0000003));
#1363 = CARTESIAN_POINT('', (124.60000009999999, -99.59999979999999, 10.0000003));
#1364 = CARTESIAN_POINT('', (124.60000009999999, -119.59999979999999, 10.0000003));
#1365 = CARTESIAN_POINT('', (100.4000001, -119.59999979999999, 10.0000003));
#1366 = CARTESIAN_POINT('', (100.4000001, -119.59999979999999, 13.0000003));
#1367 = CARTESIAN_POINT('', (100.4000001, -80.3999998, 13.0000003));
#1368 = CARTESIAN_POINT('', (159.6000001, -80.3999998, 13.0000003));
#1369 = CARTESIAN_POINT('', (124.60000009999999, -119.59999979999999, 13.0000003));
#1370 = CARTESIAN_POINT('', (124.60000009999999, -99.59999979999999, 13.0000003));
#1371 = CARTESIAN_POINT('', (159.6000001, -99.59999979999999, 13.0000003));
#1372 = CARTESIAN_POINT('', (97.0, -77.0, 15.0));
#1373 = CARTESIAN_POINT('', (163.0, -77.0, 15.0));
#1374 = CARTESIAN_POINT('', (163.0, -103.0, 15.0));
#1375 = CARTESIAN_POINT('', (128.0, -103.0, 15.0));
#1376 = CARTESIAN_POINT('', (128.0, -123.0, 15.0));
#1377 = CARTESIAN_POINT('', (97.0, -123.0, 15.0));
ENDSEC;
END-ISO-10303-21;
