ISO-10303-21;
HEADER;
FILE_DESCRIPTION(('Shape Data from monstertruck'), '2;1');
FILE_NAME('', '2026-09-01 02:55:36.693081393', (''), (''), 'monstertruck', 'KiCase', '');
FILE_SCHEMA(('AUTOMOTIVE_DESIGN'));
ENDSEC;
DATA;
#1 = APPLICATION_PROTOCOL_DEFINITION('international standard', 'automotive_design', 2000, #2);
#2 = APPLICATION_CONTEXT('core data for automotive mechanical design processes');
#3 = SHAPE_DEFINITION_REPRESENTATION(#4, #10);
#4 = PRODUCT_DEFINITION_SHAPE('','', #5);
#5 = PRODUCT_DEFINITION('design','', #6, #9);
#6 = PRODUCT_DEFINITION_FORMATION('','', #7);
#7 = PRODUCT('','','', (#8));
#8 = PRODUCT_CONTEXT('', #2, 'mechanical');
#9 = PRODUCT_DEFINITION_CONTEXT('part definition', #2, 'design');
#10 = ADVANCED_BREP_SHAPE_REPRESENTATION('', (#16), #11);
#11 = (
    GEOMETRIC_REPRESENTATION_CONTEXT(3) 
    GLOBAL_UNCERTAINTY_ASSIGNED_CONTEXT((#15))
    GLOBAL_UNIT_ASSIGNED_CONTEXT((#12, #13, #14))
    REPRESENTATION_CONTEXT('Context #1', '3D Context with UNIT and UNCERTAINTY')
);
#12 = ( LENGTH_UNIT() NAMED_UNIT(*) SI_UNIT(.MILLI.,.METRE.) );
#13 = ( NAMED_UNIT(*) PLANE_ANGLE_UNIT() SI_UNIT($,.RADIAN.) );
#14 = ( NAMED_UNIT(*) SI_UNIT($,.STERADIAN.) SOLID_ANGLE_UNIT() );
#15 = UNCERTAINTY_MEASURE_WITH_UNIT(LENGTH_MEASURE(1.0E-6), #12, 'distance_accuracy_value','confusion accuracy');
#16 = MANIFOLD_SOLID_BREP('', #17);
#17 = CLOSED_SHELL('', (#18, #35, #42, #49, #66, #73, #80, #89, #96, #103, #110, #117, #124, #131, #138, #145, #152, #159, #166, #173, #180, #187));
#18 = ADVANCED_FACE('', (#19, #27), #286, .F.);
#19 = FACE_BOUND('', #20, .F.);
#20 = EDGE_LOOP('', (#21, #22, #23, #24, #25, #26));
#21 = ORIENTED_EDGE('', *, *, #196, .T.);
#22 = ORIENTED_EDGE('', *, *, #197, .T.);
#23 = ORIENTED_EDGE('', *, *, #198, .T.);
#24 = ORIENTED_EDGE('', *, *, #199, .T.);
#25 = ORIENTED_EDGE('', *, *, #200, .T.);
#26 = ORIENTED_EDGE('', *, *, #201, .T.);
#27 = FACE_BOUND('', #28, .F.);
#28 = EDGE_LOOP('', (#29, #30, #31, #32, #33, #34));
#29 = ORIENTED_EDGE('', *, *, #202, .F.);
#30 = ORIENTED_EDGE('', *, *, #203, .T.);
#31 = ORIENTED_EDGE('', *, *, #204, .T.);
#32 = ORIENTED_EDGE('', *, *, #205, .T.);
#33 = ORIENTED_EDGE('', *, *, #206, .T.);
#34 = ORIENTED_EDGE('', *, *, #207, .F.);
#35 = ADVANCED_FACE('', (#36), #291, .T.);
#36 = FACE_BOUND('', #37, .T.);
#37 = EDGE_LOOP('', (#38, #39, #40, #41));
#38 = ORIENTED_EDGE('', *, *, #208, .F.);
#39 = ORIENTED_EDGE('', *, *, #209, .T.);
#40 = ORIENTED_EDGE('', *, *, #210, .T.);
#41 = ORIENTED_EDGE('', *, *, #207, .F.);
#42 = ADVANCED_FACE('', (#43), #296, .T.);
#43 = FACE_BOUND('', #44, .T.);
#44 = EDGE_LOOP('', (#45, #46, #47, #48));
#45 = ORIENTED_EDGE('', *, *, #206, .T.);
#46 = ORIENTED_EDGE('', *, *, #210, .F.);
#47 = ORIENTED_EDGE('', *, *, #211, .T.);
#48 = ORIENTED_EDGE('', *, *, #212, .T.);
#49 = ADVANCED_FACE('', (#50, #58), #301, .F.);
#50 = FACE_BOUND('', #51, .F.);
#51 = EDGE_LOOP('', (#52, #53, #54, #55, #56, #57));
#52 = ORIENTED_EDGE('', *, *, #211, .T.);
#53 = ORIENTED_EDGE('', *, *, #213, .T.);
#54 = ORIENTED_EDGE('', *, *, #214, .T.);
#55 = ORIENTED_EDGE('', *, *, #215, .T.);
#56 = ORIENTED_EDGE('', *, *, #216, .T.);
#57 = ORIENTED_EDGE('', *, *, #209, .T.);
#58 = FACE_BOUND('', #59, .F.);
#59 = EDGE_LOOP('', (#60, #61, #62, #63, #64, #65));
#60 = ORIENTED_EDGE('', *, *, #217, .T.);
#61 = ORIENTED_EDGE('', *, *, #218, .F.);
#62 = ORIENTED_EDGE('', *, *, #219, .F.);
#63 = ORIENTED_EDGE('', *, *, #220, .F.);
#64 = ORIENTED_EDGE('', *, *, #221, .F.);
#65 = ORIENTED_EDGE('', *, *, #222, .T.);
#66 = ADVANCED_FACE('', (#67), #306, .F.);
#67 = FACE_BOUND('', #68, .F.);
#68 = EDGE_LOOP('', (#69, #70, #71, #72));
#69 = ORIENTED_EDGE('', *, *, #223, .T.);
#70 = ORIENTED_EDGE('', *, *, #224, .F.);
#71 = ORIENTED_EDGE('', *, *, #225, .F.);
#72 = ORIENTED_EDGE('', *, *, #222, .F.);
#73 = ADVANCED_FACE('', (#74), #311, .F.);
#74 = FACE_BOUND('', #75, .F.);
#75 = EDGE_LOOP('', (#76, #77, #78, #79));
#76 = ORIENTED_EDGE('', *, *, #225, .T.);
#77 = ORIENTED_EDGE('', *, *, #226, .F.);
#78 = ORIENTED_EDGE('', *, *, #227, .F.);
#79 = ORIENTED_EDGE('', *, *, #217, .F.);
#80 = ADVANCED_FACE('', (#81), #316, .F.);
#81 = FACE_BOUND('', #82, .F.);
#82 = EDGE_LOOP('', (#83, #84, #85, #86, #87, #88));
#83 = ORIENTED_EDGE('', *, *, #224, .T.);
#84 = ORIENTED_EDGE('', *, *, #228, .T.);
#85 = ORIENTED_EDGE('', *, *, #229, .T.);
#86 = ORIENTED_EDGE('', *, *, #230, .T.);
#87 = ORIENTED_EDGE('', *, *, #231, .T.);
#88 = ORIENTED_EDGE('', *, *, #226, .T.);
#89 = ADVANCED_FACE('', (#90), #321, .F.);
#90 = FACE_BOUND('', #91, .F.);
#91 = EDGE_LOOP('', (#92, #93, #94, #95));
#92 = ORIENTED_EDGE('', *, *, #218, .T.);
#93 = ORIENTED_EDGE('', *, *, #227, .T.);
#94 = ORIENTED_EDGE('', *, *, #231, .F.);
#95 = ORIENTED_EDGE('', *, *, #232, .F.);
#96 = ADVANCED_FACE('', (#97), #326, .F.);
#97 = FACE_BOUND('', #98, .F.);
#98 = EDGE_LOOP('', (#99, #100, #101, #102));
#99 = ORIENTED_EDGE('', *, *, #219, .T.);
#100 = ORIENTED_EDGE('', *, *, #232, .T.);
#101 = ORIENTED_EDGE('', *, *, #230, .F.);
#102 = ORIENTED_EDGE('', *, *, #233, .F.);
#103 = ADVANCED_FACE('', (#104), #331, .F.);
#104 = FACE_BOUND('', #105, .F.);
#105 = EDGE_LOOP('', (#106, #107, #108, #109));
#106 = ORIENTED_EDGE('', *, *, #220, .T.);
#107 = ORIENTED_EDGE('', *, *, #233, .T.);
#108 = ORIENTED_EDGE('', *, *, #229, .F.);
#109 = ORIENTED_EDGE('', *, *, #234, .F.);
#110 = ADVANCED_FACE('', (#111), #336, .F.);
#111 = FACE_BOUND('', #112, .F.);
#112 = EDGE_LOOP('', (#113, #114, #115, #116));
#113 = ORIENTED_EDGE('', *, *, #221, .T.);
#114 = ORIENTED_EDGE('', *, *, #234, .T.);
#115 = ORIENTED_EDGE('', *, *, #228, .F.);
#116 = ORIENTED_EDGE('', *, *, #223, .F.);
#117 = ADVANCED_FACE('', (#118), #341, .T.);
#118 = FACE_BOUND('', #119, .T.);
#119 = EDGE_LOOP('', (#120, #121, #122, #123));
#120 = ORIENTED_EDGE('', *, *, #205, .T.);
#121 = ORIENTED_EDGE('', *, *, #212, .F.);
#122 = ORIENTED_EDGE('', *, *, #213, .T.);
#123 = ORIENTED_EDGE('', *, *, #235, .T.);
#124 = ADVANCED_FACE('', (#125), #346, .T.);
#125 = FACE_BOUND('', #126, .T.);
#126 = EDGE_LOOP('', (#127, #128, #129, #130));
#127 = ORIENTED_EDGE('', *, *, #204, .T.);
#128 = ORIENTED_EDGE('', *, *, #235, .F.);
#129 = ORIENTED_EDGE('', *, *, #214, .T.);
#130 = ORIENTED_EDGE('', *, *, #236, .T.);
#131 = ADVANCED_FACE('', (#132), #351, .T.);
#132 = FACE_BOUND('', #133, .T.);
#133 = EDGE_LOOP('', (#134, #135, #136, #137));
#134 = ORIENTED_EDGE('', *, *, #203, .T.);
#135 = ORIENTED_EDGE('', *, *, #236, .F.);
#136 = ORIENTED_EDGE('', *, *, #215, .T.);
#137 = ORIENTED_EDGE('', *, *, #237, .T.);
#138 = ADVANCED_FACE('', (#139), #356, .T.);
#139 = FACE_BOUND('', #140, .T.);
#140 = EDGE_LOOP('', (#141, #142, #143, #144));
#141 = ORIENTED_EDGE('', *, *, #237, .F.);
#142 = ORIENTED_EDGE('', *, *, #216, .T.);
#143 = ORIENTED_EDGE('', *, *, #208, .T.);
#144 = ORIENTED_EDGE('', *, *, #202, .F.);
#145 = ADVANCED_FACE('', (#146), #361, .T.);
#146 = FACE_BOUND('', #147, .T.);
#147 = EDGE_LOOP('', (#148, #149, #150, #151));
#148 = ORIENTED_EDGE('', *, *, #201, .T.);
#149 = ORIENTED_EDGE('', *, *, #238, .T.);
#150 = ORIENTED_EDGE('', *, *, #239, .F.);
#151 = ORIENTED_EDGE('', *, *, #240, .F.);
#152 = ADVANCED_FACE('', (#153), #366, .T.);
#153 = FACE_BOUND('', #154, .T.);
#154 = EDGE_LOOP('', (#155, #156, #157, #158));
#155 = ORIENTED_EDGE('', *, *, #200, .T.);
#156 = ORIENTED_EDGE('', *, *, #240, .T.);
#157 = ORIENTED_EDGE('', *, *, #241, .F.);
#158 = ORIENTED_EDGE('', *, *, #242, .F.);
#159 = ADVANCED_FACE('', (#160), #371, .T.);
#160 = FACE_BOUND('', #161, .T.);
#161 = EDGE_LOOP('', (#162, #163, #164, #165));
#162 = ORIENTED_EDGE('', *, *, #199, .T.);
#163 = ORIENTED_EDGE('', *, *, #242, .T.);
#164 = ORIENTED_EDGE('', *, *, #243, .F.);
#165 = ORIENTED_EDGE('', *, *, #244, .F.);
#166 = ADVANCED_FACE('', (#167), #376, .T.);
#167 = FACE_BOUND('', #168, .T.);
#168 = EDGE_LOOP('', (#169, #170, #171, #172));
#169 = ORIENTED_EDGE('', *, *, #198, .T.);
#170 = ORIENTED_EDGE('', *, *, #244, .T.);
#171 = ORIENTED_EDGE('', *, *, #245, .F.);
#172 = ORIENTED_EDGE('', *, *, #246, .F.);
#173 = ADVANCED_FACE('', (#174), #381, .T.);
#174 = FACE_BOUND('', #175, .T.);
#175 = EDGE_LOOP('', (#176, #177, #178, #179));
#176 = ORIENTED_EDGE('', *, *, #197, .T.);
#177 = ORIENTED_EDGE('', *, *, #246, .T.);
#178 = ORIENTED_EDGE('', *, *, #247, .F.);
#179 = ORIENTED_EDGE('', *, *, #248, .F.);
#180 = ADVANCED_FACE('', (#181), #386, .T.);
#181 = FACE_BOUND('', #182, .T.);
#182 = EDGE_LOOP('', (#183, #184, #185, #186));
#183 = ORIENTED_EDGE('', *, *, #196, .T.);
#184 = ORIENTED_EDGE('', *, *, #248, .T.);
#185 = ORIENTED_EDGE('', *, *, #249, .F.);
#186 = ORIENTED_EDGE('', *, *, #238, .F.);
#187 = ADVANCED_FACE('', (#188), #391, .T.);
#188 = FACE_BOUND('', #189, .T.);
#189 = EDGE_LOOP('', (#190, #191, #192, #193, #194, #195));
#190 = ORIENTED_EDGE('', *, *, #249, .T.);
#191 = ORIENTED_EDGE('', *, *, #247, .T.);
#192 = ORIENTED_EDGE('', *, *, #245, .T.);
#193 = ORIENTED_EDGE('', *, *, #243, .T.);
#194 = ORIENTED_EDGE('', *, *, #241, .T.);
#195 = ORIENTED_EDGE('', *, *, #239, .T.);
#196 = EDGE_CURVE('', #250, #251, #396, .T.);
#197 = EDGE_CURVE('', #251, #252, #401, .T.);
#198 = EDGE_CURVE('', #252, #253, #406, .T.);
#199 = EDGE_CURVE('', #253, #254, #411, .T.);
#200 = EDGE_CURVE('', #254, #255, #416, .T.);
#201 = EDGE_CURVE('', #255, #250, #421, .T.);
#202 = EDGE_CURVE('', #256, #257, #426, .T.);
#203 = EDGE_CURVE('', #256, #258, #442, .T.);
#204 = EDGE_CURVE('', #258, #259, #459, .T.);
#205 = EDGE_CURVE('', #259, #260, #477, .T.);
#206 = EDGE_CURVE('', #260, #261, #494, .T.);
#207 = EDGE_CURVE('', #257, #261, #510, .T.);
#208 = EDGE_CURVE('', #262, #257, #528, .T.);
#209 = EDGE_CURVE('', #262, #263, #533, .T.);
#210 = EDGE_CURVE('', #263, #261, #538, .T.);
#211 = EDGE_CURVE('', #263, #264, #543, .T.);
#212 = EDGE_CURVE('', #264, #260, #548, .T.);
#213 = EDGE_CURVE('', #264, #265, #553, .T.);
#214 = EDGE_CURVE('', #265, #266, #558, .T.);
#215 = EDGE_CURVE('', #266, #267, #563, .T.);
#216 = EDGE_CURVE('', #267, #262, #568, .T.);
#217 = EDGE_CURVE('', #268, #269, #573, .T.);
#218 = EDGE_CURVE('', #270, #269, #591, .T.);
#219 = EDGE_CURVE('', #271, #270, #607, .T.);
#220 = EDGE_CURVE('', #272, #271, #624, .T.);
#221 = EDGE_CURVE('', #273, #272, #642, .T.);
#222 = EDGE_CURVE('', #273, #268, #659, .T.);
#223 = EDGE_CURVE('', #273, #274, #675, .T.);
#224 = EDGE_CURVE('', #275, #274, #680, .T.);
#225 = EDGE_CURVE('', #268, #275, #685, .T.);
#226 = EDGE_CURVE('', #276, #275, #690, .T.);
#227 = EDGE_CURVE('', #269, #276, #695, .T.);
#228 = EDGE_CURVE('', #274, #277, #700, .T.);
#229 = EDGE_CURVE('', #277, #278, #705, .T.);
#230 = EDGE_CURVE('', #278, #279, #710, .T.);
#231 = EDGE_CURVE('', #279, #276, #715, .T.);
#232 = EDGE_CURVE('', #270, #279, #720, .T.);
#233 = EDGE_CURVE('', #271, #278, #725, .T.);
#234 = EDGE_CURVE('', #272, #277, #730, .T.);
#235 = EDGE_CURVE('', #265, #259, #735, .T.);
#236 = EDGE_CURVE('', #266, #258, #740, .T.);
#237 = EDGE_CURVE('', #267, #256, #745, .T.);
#238 = EDGE_CURVE('', #250, #280, #750, .T.);
#239 = EDGE_CURVE('', #281, #280, #755, .T.);
#240 = EDGE_CURVE('', #255, #281, #760, .T.);
#241 = EDGE_CURVE('', #282, #281, #765, .T.);
#242 = EDGE_CURVE('', #254, #282, #770, .T.);
#243 = EDGE_CURVE('', #283, #282, #775, .T.);
#244 = EDGE_CURVE('', #253, #283, #780, .T.);
#245 = EDGE_CURVE('', #284, #283, #785, .T.);
#246 = EDGE_CURVE('', #252, #284, #790, .T.);
#247 = EDGE_CURVE('', #285, #284, #795, .T.);
#248 = EDGE_CURVE('', #251, #285, #800, .T.);
#249 = EDGE_CURVE('', #280, #285, #805, .T.);
#250 = VERTEX_POINT('', #810);
#251 = VERTEX_POINT('', #811);
#252 = VERTEX_POINT('', #812);
#253 = VERTEX_POINT('', #813);
#254 = VERTEX_POINT('', #814);
#255 = VERTEX_POINT('', #815);
#256 = VERTEX_POINT('', #816);
#257 = VERTEX_POINT('', #817);
#258 = VERTEX_POINT('', #818);
#259 = VERTEX_POINT('', #819);
#260 = VERTEX_POINT('', #820);
#261 = VERTEX_POINT('', #821);
#262 = VERTEX_POINT('', #822);
#263 = VERTEX_POINT('', #823);
#264 = VERTEX_POINT('', #824);
#265 = VERTEX_POINT('', #825);
#266 = VERTEX_POINT('', #826);
#267 = VERTEX_POINT('', #827);
#268 = VERTEX_POINT('', #828);
#269 = VERTEX_POINT('', #829);
#270 = VERTEX_POINT('', #830);
#271 = VERTEX_POINT('', #831);
#272 = VERTEX_POINT('', #832);
#273 = VERTEX_POINT('', #833);
#274 = VERTEX_POINT('', #834);
#275 = VERTEX_POINT('', #835);
#276 = VERTEX_POINT('', #836);
#277 = VERTEX_POINT('', #837);
#278 = VERTEX_POINT('', #838);
#279 = VERTEX_POINT('', #839);
#280 = VERTEX_POINT('', #840);
#281 = VERTEX_POINT('', #841);
#282 = VERTEX_POINT('', #842);
#283 = VERTEX_POINT('', #843);
#284 = VERTEX_POINT('', #844);
#285 = VERTEX_POINT('', #845);
#286 = PLANE('', #287);
#287 = AXIS2_PLACEMENT_3D('', #288, #289, #290);
#288 = CARTESIAN_POINT('', (163.0, -77.0, 13.0));
#289 = DIRECTION('', (0.0, 0.0, 1.0));
#290 = DIRECTION('', (-1.0, 0.0, 0.0));
#291 = PLANE('', #292);
#292 = AXIS2_PLACEMENT_3D('', #293, #294, #295);
#293 = CARTESIAN_POINT('', (160.8000001, -79.1999998, 10.0000003));
#294 = DIRECTION('', (0.0, 1.0, -0.0));
#295 = DIRECTION('', (-1.0, 0.0, 0.0));
#296 = PLANE('', #297);
#297 = AXIS2_PLACEMENT_3D('', #298, #299, #300);
#298 = CARTESIAN_POINT('', (99.2000001, -79.1999998, 10.0000003));
#299 = DIRECTION('', (-1.0, 0.0, 0.0));
#300 = DIRECTION('', (0.0, -1.0, 0.0));
#301 = PLANE('', #302);
#302 = AXIS2_PLACEMENT_3D('', #303, #304, #305);
#303 = CARTESIAN_POINT('', (160.8000001, -79.1999998, 10.0000003));
#304 = DIRECTION('', (0.0, 0.0, 1.0));
#305 = DIRECTION('', (-1.0, 0.0, 0.0));
#306 = PLANE('', #307);
#307 = AXIS2_PLACEMENT_3D('', #308, #309, #310);
#308 = CARTESIAN_POINT('', (100.4000001, -80.3999998, 5.0000003));
#309 = DIRECTION('', (-1.0, 0.0, 0.0));
#310 = DIRECTION('', (0.0, -1.0, 0.0));
#311 = PLANE('', #312);
#312 = AXIS2_PLACEMENT_3D('', #313, #314, #315);
#313 = CARTESIAN_POINT('', (159.6000001, -80.3999998, 5.0000003));
#314 = DIRECTION('', (0.0, 1.0, -0.0));
#315 = DIRECTION('', (-1.0, 0.0, 0.0));
#316 = PLANE('', #317);
#317 = AXIS2_PLACEMENT_3D('', #318, #319, #320);
#318 = CARTESIAN_POINT('', (159.6000001, -80.3999998, 13.0000003));
#319 = DIRECTION('', (0.0, 0.0, 1.0));
#320 = DIRECTION('', (-1.0, 0.0, 0.0));
#321 = PLANE('', #322);
#322 = AXIS2_PLACEMENT_3D('', #323, #324, #325);
#323 = CARTESIAN_POINT('', (159.6000001, -99.59999979999999, 5.0000003));
#324 = DIRECTION('', (1.0, 0.0, 0.0));
#325 = DIRECTION('', (0.0, 1.0, 0.0));
#326 = PLANE('', #327);
#327 = AXIS2_PLACEMENT_3D('', #328, #329, #330);
#328 = CARTESIAN_POINT('', (124.60000009999999, -99.59999979999999, 5.0000003));
#329 = DIRECTION('', (0.0, -1.0, 0.0));
#330 = DIRECTION('', (1.0, 0.0, 0.0));
#331 = PLANE('', #332);
#332 = AXIS2_PLACEMENT_3D('', #333, #334, #335);
#333 = CARTESIAN_POINT('', (124.60000009999999, -119.59999979999999, 5.0000003));
#334 = DIRECTION('', (1.0, 0.0, 0.0));
#335 = DIRECTION('', (0.0, 1.0, 0.0));
#336 = PLANE('', #337);
#337 = AXIS2_PLACEMENT_3D('', #338, #339, #340);
#338 = CARTESIAN_POINT('', (100.4000001, -119.59999979999999, 5.0000003));
#339 = DIRECTION('', (0.0, -1.0, 0.0));
#340 = DIRECTION('', (1.0, 0.0, 0.0));
#341 = PLANE('', #342);
#342 = AXIS2_PLACEMENT_3D('', #343, #344, #345);
#343 = CARTESIAN_POINT('', (99.2000001, -120.7999998, 10.0000003));
#344 = DIRECTION('', (0.0, -0.9999999999999999, 0.0));
#345 = DIRECTION('', (0.9999999999999999, 0.0, 0.0));
#346 = PLANE('', #347);
#347 = AXIS2_PLACEMENT_3D('', #348, #349, #350);
#348 = CARTESIAN_POINT('', (125.80000009999999, -120.7999998, 10.0000003));
#349 = DIRECTION('', (1.0, 0.0, 0.0));
#350 = DIRECTION('', (0.0, 1.0, 0.0));
#351 = PLANE('', #352);
#352 = AXIS2_PLACEMENT_3D('', #353, #354, #355);
#353 = CARTESIAN_POINT('', (125.80000009999999, -100.7999998, 10.0000003));
#354 = DIRECTION('', (0.0, -1.0, 0.0));
#355 = DIRECTION('', (1.0, 0.0, 0.0));
#356 = PLANE('', #357);
#357 = AXIS2_PLACEMENT_3D('', #358, #359, #360);
#358 = CARTESIAN_POINT('', (160.8000001, -100.7999998, 10.0000003));
#359 = DIRECTION('', (1.0, 0.0, 0.0));
#360 = DIRECTION('', (0.0, 1.0, 0.0));
#361 = PLANE('', #362);
#362 = AXIS2_PLACEMENT_3D('', #363, #364, #365);
#363 = CARTESIAN_POINT('', (163.0, -77.0, 13.0));
#364 = DIRECTION('', (0.0, 1.0, -0.0));
#365 = DIRECTION('', (-1.0, 0.0, 0.0));
#366 = PLANE('', #367);
#367 = AXIS2_PLACEMENT_3D('', #368, #369, #370);
#368 = CARTESIAN_POINT('', (163.0, -103.0, 13.0));
#369 = DIRECTION('', (1.0, 0.0, 0.0));
#370 = DIRECTION('', (0.0, 1.0, 0.0));
#371 = PLANE('', #372);
#372 = AXIS2_PLACEMENT_3D('', #373, #374, #375);
#373 = CARTESIAN_POINT('', (128.0, -103.0, 13.0));
#374 = DIRECTION('', (0.0, -1.0, 0.0));
#375 = DIRECTION('', (1.0, 0.0, 0.0));
#376 = PLANE('', #377);
#377 = AXIS2_PLACEMENT_3D('', #378, #379, #380);
#378 = CARTESIAN_POINT('', (128.0, -123.0, 13.0));
#379 = DIRECTION('', (1.0, 0.0, 0.0));
#380 = DIRECTION('', (0.0, 1.0, 0.0));
#381 = PLANE('', #382);
#382 = AXIS2_PLACEMENT_3D('', #383, #384, #385);
#383 = CARTESIAN_POINT('', (97.0, -123.0, 13.0));
#384 = DIRECTION('', (0.0, -1.0, 0.0));
#385 = DIRECTION('', (1.0, 0.0, 0.0));
#386 = PLANE('', #387);
#387 = AXIS2_PLACEMENT_3D('', #388, #389, #390);
#388 = CARTESIAN_POINT('', (97.0, -77.0, 13.0));
#389 = DIRECTION('', (-1.0, 0.0, 0.0));
#390 = DIRECTION('', (0.0, -1.0, 0.0));
#391 = PLANE('', #392);
#392 = AXIS2_PLACEMENT_3D('', #393, #394, #395);
#393 = CARTESIAN_POINT('', (163.0, -77.0, 15.0));
#394 = DIRECTION('', (0.0, 0.0, 1.0));
#395 = DIRECTION('', (-1.0, 0.0, 0.0));
#396 = SURFACE_CURVE('', #397, (#286, #386), .CURVE_3D.);
#397 = LINE('', #398, #399);
#398 = CARTESIAN_POINT('', (97.0, -77.0, 13.0));
#399 = VECTOR('', #400, 46.0);
#400 = DIRECTION('', (0.0, -1.0, 0.0));
#401 = SURFACE_CURVE('', #402, (#286, #381), .CURVE_3D.);
#402 = LINE('', #403, #404);
#403 = CARTESIAN_POINT('', (97.0, -123.0, 13.0));
#404 = VECTOR('', #405, 31.0);
#405 = DIRECTION('', (1.0, 0.0, 0.0));
#406 = SURFACE_CURVE('', #407, (#286, #376), .CURVE_3D.);
#407 = LINE('', #408, #409);
#408 = CARTESIAN_POINT('', (128.0, -123.0, 13.0));
#409 = VECTOR('', #410, 20.0);
#410 = DIRECTION('', (0.0, 1.0, 0.0));
#411 = SURFACE_CURVE('', #412, (#286, #371), .CURVE_3D.);
#412 = LINE('', #413, #414);
#413 = CARTESIAN_POINT('', (128.0, -103.0, 13.0));
#414 = VECTOR('', #415, 35.0);
#415 = DIRECTION('', (1.0, 0.0, 0.0));
#416 = SURFACE_CURVE('', #417, (#286, #366), .CURVE_3D.);
#417 = LINE('', #418, #419);
#418 = CARTESIAN_POINT('', (163.0, -103.0, 13.0));
#419 = VECTOR('', #420, 26.0);
#420 = DIRECTION('', (0.0, 1.0, 0.0));
#421 = SURFACE_CURVE('', #422, (#286, #361), .CURVE_3D.);
#422 = LINE('', #423, #424);
#423 = CARTESIAN_POINT('', (163.0, -77.0, 13.0));
#424 = VECTOR('', #425, 66.0);
#425 = DIRECTION('', (-1.0, 0.0, 0.0));
#426 = SURFACE_CURVE('', #427, (#286, #356), .CURVE_3D.);
#427 = INTERSECTION_CURVE('', #428, (#432, #437), .CURVE_3D.);
#428 = B_SPLINE_CURVE_WITH_KNOTS('', 1, (#429, #430, #431), .UNSPECIFIED., .U., .U., (2, 1, 2), (0.0, 0.5, 1.0), .UNSPECIFIED.);
#429 = CARTESIAN_POINT('', (160.8000001, -100.7999998, 13.0));
#430 = CARTESIAN_POINT('', (160.8000001, -84.60000142, 13.0));
#431 = CARTESIAN_POINT('', (160.8000001, -79.1999998, 13.0));
#432 = PLANE('', #433);
#433 = AXIS2_PLACEMENT_3D('', #434, #435, #436);
#434 = CARTESIAN_POINT('', (163.0, -77.0, 13.0));
#435 = DIRECTION('', (0.0, 0.0, 1.0));
#436 = DIRECTION('', (-1.0, 0.0, 0.0));
#437 = PLANE('', #438);
#438 = AXIS2_PLACEMENT_3D('', #439, #440, #441);
#439 = CARTESIAN_POINT('', (160.8000001, -100.7999998, 10.0000003));
#440 = DIRECTION('', (1.0, 0.0, 0.0));
#441 = DIRECTION('', (0.0, 1.0, 0.0));
#442 = SURFACE_CURVE('', #443, (#286, #351), .CURVE_3D.);
#443 = INTERSECTION_CURVE('', #444, (#449, #454), .CURVE_3D.);
#444 = B_SPLINE_CURVE_WITH_KNOTS('', 1, (#445, #446, #447, #448), .UNSPECIFIED., .U., .U., (2, 1, 1, 2), (0.0, 0.3333333333333333, 0.6666666666666666, 1.0), .UNSPECIFIED.);
#445 = CARTESIAN_POINT('', (160.8000001, -100.7999998, 13.0));
#446 = CARTESIAN_POINT('', (152.049997475, -100.7999998, 13.0));
#447 = CARTESIAN_POINT('', (130.96153873076923, -100.7999998, 13.0));
#448 = CARTESIAN_POINT('', (125.80000009999999, -100.7999998, 13.0));
#449 = PLANE('', #450);
#450 = AXIS2_PLACEMENT_3D('', #451, #452, #453);
#451 = CARTESIAN_POINT('', (163.0, -77.0, 13.0));
#452 = DIRECTION('', (0.0, 0.0, 1.0));
#453 = DIRECTION('', (-1.0, 0.0, 0.0));
#454 = PLANE('', #455);
#455 = AXIS2_PLACEMENT_3D('', #456, #457, #458);
#456 = CARTESIAN_POINT('', (125.80000009999999, -100.7999998, 10.0000003));
#457 = DIRECTION('', (0.0, -1.0, 0.0));
#458 = DIRECTION('', (1.0, 0.0, 0.0));
#459 = SURFACE_CURVE('', #460, (#286, #346), .CURVE_3D.);
#460 = INTERSECTION_CURVE('', #461, (#467, #472), .CURVE_3D.);
#461 = B_SPLINE_CURVE_WITH_KNOTS('', 1, (#462, #463, #464, #465, #466), .UNSPECIFIED., .U., .U., (2, 1, 1, 1, 2), (0.0, 0.25, 0.5, 0.75, 1.0), .UNSPECIFIED.);
#462 = CARTESIAN_POINT('', (125.80000009999999, -100.7999998, 13.0));
#463 = CARTESIAN_POINT('', (125.80000009999999, -101.15483879354838, 13.0));
#464 = CARTESIAN_POINT('', (125.80000009999999, -104.41935477419355, 13.0));
#465 = CARTESIAN_POINT('', (125.80000009999999, -105.80000129999999, 13.0));
#466 = CARTESIAN_POINT('', (125.80000009999999, -120.7999998, 13.0));
#467 = PLANE('', #468);
#468 = AXIS2_PLACEMENT_3D('', #469, #470, #471);
#469 = CARTESIAN_POINT('', (163.0, -77.0, 13.0));
#470 = DIRECTION('', (0.0, 0.0, 1.0));
#471 = DIRECTION('', (-1.0, 0.0, 0.0));
#472 = PLANE('', #473);
#473 = AXIS2_PLACEMENT_3D('', #474, #475, #476);
#474 = CARTESIAN_POINT('', (125.80000009999999, -120.7999998, 10.0000003));
#475 = DIRECTION('', (1.0, 0.0, 0.0));
#476 = DIRECTION('', (0.0, 1.0, 0.0));
#477 = SURFACE_CURVE('', #478, (#286, #341), .CURVE_3D.);
#478 = INTERSECTION_CURVE('', #479, (#484, #489), .CURVE_3D.);
#479 = B_SPLINE_CURVE_WITH_KNOTS('', 1, (#480, #481, #482, #483), .UNSPECIFIED., .U., .U., (2, 1, 1, 2), (0.0, 0.3333333333333333, 0.6666666666666666, 1.0), .UNSPECIFIED.);
#480 = CARTESIAN_POINT('', (125.80000009999999, -120.7999998, 13.0));
#481 = CARTESIAN_POINT('', (119.149998105, -120.7999998, 13.0));
#482 = CARTESIAN_POINT('', (100.41000031000002, -120.7999998, 13.0));
#483 = CARTESIAN_POINT('', (99.2000001, -120.7999998, 13.0));
#484 = PLANE('', #485);
#485 = AXIS2_PLACEMENT_3D('', #486, #487, #488);
#486 = CARTESIAN_POINT('', (163.0, -77.0, 13.0));
#487 = DIRECTION('', (0.0, 0.0, 1.0));
#488 = DIRECTION('', (-1.0, 0.0, 0.0));
#489 = PLANE('', #490);
#490 = AXIS2_PLACEMENT_3D('', #491, #492, #493);
#491 = CARTESIAN_POINT('', (99.2000001, -120.7999998, 10.0000003));
#492 = DIRECTION('', (0.0, -0.9999999999999999, 0.0));
#493 = DIRECTION('', (0.9999999999999999, 0.0, 0.0));
#494 = SURFACE_CURVE('', #495, (#286, #296), .CURVE_3D.);
#495 = INTERSECTION_CURVE('', #496, (#500, #505), .CURVE_3D.);
#496 = B_SPLINE_CURVE_WITH_KNOTS('', 1, (#497, #498, #499), .UNSPECIFIED., .U., .U., (2, 1, 2), (0.0, 0.5, 1.0), .UNSPECIFIED.);
#497 = CARTESIAN_POINT('', (99.2000001, -120.7999998, 13.0));
#498 = CARTESIAN_POINT('', (99.2000001, -110.39999668, 13.0));
#499 = CARTESIAN_POINT('', (99.2000001, -79.1999998, 13.0));
#500 = PLANE('', #501);
#501 = AXIS2_PLACEMENT_3D('', #502, #503, #504);
#502 = CARTESIAN_POINT('', (163.0, -77.0, 13.0));
#503 = DIRECTION('', (0.0, 0.0, 1.0));
#504 = DIRECTION('', (-1.0, 0.0, 0.0));
#505 = PLANE('', #506);
#506 = AXIS2_PLACEMENT_3D('', #507, #508, #509);
#507 = CARTESIAN_POINT('', (99.2000001, -79.1999998, 10.0000003));
#508 = DIRECTION('', (-1.0, 0.0, 0.0));
#509 = DIRECTION('', (0.0, -1.0, 0.0));
#510 = SURFACE_CURVE('', #511, (#286, #291), .CURVE_3D.);
#511 = INTERSECTION_CURVE('', #512, (#518, #523), .CURVE_3D.);
#512 = B_SPLINE_CURVE_WITH_KNOTS('', 1, (#513, #514, #515, #516, #517), .UNSPECIFIED., .U., .U., (2, 1, 1, 1, 2), (0.0, 0.25, 0.5, 0.75, 1.0), .UNSPECIFIED.);
#513 = CARTESIAN_POINT('', (160.8000001, -79.1999998, 13.0));
#514 = CARTESIAN_POINT('', (160.0384618076923, -79.1999998, 13.0));
#515 = CARTESIAN_POINT('', (114.60000472, -79.1999998, 13.0));
#516 = CARTESIAN_POINT('', (99.6230766846154, -79.1999998, 13.0));
#517 = CARTESIAN_POINT('', (99.2000001, -79.1999998, 13.0));
#518 = PLANE('', #519);
#519 = AXIS2_PLACEMENT_3D('', #520, #521, #522);
#520 = CARTESIAN_POINT('', (163.0, -77.0, 13.0));
#521 = DIRECTION('', (0.0, 0.0, 1.0));
#522 = DIRECTION('', (-1.0, 0.0, 0.0));
#523 = PLANE('', #524);
#524 = AXIS2_PLACEMENT_3D('', #525, #526, #527);
#525 = CARTESIAN_POINT('', (160.8000001, -79.1999998, 10.0000003));
#526 = DIRECTION('', (0.0, 1.0, -0.0));
#527 = DIRECTION('', (-1.0, 0.0, 0.0));
#528 = SURFACE_CURVE('', #529, (#291, #356), .CURVE_3D.);
#529 = LINE('', #530, #531);
#530 = CARTESIAN_POINT('', (160.8000001, -79.1999998, 10.0000003));
#531 = VECTOR('', #532, 2.9999997);
#532 = DIRECTION('', (0.0, 0.0, 1.0));
#533 = SURFACE_CURVE('', #534, (#291, #301), .CURVE_3D.);
#534 = LINE('', #535, #536);
#535 = CARTESIAN_POINT('', (160.8000001, -79.1999998, 10.0000003));
#536 = VECTOR('', #537, 61.60000000000001);
#537 = DIRECTION('', (-1.0, 0.0, 0.0));
#538 = SURFACE_CURVE('', #539, (#291, #296), .CURVE_3D.);
#539 = LINE('', #540, #541);
#540 = CARTESIAN_POINT('', (99.2000001, -79.1999998, 10.0000003));
#541 = VECTOR('', #542, 2.9999997);
#542 = DIRECTION('', (0.0, 0.0, 1.0));
#543 = SURFACE_CURVE('', #544, (#296, #301), .CURVE_3D.);
#544 = LINE('', #545, #546);
#545 = CARTESIAN_POINT('', (99.2000001, -79.1999998, 10.0000003));
#546 = VECTOR('', #547, 41.599999999999994);
#547 = DIRECTION('', (0.0, -1.0, 0.0));
#548 = SURFACE_CURVE('', #549, (#296, #341), .CURVE_3D.);
#549 = LINE('', #550, #551);
#550 = CARTESIAN_POINT('', (99.2000001, -120.7999998, 10.0000003));
#551 = VECTOR('', #552, 2.9999997);
#552 = DIRECTION('', (0.0, 0.0, 1.0));
#553 = SURFACE_CURVE('', #554, (#301, #341), .CURVE_3D.);
#554 = LINE('', #555, #556);
#555 = CARTESIAN_POINT('', (99.2000001, -120.7999998, 10.0000003));
#556 = VECTOR('', #557, 26.599999999999994);
#557 = DIRECTION('', (1.0, 0.0, 0.0));
#558 = SURFACE_CURVE('', #559, (#301, #346), .CURVE_3D.);
#559 = LINE('', #560, #561);
#560 = CARTESIAN_POINT('', (125.80000009999999, -120.7999998, 10.0000003));
#561 = VECTOR('', #562, 20.0);
#562 = DIRECTION('', (0.0, 1.0, 0.0));
#563 = SURFACE_CURVE('', #564, (#301, #351), .CURVE_3D.);
#564 = LINE('', #565, #566);
#565 = CARTESIAN_POINT('', (125.80000009999999, -100.7999998, 10.0000003));
#566 = VECTOR('', #567, 35.000000000000014);
#567 = DIRECTION('', (1.0, 0.0, 0.0));
#568 = SURFACE_CURVE('', #569, (#301, #356), .CURVE_3D.);
#569 = LINE('', #570, #571);
#570 = CARTESIAN_POINT('', (160.8000001, -100.7999998, 10.0000003));
#571 = VECTOR('', #572, 21.599999999999994);
#572 = DIRECTION('', (0.0, 1.0, 0.0));
#573 = SURFACE_CURVE('', #574, (#301, #311), .CURVE_3D.);
#574 = INTERSECTION_CURVE('', #575, (#581, #586), .CURVE_3D.);
#575 = B_SPLINE_CURVE_WITH_KNOTS('', 1, (#576, #577, #578, #579, #580), .UNSPECIFIED., .U., .U., (2, 1, 1, 1, 2), (0.0, 0.25, 0.5, 0.75, 1.0), .UNSPECIFIED.);
#576 = CARTESIAN_POINT('', (100.4000001, -80.3999998, 10.0000003));
#577 = CARTESIAN_POINT('', (100.67777787777777, -80.3999998, 10.0000003));
#578 = CARTESIAN_POINT('', (122.60000009999999, -80.3999998, 10.0000003));
#579 = CARTESIAN_POINT('', (158.85555565555555, -80.3999998, 10.0000003));
#580 = CARTESIAN_POINT('', (159.6000001, -80.3999998, 10.0000003));
#581 = PLANE('', #582);
#582 = AXIS2_PLACEMENT_3D('', #583, #584, #585);
#583 = CARTESIAN_POINT('', (160.8000001, -79.1999998, 10.0000003));
#584 = DIRECTION('', (0.0, 0.0, 1.0));
#585 = DIRECTION('', (-1.0, 0.0, 0.0));
#586 = PLANE('', #587);
#587 = AXIS2_PLACEMENT_3D('', #588, #589, #590);
#588 = CARTESIAN_POINT('', (159.6000001, -80.3999998, 5.0000003));
#589 = DIRECTION('', (0.0, 1.0, -0.0));
#590 = DIRECTION('', (-1.0, 0.0, 0.0));
#591 = SURFACE_CURVE('', #592, (#301, #321), .CURVE_3D.);
#592 = INTERSECTION_CURVE('', #593, (#597, #602), .CURVE_3D.);
#593 = B_SPLINE_CURVE_WITH_KNOTS('', 1, (#594, #595, #596), .UNSPECIFIED., .U., .U., (2, 1, 2), (0.0, 0.5, 1.0), .UNSPECIFIED.);
#594 = CARTESIAN_POINT('', (159.6000001, -99.59999979999999, 10.0000003));
#595 = CARTESIAN_POINT('', (159.6000001, -87.5999998, 10.0000003));
#596 = CARTESIAN_POINT('', (159.6000001, -80.3999998, 10.0000003));
#597 = PLANE('', #598);
#598 = AXIS2_PLACEMENT_3D('', #599, #600, #601);
#599 = CARTESIAN_POINT('', (160.8000001, -79.1999998, 10.0000003));
#600 = DIRECTION('', (0.0, 0.0, 1.0));
#601 = DIRECTION('', (-1.0, 0.0, 0.0));
#602 = PLANE('', #603);
#603 = AXIS2_PLACEMENT_3D('', #604, #605, #606);
#604 = CARTESIAN_POINT('', (159.6000001, -99.59999979999999, 5.0000003));
#605 = DIRECTION('', (1.0, 0.0, 0.0));
#606 = DIRECTION('', (0.0, 1.0, 0.0));
#607 = SURFACE_CURVE('', #608, (#301, #326), .CURVE_3D.);
#608 = INTERSECTION_CURVE('', #609, (#614, #619), .CURVE_3D.);
#609 = B_SPLINE_CURVE_WITH_KNOTS('', 1, (#610, #611, #612, #613), .UNSPECIFIED., .U., .U., (2, 1, 1, 2), (0.0, 0.3333333333333333, 0.6666666666666666, 1.0), .UNSPECIFIED.);
#610 = CARTESIAN_POINT('', (124.60000009999999, -99.59999979999999, 10.0000003));
#611 = CARTESIAN_POINT('', (127.74444454444443, -99.59999979999999, 10.0000003));
#612 = CARTESIAN_POINT('', (146.4750001, -99.59999979999999, 10.0000003));
#613 = CARTESIAN_POINT('', (159.6000001, -99.59999979999999, 10.0000003));
#614 = PLANE('', #615);
#615 = AXIS2_PLACEMENT_3D('', #616, #617, #618);
#616 = CARTESIAN_POINT('', (160.8000001, -79.1999998, 10.0000003));
#617 = DIRECTION('', (0.0, 0.0, 1.0));
#618 = DIRECTION('', (-1.0, 0.0, 0.0));
#619 = PLANE('', #620);
#620 = AXIS2_PLACEMENT_3D('', #621, #622, #623);
#621 = CARTESIAN_POINT('', (124.60000009999999, -99.59999979999999, 5.0000003));
#622 = DIRECTION('', (0.0, -1.0, 0.0));
#623 = DIRECTION('', (1.0, 0.0, 0.0));
#624 = SURFACE_CURVE('', #625, (#301, #331), .CURVE_3D.);
#625 = INTERSECTION_CURVE('', #626, (#632, #637), .CURVE_3D.);
#626 = B_SPLINE_CURVE_WITH_KNOTS('', 1, (#627, #628, #629, #630, #631), .UNSPECIFIED., .U., .U., (2, 1, 1, 1, 2), (0.0, 0.25, 0.5, 0.75, 1.0), .UNSPECIFIED.);
#627 = CARTESIAN_POINT('', (124.60000009999999, -119.59999979999999, 10.0000003));
#628 = CARTESIAN_POINT('', (124.60000009999999, -107.09999979999999, 10.0000003));
#629 = CARTESIAN_POINT('', (124.60000009999999, -101.70225543909774, 10.0000003));
#630 = CARTESIAN_POINT('', (124.60000009999999, -99.82556370977443, 10.0000003));
#631 = CARTESIAN_POINT('', (124.60000009999999, -99.59999979999999, 10.0000003));
#632 = PLANE('', #633);
#633 = AXIS2_PLACEMENT_3D('', #634, #635, #636);
#634 = CARTESIAN_POINT('', (160.8000001, -79.1999998, 10.0000003));
#635 = DIRECTION('', (0.0, 0.0, 1.0));
#636 = DIRECTION('', (-1.0, 0.0, 0.0));
#637 = PLANE('', #638);
#638 = AXIS2_PLACEMENT_3D('', #639, #640, #641);
#639 = CARTESIAN_POINT('', (124.60000009999999, -119.59999979999999, 5.0000003));
#640 = DIRECTION('', (1.0, 0.0, 0.0));
#641 = DIRECTION('', (0.0, 1.0, 0.0));
#642 = SURFACE_CURVE('', #643, (#301, #336), .CURVE_3D.);
#643 = INTERSECTION_CURVE('', #644, (#649, #654), .CURVE_3D.);
#644 = B_SPLINE_CURVE_WITH_KNOTS('', 1, (#645, #646, #647, #648), .UNSPECIFIED., .U., .U., (2, 1, 1, 2), (0.0, 0.3333333333333333, 0.6666666666666666, 1.0), .UNSPECIFIED.);
#645 = CARTESIAN_POINT('', (100.4000001, -119.59999979999999, 10.0000003));
#646 = CARTESIAN_POINT('', (100.79600010000001, -119.59999979999999, 10.0000003));
#647 = CARTESIAN_POINT('', (115.5250001, -119.59999979999999, 10.0000003));
#648 = CARTESIAN_POINT('', (124.60000009999999, -119.59999979999999, 10.0000003));
#649 = PLANE('', #650);
#650 = AXIS2_PLACEMENT_3D('', #651, #652, #653);
#651 = CARTESIAN_POINT('', (160.8000001, -79.1999998, 10.0000003));
#652 = DIRECTION('', (0.0, 0.0, 1.0));
#653 = DIRECTION('', (-1.0, 0.0, 0.0));
#654 = PLANE('', #655);
#655 = AXIS2_PLACEMENT_3D('', #656, #657, #658);
#656 = CARTESIAN_POINT('', (100.4000001, -119.59999979999999, 5.0000003));
#657 = DIRECTION('', (0.0, -1.0, 0.0));
#658 = DIRECTION('', (1.0, 0.0, 0.0));
#659 = SURFACE_CURVE('', #660, (#301, #306), .CURVE_3D.);
#660 = INTERSECTION_CURVE('', #661, (#665, #670), .CURVE_3D.);
#661 = B_SPLINE_CURVE_WITH_KNOTS('', 1, (#662, #663, #664), .UNSPECIFIED., .U., .U., (2, 1, 2), (0.0, 0.5, 1.0), .UNSPECIFIED.);
#662 = CARTESIAN_POINT('', (100.4000001, -119.59999979999999, 10.0000003));
#663 = CARTESIAN_POINT('', (100.4000001, -104.89999979999999, 10.0000003));
#664 = CARTESIAN_POINT('', (100.4000001, -80.3999998, 10.0000003));
#665 = PLANE('', #666);
#666 = AXIS2_PLACEMENT_3D('', #667, #668, #669);
#667 = CARTESIAN_POINT('', (160.8000001, -79.1999998, 10.0000003));
#668 = DIRECTION('', (0.0, 0.0, 1.0));
#669 = DIRECTION('', (-1.0, 0.0, 0.0));
#670 = PLANE('', #671);
#671 = AXIS2_PLACEMENT_3D('', #672, #673, #674);
#672 = CARTESIAN_POINT('', (100.4000001, -80.3999998, 5.0000003));
#673 = DIRECTION('', (-1.0, 0.0, 0.0));
#674 = DIRECTION('', (0.0, -1.0, 0.0));
#675 = SURFACE_CURVE('', #676, (#306, #336), .CURVE_3D.);
#676 = LINE('', #677, #678);
#677 = CARTESIAN_POINT('', (100.4000001, -119.59999979999999, 10.0000003));
#678 = VECTOR('', #679, 3.0);
#679 = DIRECTION('', (0.0, 0.0, 1.0));
#680 = SURFACE_CURVE('', #681, (#306, #316), .CURVE_3D.);
#681 = LINE('', #682, #683);
#682 = CARTESIAN_POINT('', (100.4000001, -80.3999998, 13.0000003));
#683 = VECTOR('', #684, 39.19999999999999);
#684 = DIRECTION('', (0.0, -1.0, 0.0));
#685 = SURFACE_CURVE('', #686, (#306, #311), .CURVE_3D.);
#686 = LINE('', #687, #688);
#687 = CARTESIAN_POINT('', (100.4000001, -80.3999998, 10.0000003));
#688 = VECTOR('', #689, 3.0);
#689 = DIRECTION('', (0.0, 0.0, 1.0));
#690 = SURFACE_CURVE('', #691, (#311, #316), .CURVE_3D.);
#691 = LINE('', #692, #693);
#692 = CARTESIAN_POINT('', (159.6000001, -80.3999998, 13.0000003));
#693 = VECTOR('', #694, 59.19999999999999);
#694 = DIRECTION('', (-1.0, 0.0, 0.0));
#695 = SURFACE_CURVE('', #696, (#311, #321), .CURVE_3D.);
#696 = LINE('', #697, #698);
#697 = CARTESIAN_POINT('', (159.6000001, -80.3999998, 10.0000003));
#698 = VECTOR('', #699, 3.0);
#699 = DIRECTION('', (0.0, 0.0, 1.0));
#700 = SURFACE_CURVE('', #701, (#316, #336), .CURVE_3D.);
#701 = LINE('', #702, #703);
#702 = CARTESIAN_POINT('', (100.4000001, -119.59999979999999, 13.0000003));
#703 = VECTOR('', #704, 24.19999999999999);
#704 = DIRECTION('', (1.0, 0.0, 0.0));
#705 = SURFACE_CURVE('', #706, (#316, #331), .CURVE_3D.);
#706 = LINE('', #707, #708);
#707 = CARTESIAN_POINT('', (124.60000009999999, -119.59999979999999, 13.0000003));
#708 = VECTOR('', #709, 20.0);
#709 = DIRECTION('', (0.0, 1.0, 0.0));
#710 = SURFACE_CURVE('', #711, (#316, #326), .CURVE_3D.);
#711 = LINE('', #712, #713);
#712 = CARTESIAN_POINT('', (124.60000009999999, -99.59999979999999, 13.0000003));
#713 = VECTOR('', #714, 35.0);
#714 = DIRECTION('', (1.0, 0.0, 0.0));
#715 = SURFACE_CURVE('', #716, (#316, #321), .CURVE_3D.);
#716 = LINE('', #717, #718);
#717 = CARTESIAN_POINT('', (159.6000001, -99.59999979999999, 13.0000003));
#718 = VECTOR('', #719, 19.19999999999999);
#719 = DIRECTION('', (0.0, 1.0, 0.0));
#720 = SURFACE_CURVE('', #721, (#321, #326), .CURVE_3D.);
#721 = LINE('', #722, #723);
#722 = CARTESIAN_POINT('', (159.6000001, -99.59999979999999, 10.0000003));
#723 = VECTOR('', #724, 3.0);
#724 = DIRECTION('', (0.0, 0.0, 1.0));
#725 = SURFACE_CURVE('', #726, (#326, #331), .CURVE_3D.);
#726 = LINE('', #727, #728);
#727 = CARTESIAN_POINT('', (124.60000009999999, -99.59999979999999, 10.0000003));
#728 = VECTOR('', #729, 3.0);
#729 = DIRECTION('', (0.0, 0.0, 1.0));
#730 = SURFACE_CURVE('', #731, (#331, #336), .CURVE_3D.);
#731 = LINE('', #732, #733);
#732 = CARTESIAN_POINT('', (124.60000009999999, -119.59999979999999, 10.0000003));
#733 = VECTOR('', #734, 3.0);
#734 = DIRECTION('', (0.0, 0.0, 1.0));
#735 = SURFACE_CURVE('', #736, (#341, #346), .CURVE_3D.);
#736 = LINE('', #737, #738);
#737 = CARTESIAN_POINT('', (125.80000009999999, -120.7999998, 10.0000003));
#738 = VECTOR('', #739, 2.9999997);
#739 = DIRECTION('', (0.0, 0.0, 1.0));
#740 = SURFACE_CURVE('', #741, (#346, #351), .CURVE_3D.);
#741 = LINE('', #742, #743);
#742 = CARTESIAN_POINT('', (125.80000009999999, -100.7999998, 10.0000003));
#743 = VECTOR('', #744, 2.9999997);
#744 = DIRECTION('', (0.0, 0.0, 1.0));
#745 = SURFACE_CURVE('', #746, (#351, #356), .CURVE_3D.);
#746 = LINE('', #747, #748);
#747 = CARTESIAN_POINT('', (160.8000001, -100.7999998, 10.0000003));
#748 = VECTOR('', #749, 2.9999997);
#749 = DIRECTION('', (0.0, 0.0, 1.0));
#750 = SURFACE_CURVE('', #751, (#361, #386), .CURVE_3D.);
#751 = LINE('', #752, #753);
#752 = CARTESIAN_POINT('', (97.0, -77.0, 13.0));
#753 = VECTOR('', #754, 2.0);
#754 = DIRECTION('', (0.0, 0.0, 1.0));
#755 = SURFACE_CURVE('', #756, (#361, #391), .CURVE_3D.);
#756 = LINE('', #757, #758);
#757 = CARTESIAN_POINT('', (163.0, -77.0, 15.0));
#758 = VECTOR('', #759, 66.0);
#759 = DIRECTION('', (-1.0, 0.0, 0.0));
#760 = SURFACE_CURVE('', #761, (#361, #366), .CURVE_3D.);
#761 = LINE('', #762, #763);
#762 = CARTESIAN_POINT('', (163.0, -77.0, 13.0));
#763 = VECTOR('', #764, 2.0);
#764 = DIRECTION('', (0.0, 0.0, 1.0));
#765 = SURFACE_CURVE('', #766, (#366, #391), .CURVE_3D.);
#766 = LINE('', #767, #768);
#767 = CARTESIAN_POINT('', (163.0, -103.0, 15.0));
#768 = VECTOR('', #769, 26.0);
#769 = DIRECTION('', (0.0, 1.0, 0.0));
#770 = SURFACE_CURVE('', #771, (#366, #371), .CURVE_3D.);
#771 = LINE('', #772, #773);
#772 = CARTESIAN_POINT('', (163.0, -103.0, 13.0));
#773 = VECTOR('', #774, 2.0);
#774 = DIRECTION('', (0.0, 0.0, 1.0));
#775 = SURFACE_CURVE('', #776, (#371, #391), .CURVE_3D.);
#776 = LINE('', #777, #778);
#777 = CARTESIAN_POINT('', (128.0, -103.0, 15.0));
#778 = VECTOR('', #779, 35.0);
#779 = DIRECTION('', (1.0, 0.0, 0.0));
#780 = SURFACE_CURVE('', #781, (#371, #376), .CURVE_3D.);
#781 = LINE('', #782, #783);
#782 = CARTESIAN_POINT('', (128.0, -103.0, 13.0));
#783 = VECTOR('', #784, 2.0);
#784 = DIRECTION('', (0.0, 0.0, 1.0));
#785 = SURFACE_CURVE('', #786, (#376, #391), .CURVE_3D.);
#786 = LINE('', #787, #788);
#787 = CARTESIAN_POINT('', (128.0, -123.0, 15.0));
#788 = VECTOR('', #789, 20.0);
#789 = DIRECTION('', (0.0, 1.0, 0.0));
#790 = SURFACE_CURVE('', #791, (#376, #381), .CURVE_3D.);
#791 = LINE('', #792, #793);
#792 = CARTESIAN_POINT('', (128.0, -123.0, 13.0));
#793 = VECTOR('', #794, 2.0);
#794 = DIRECTION('', (0.0, 0.0, 1.0));
#795 = SURFACE_CURVE('', #796, (#381, #391), .CURVE_3D.);
#796 = LINE('', #797, #798);
#797 = CARTESIAN_POINT('', (97.0, -123.0, 15.0));
#798 = VECTOR('', #799, 31.0);
#799 = DIRECTION('', (1.0, 0.0, 0.0));
#800 = SURFACE_CURVE('', #801, (#381, #386), .CURVE_3D.);
#801 = LINE('', #802, #803);
#802 = CARTESIAN_POINT('', (97.0, -123.0, 13.0));
#803 = VECTOR('', #804, 2.0);
#804 = DIRECTION('', (0.0, 0.0, 1.0));
#805 = SURFACE_CURVE('', #806, (#386, #391), .CURVE_3D.);
#806 = LINE('', #807, #808);
#807 = CARTESIAN_POINT('', (97.0, -77.0, 15.0));
#808 = VECTOR('', #809, 46.0);
#809 = DIRECTION('', (0.0, -1.0, 0.0));
#810 = CARTESIAN_POINT('', (97.0, -77.0, 13.0));
#811 = CARTESIAN_POINT('', (97.0, -123.0, 13.0));
#812 = CARTESIAN_POINT('', (128.0, -123.0, 13.0));
#813 = CARTESIAN_POINT('', (128.0, -103.0, 13.0));
#814 = CARTESIAN_POINT('', (163.0, -103.0, 13.0));
#815 = CARTESIAN_POINT('', (163.0, -77.0, 13.0));
#816 = CARTESIAN_POINT('', (160.8000001, -100.7999998, 13.0));
#817 = CARTESIAN_POINT('', (160.8000001, -79.1999998, 13.0));
#818 = CARTESIAN_POINT('', (125.80000009999999, -100.7999998, 13.0));
#819 = CARTESIAN_POINT('', (125.80000009999999, -120.7999998, 13.0));
#820 = CARTESIAN_POINT('', (99.2000001, -120.7999998, 13.0));
#821 = CARTESIAN_POINT('', (99.2000001, -79.1999998, 13.0));
#822 = CARTESIAN_POINT('', (160.8000001, -79.1999998, 10.0000003));
#823 = CARTESIAN_POINT('', (99.2000001, -79.1999998, 10.0000003));
#824 = CARTESIAN_POINT('', (99.2000001, -120.7999998, 10.0000003));
#825 = CARTESIAN_POINT('', (125.80000009999999, -120.7999998, 10.0000003));
#826 = CARTESIAN_POINT('', (125.80000009999999, -100.7999998, 10.0000003));
#827 = CARTESIAN_POINT('', (160.8000001, -100.7999998, 10.0000003));
#828 = CARTESIAN_POINT('', (100.4000001, -80.3999998, 10.0000003));
#829 = CARTESIAN_POINT('', (159.6000001, -80.3999998, 10.0000003));
#830 = CARTESIAN_POINT('', (159.6000001, -99.59999979999999, 10.0000003));
#831 = CARTESIAN_POINT('', (124.60000009999999, -99.59999979999999, 10.0000003));
#832 = CARTESIAN_POINT('', (124.60000009999999, -119.59999979999999, 10.0000003));
#833 = CARTESIAN_POINT('', (100.4000001, -119.59999979999999, 10.0000003));
#834 = CARTESIAN_POINT('', (100.4000001, -119.59999979999999, 13.0000003));
#835 = CARTESIAN_POINT('', (100.4000001, -80.3999998, 13.0000003));
#836 = CARTESIAN_POINT('', (159.6000001, -80.3999998, 13.0000003));
#837 = CARTESIAN_POINT('', (124.60000009999999, -119.59999979999999, 13.0000003));
#838 = CARTESIAN_POINT('', (124.60000009999999, -99.59999979999999, 13.0000003));
#839 = CARTESIAN_POINT('', (159.6000001, -99.59999979999999, 13.0000003));
#840 = CARTESIAN_POINT('', (97.0, -77.0, 15.0));
#841 = CARTESIAN_POINT('', (163.0, -77.0, 15.0));
#842 = CARTESIAN_POINT('', (163.0, -103.0, 15.0));
#843 = CARTESIAN_POINT('', (128.0, -103.0, 15.0));
#844 = CARTESIAN_POINT('', (128.0, -123.0, 15.0));
#845 = CARTESIAN_POINT('', (97.0, -123.0, 15.0));
ENDSEC;
END-ISO-10303-21;
